<?xml version="1.0" encoding="utf-8"?>
<!-- Generator: Adobe Illustrator 24.1.1, SVG Export Plug-In . SVG Version: 6.00 Build 0)  -->
<svg version="1.1" id="Layer_1" xmlns="http://www.w3.org/2000/svg" xmlns:xlink="http://www.w3.org/1999/xlink" x="0px" y="0px"
	 viewBox="0 0 48 48" style="enable-background:new 0 0 48 48;" xml:space="preserve">
<style type="text/css">
	.st0{fill:#FFFFFF;}
</style>
<path class="st0" d="M25,7c9.1,0,16.5,7.1,17,16l1,0c0.6,0,1,0.4,1,1s-0.4,1-1,1l-1,0c-0.5,8.9-7.9,16-17,16S8.5,33.9,8,25l-2,0
	c-0.6,0-1-0.4-1-1s0.4-1,1-1l2,0C8.5,14.1,15.9,7,25,7z M13,25L13,25l-3,0c0.5,7.5,6.5,13.5,14,14l0-3C18.2,35.5,13.5,30.8,13,25z
	 M40,25l-3,0c-0.5,5.8-5.1,10.5-11,11l0,3C33.5,38.5,39.5,32.5,40,25z M25,15c-5,0-9,4-9,9s4,9,9,9s9-4,9-9S30,15,25,15z M27.8,19.8
	l1.4,1.4L26.4,24l2.8,2.8l-1.4,1.4L25,25.4l-2.8,2.8l-1.4-1.4l2.8-2.8l-2.8-2.8l1.4-1.4l2.8,2.8L27.8,19.8z M10,23l3,0l0,0
	c0.5-5.8,5.1-10.5,11-11l0-3C16.5,9.5,10.5,15.5,10,23z M26,9l0,3c5.8,0.5,10.5,5.1,11,11l3,0C39.5,15.5,33.5,9.5,26,9z"/>
</svg>
