<?xml version="1.0" encoding="utf-8"?>
<!-- Generator: Adobe Illustrator 24.1.1, SVG Export Plug-In . SVG Version: 6.00 Build 0)  -->
<svg version="1.1" id="Layer_1" xmlns="http://www.w3.org/2000/svg" xmlns:xlink="http://www.w3.org/1999/xlink" x="0px" y="0px"
	 viewBox="0 0 48 48" style="enable-background:new 0 0 48 48;" xml:space="preserve">
<style type="text/css">
	.st0{fill:#FFFFFF;}
</style>
<path class="st0" d="M40.9,22.4l0,0.1l0.7,2.5c0.3,1.1,0.2,2.3-0.4,3.4l-0.1,0.2l-4.3,7.5c-0.6,1-1.5,1.8-2.6,2.1l-0.2,0.1L31.4,39
	c-0.4,0.1-0.8-0.1-0.9-0.5c-0.1-0.4,0.1-0.7,0.4-0.9l0.1,0l2.5-0.7c0.8-0.2,1.4-0.7,1.9-1.3l0.1-0.2l4.3-7.5
	c0.4-0.7,0.5-1.5,0.4-2.3l0-0.2l-0.7-2.5c-0.1-0.4,0.1-0.8,0.5-0.9C40.4,21.9,40.7,22.1,40.9,22.4z M7.1,22.4
	C7.3,22.1,7.6,21.9,8,22c0.4,0.1,0.6,0.5,0.5,0.9l-0.7,2.5l0,0.2c-0.2,0.8,0,1.6,0.4,2.3l4.3,7.5l0.1,0.2c0.4,0.7,1.1,1.1,1.9,1.3
	l2.5,0.7l0.1,0c0.3,0.1,0.5,0.5,0.4,0.9c-0.1,0.4-0.5,0.6-0.9,0.5l-2.5-0.7l-0.2-0.1c-1.1-0.4-2.1-1.1-2.6-2.1l-4.3-7.5l-0.1-0.2
	c-0.5-1-0.7-2.2-0.4-3.4l0.7-2.5L7.1,22.4z M31.6,15.8c2.8,0,5,2.2,5,5c0,0.8-0.2,1.7-0.6,2.4l-7.7,14.1c-0.2,0.3-0.5,0.5-0.9,0.5
	h-6.8c-0.4,0-0.7-0.2-0.9-0.5l-8.5-15c-0.2-0.3-0.2-0.6,0-0.9l2.5-5c0.2-0.3,0.5-0.6,0.9-0.6H31.6z M31.6,19.8H16.5l-0.9,1.9
	l6.8,12.1h3.3l6.8-12.5c0.1-0.1,0.1-0.2,0.1-0.4l0-0.1c0-0.5-0.4-0.9-0.9-1L31.6,19.8z M26.1,22.8c0.6,0,1,0.4,1,1
	c0,0.2-0.1,0.4-0.2,0.6l-2.1,3.2c-0.3,0.5-0.9,0.6-1.4,0.3c-0.1-0.1-0.2-0.2-0.3-0.3L21,24.3c-0.3-0.5-0.2-1.1,0.3-1.4
	c0.2-0.1,0.4-0.2,0.6-0.2H26.1z M30,9c0.2,0,0.3,0.1,0.4,0.1l0.1,0.1l3,3c0.3,0.3,0.3,0.8,0,1.1c-0.3,0.3-0.7,0.3-1,0.1l-0.1-0.1
	l-2.8-2.8H18.3l-2.8,2.8c-0.3,0.3-0.7,0.3-1,0.1l-0.1-0.1c-0.3-0.3-0.3-0.7-0.1-1l0.1-0.1l3-3C17.6,9.1,17.7,9,17.9,9L18,9H30z"/>
</svg>
