<?xml version="1.0" encoding="utf-8"?>
<!-- Generator: Adobe Illustrator 24.1.1, SVG Export Plug-In . SVG Version: 6.00 Build 0)  -->
<svg version="1.1" id="Layer_1" xmlns="http://www.w3.org/2000/svg" xmlns:xlink="http://www.w3.org/1999/xlink" x="0px" y="0px"
	 viewBox="0 0 48 48" style="enable-background:new 0 0 48 48;" xml:space="preserve">
<style type="text/css">
	.st0{fill-rule:evenodd;clip-rule:evenodd;fill:#FFFFFF;}
</style>
<path class="st0" d="M36.7,24c1.3,10.6-2,16-10.1,16l-0.3,0c-7.9-0.1-11.1-5.5-9.8-16c1,7.3,3,12.6,9.8,12.8l0.3,0
	C33.7,36.8,35.7,31.5,36.7,24z M25.6,7c-1,4.3,0,11.7,2.1,12.8c2.1-2.1,2.1-7,2.1-11c3.9,5.6,1.2,12.1,3.1,12.1
	c1.2,0,1.3-1.4,2.1-2.3c0.1,6.1-2.7,15.1-8.3,15.1s-8.2-10-8.3-16c1.6,2.7,2.9,3.8,3.9,3.2C20.8,15.9,21.9,11.3,25.6,7z M11,17.6
	c2.8,0,4.2,1.4,4.2,4.3L11,17.6z"/>
</svg>
