<?xml version="1.0" encoding="utf-8"?>
<!-- Generator: Adobe Illustrator 24.1.1, SVG Export Plug-In . SVG Version: 6.00 Build 0)  -->
<svg version="1.1" id="Layer_1" xmlns="http://www.w3.org/2000/svg" xmlns:xlink="http://www.w3.org/1999/xlink" x="0px" y="0px"
	 viewBox="0 0 48 48" style="enable-background:new 0 0 48 48;" xml:space="preserve">
<style type="text/css">
	.st0{fill-rule:evenodd;clip-rule:evenodd;fill:#FFFFFF;}
</style>
<path class="st0" d="M24,37c1.1,0,2,0.9,2,2s-0.9,2-2,2s-2-0.9-2-2S22.9,37,24,37z M24.9,13.2c-0.3,0.8-0.5,1.4-0.4,1.8
	c4.7,0.2,8.5,4.2,8.5,9c0,2.2-0.8,4.2-2.1,5.8L30.7,30l-0.1,0.1c-1.8,2.8-4,4.5-6.5,5.1c0.4-1.1,0.6-1.8,0.3-2.3l-0.2,0L24,33
	c-5,0-9-4-9-9c0-2.7,1.2-5.1,3-6.7l0,0C20,15.2,22.3,13.8,24.9,13.2z M9,22c1.1,0,2,0.9,2,2s-0.9,2-2,2c-1.1,0-2-0.9-2-2
	S7.9,22,9,22z M39,22c1.1,0,2,0.9,2,2s-0.9,2-2,2s-2-0.9-2-2S37.9,22,39,22z M24,22c-1.1,0-2,0.9-2,2s0.9,2,2,2s2-0.9,2-2
	S25.1,22,24,22z M24,7c1.1,0,2,0.9,2,2c0,1.1-0.9,2-2,2s-2-0.9-2-2C22,7.9,22.9,7,24,7z"/>
</svg>
