<svg width="708" height="708" viewBox="0 0 708 708" fill="none" xmlns="http://www.w3.org/2000/svg">
<g clip-path="url(#clip0)">
<path d="M272.699 435.386V428.485H275.499C276.202 428.485 276.774 428.685 277.214 429.086C277.655 429.48 277.875 430.013 277.875 430.683C277.875 431.354 277.661 431.886 277.234 432.281C276.813 432.675 276.235 432.872 275.499 432.872H274.03V435.386H272.699ZM274.03 431.64H275.479C275.775 431.64 276.018 431.554 276.209 431.383C276.399 431.206 276.495 430.973 276.495 430.683C276.495 430.348 276.396 430.105 276.199 429.954C276.008 429.796 275.768 429.717 275.479 429.717H274.03V431.64ZM279.85 433.967C280.061 434.243 280.35 434.381 280.718 434.381C281.086 434.381 281.375 434.243 281.586 433.967C281.796 433.684 281.901 433.286 281.901 432.774C281.901 432.261 281.793 431.866 281.576 431.59C281.366 431.308 281.08 431.166 280.718 431.166C280.357 431.166 280.067 431.304 279.85 431.581C279.64 431.857 279.535 432.254 279.535 432.774C279.535 433.293 279.64 433.691 279.85 433.967ZM282.473 434.805C282.013 435.291 281.428 435.534 280.718 435.534C280.008 435.534 279.423 435.291 278.963 434.805C278.503 434.318 278.273 433.641 278.273 432.774C278.273 431.919 278.51 431.245 278.983 430.752C279.456 430.259 280.035 430.013 280.718 430.013C281.402 430.013 281.98 430.259 282.454 430.752C282.927 431.245 283.163 431.919 283.163 432.774C283.163 433.641 282.933 434.318 282.473 434.805ZM284.203 435.386V430.161H285.415V430.713H285.435C285.534 430.516 285.678 430.358 285.869 430.24C286.066 430.121 286.28 430.062 286.51 430.062C286.674 430.062 286.832 430.095 286.983 430.161L286.786 431.403C286.641 431.35 286.507 431.324 286.382 431.324C285.784 431.324 285.485 431.722 285.485 432.517V435.386H284.203ZM288.186 433.523V431.245H287.377V430.161H288.215V428.879H289.428V430.161H290.749V431.245H289.448V433.405C289.448 433.681 289.494 433.875 289.586 433.986C289.678 434.098 289.865 434.154 290.148 434.154H290.572V435.386H290.029C289.326 435.386 288.843 435.239 288.58 434.943C288.317 434.647 288.186 434.174 288.186 433.523ZM294.614 435.386V434.884H294.594C294.581 434.903 294.565 434.93 294.545 434.962C294.525 434.989 294.476 435.038 294.397 435.11C294.318 435.183 294.229 435.248 294.131 435.308C294.032 435.367 293.897 435.419 293.726 435.465C293.556 435.511 293.372 435.534 293.174 435.534C292.543 435.534 292.07 435.386 291.754 435.091C291.446 434.788 291.291 434.42 291.291 433.986C291.291 433.533 291.426 433.188 291.695 432.951C291.965 432.714 292.422 432.517 293.066 432.359C293.664 432.215 294.039 432.1 294.19 432.014C294.341 431.929 294.417 431.807 294.417 431.65C294.417 431.492 294.341 431.36 294.19 431.255C294.045 431.15 293.825 431.097 293.529 431.097C293.181 431.097 292.931 431.176 292.78 431.334C292.629 431.485 292.51 431.692 292.425 431.955L291.36 431.512C291.485 431.071 291.728 430.713 292.09 430.437C292.451 430.154 292.925 430.013 293.51 430.013C294.147 430.013 294.67 430.18 295.077 430.516C295.485 430.851 295.689 431.37 295.689 432.074V435.386H294.614ZM293.322 433.247C292.994 433.326 292.777 433.421 292.671 433.533C292.573 433.638 292.524 433.76 292.524 433.898C292.524 434.253 292.78 434.43 293.293 434.43C293.68 434.43 293.97 434.358 294.16 434.213C294.358 434.062 294.456 433.878 294.456 433.661V432.754H294.436C294.41 432.806 294.381 432.849 294.348 432.882C294.321 432.908 294.223 432.958 294.052 433.03C293.881 433.096 293.638 433.168 293.322 433.247ZM296.971 435.386V428.189H298.302V435.386H296.971Z" fill="#7986A3"/>
<path d="M81.3189 421.693L82.719 421.387C82.8045 421.926 82.9425 422.317 83.1331 422.56C83.3303 422.797 83.6492 422.915 84.0896 422.915C84.4642 422.915 84.7633 422.85 84.9868 422.718C85.2103 422.58 85.3221 422.38 85.3221 422.117C85.3221 421.841 85.2136 421.63 84.9967 421.486C84.7863 421.335 84.2999 421.141 83.5374 420.904C82.8209 420.68 82.3115 420.411 82.0091 420.095C81.7133 419.773 81.5654 419.379 81.5654 418.912C81.5654 418.373 81.7725 417.913 82.1866 417.532C82.6073 417.144 83.1759 416.95 83.8924 416.95C84.5431 416.95 85.1018 417.108 85.5685 417.423C86.0418 417.739 86.3376 418.209 86.4559 418.833L85.1643 419.159C84.9605 418.508 84.5365 418.183 83.8924 418.183C83.5506 418.183 83.2942 418.248 83.1233 418.38C82.959 418.511 82.8768 418.686 82.8768 418.902C82.8768 419.106 82.9721 419.264 83.1627 419.376C83.3534 419.481 83.8431 419.668 84.6319 419.938C85.3944 420.201 85.9169 420.487 86.1996 420.796C86.4822 421.098 86.6236 421.509 86.6236 422.028C86.6236 422.639 86.3935 423.145 85.9334 423.546C85.4732 423.947 84.8586 424.148 84.0896 424.148C83.3073 424.148 82.673 423.944 82.1866 423.537C81.7067 423.122 81.4175 422.508 81.3189 421.693ZM87.5569 424V416.802H88.8387V419.277H88.8584C88.9635 419.106 89.1377 418.955 89.3809 418.824C89.6242 418.692 89.8739 418.626 90.1303 418.626C90.689 418.626 91.1327 418.797 91.4614 419.139C91.7901 419.481 91.9544 419.941 91.9544 420.519V424H90.6726V420.805C90.6726 420.516 90.5937 420.28 90.436 420.095C90.2848 419.905 90.0547 419.81 89.7458 419.81C89.45 419.81 89.2232 419.895 89.0654 420.066C88.9142 420.23 88.8387 420.447 88.8387 420.717V424H87.5569ZM94.5185 422.58C94.7288 422.856 95.0181 422.994 95.3862 422.994C95.7543 422.994 96.0435 422.856 96.2538 422.58C96.4642 422.298 96.5694 421.9 96.5694 421.387C96.5694 420.874 96.4609 420.48 96.244 420.204C96.0336 419.921 95.7477 419.78 95.3862 419.78C95.0246 419.78 94.7354 419.918 94.5185 420.194C94.3082 420.47 94.203 420.868 94.203 421.387C94.203 421.906 94.3082 422.304 94.5185 422.58ZM97.1412 423.418C96.6811 423.905 96.0961 424.148 95.3862 424.148C94.6763 424.148 94.0912 423.905 93.6311 423.418C93.171 422.932 92.9409 422.255 92.9409 421.387C92.9409 420.533 93.1776 419.859 93.6508 419.366C94.1241 418.873 94.7026 418.626 95.3862 418.626C96.0698 418.626 96.6482 418.873 97.1215 419.366C97.5948 419.859 97.8314 420.533 97.8314 421.387C97.8314 422.255 97.6014 422.932 97.1412 423.418ZM99.6299 424L98.4763 418.774H99.7285L100.419 422.265H100.448L101.612 418.774H102.775L103.85 422.255H103.87L104.659 418.774H105.891L104.639 424H103.377L102.184 420.243H102.164L100.872 424H99.6299ZM110.168 422.196L111.065 422.984C110.533 423.76 109.813 424.148 108.906 424.148C108.176 424.148 107.581 423.898 107.121 423.399C106.661 422.892 106.431 422.222 106.431 421.387C106.431 420.552 106.658 419.885 107.111 419.386C107.571 418.879 108.15 418.626 108.847 418.626C109.543 418.626 110.115 418.879 110.562 419.386C111.016 419.885 111.243 420.552 111.243 421.387V421.772H107.732C107.752 422.173 107.861 422.482 108.058 422.698C108.262 422.909 108.538 423.014 108.886 423.014C109.182 423.014 109.425 422.942 109.616 422.797C109.813 422.646 109.997 422.445 110.168 422.196ZM107.732 420.815H110C109.967 420.48 109.852 420.22 109.655 420.036C109.458 419.846 109.188 419.75 108.847 419.75C108.531 419.75 108.271 419.852 108.068 420.056C107.87 420.26 107.759 420.513 107.732 420.815ZM112.274 424V418.774H113.487V419.326H113.507C113.605 419.129 113.75 418.971 113.94 418.853C114.138 418.735 114.351 418.676 114.581 418.676C114.746 418.676 114.903 418.709 115.055 418.774L114.857 420.017C114.713 419.964 114.578 419.938 114.453 419.938C113.855 419.938 113.556 420.335 113.556 421.131V424H112.274ZM115.5 422.275L116.654 421.979C116.746 422.708 117.137 423.073 117.827 423.073C118.143 423.073 118.392 423.024 118.576 422.925C118.767 422.82 118.862 422.675 118.862 422.491C118.862 422.34 118.79 422.229 118.645 422.156C118.501 422.077 118.198 421.972 117.738 421.841C117.613 421.808 117.518 421.782 117.452 421.762C116.848 421.591 116.404 421.39 116.121 421.16C115.839 420.924 115.697 420.611 115.697 420.224C115.697 419.79 115.871 419.415 116.22 419.1C116.575 418.784 117.058 418.626 117.669 418.626C118.839 418.626 119.572 419.139 119.868 420.164L118.803 420.49C118.711 420.24 118.58 420.043 118.409 419.898C118.244 419.754 118.001 419.681 117.679 419.681C117.429 419.681 117.229 419.731 117.078 419.829C116.933 419.921 116.861 420.033 116.861 420.164C116.861 420.309 116.946 420.424 117.117 420.51C117.295 420.588 117.732 420.727 118.428 420.924C119.04 421.088 119.454 421.298 119.671 421.555C119.894 421.805 120.006 422.127 120.006 422.521C120.006 422.942 119.822 423.32 119.454 423.655C119.092 423.984 118.567 424.148 117.876 424.148C117.153 424.148 116.595 423.967 116.2 423.606C115.812 423.237 115.579 422.794 115.5 422.275ZM120.347 424.118L123.897 416.625L124.695 416.99L121.146 424.463L120.347 424.118ZM125.535 424V417.098H128.464C129.075 417.098 129.565 417.279 129.933 417.64C130.307 417.995 130.495 418.432 130.495 418.952C130.495 419.53 130.245 419.967 129.745 420.263V420.273C130.041 420.398 130.281 420.598 130.465 420.874C130.656 421.144 130.751 421.469 130.751 421.851C130.751 422.508 130.551 423.034 130.15 423.428C129.749 423.809 129.088 424 128.168 424H125.535ZM126.866 422.768H128.474C129.105 422.768 129.42 422.462 129.42 421.851C129.42 421.568 129.335 421.351 129.164 421.2C128.999 421.042 128.773 420.963 128.483 420.963H126.866V422.768ZM126.866 419.879H128.296C128.566 419.879 128.776 419.816 128.927 419.691C129.085 419.56 129.164 419.369 129.164 419.119C129.164 418.856 129.088 418.659 128.937 418.528C128.786 418.396 128.572 418.331 128.296 418.331H126.866V419.879ZM134.818 424V423.497H134.798C134.785 423.517 134.768 423.543 134.749 423.576C134.729 423.602 134.679 423.652 134.601 423.724C134.522 423.796 134.433 423.862 134.334 423.921C134.236 423.98 134.101 424.033 133.93 424.079C133.759 424.125 133.575 424.148 133.378 424.148C132.747 424.148 132.274 424 131.958 423.704C131.649 423.402 131.495 423.034 131.495 422.6C131.495 422.146 131.629 421.801 131.899 421.565C132.168 421.328 132.625 421.131 133.27 420.973C133.868 420.828 134.242 420.713 134.394 420.628C134.545 420.542 134.62 420.421 134.62 420.263C134.62 420.105 134.545 419.974 134.394 419.869C134.249 419.764 134.029 419.711 133.733 419.711C133.385 419.711 133.135 419.79 132.984 419.948C132.832 420.099 132.714 420.306 132.629 420.569L131.564 420.125C131.689 419.685 131.932 419.326 132.293 419.05C132.655 418.768 133.128 418.626 133.713 418.626C134.351 418.626 134.873 418.794 135.281 419.129C135.688 419.464 135.892 419.984 135.892 420.687V424H134.818ZM133.526 421.86C133.197 421.939 132.98 422.035 132.875 422.146C132.777 422.252 132.727 422.373 132.727 422.511C132.727 422.866 132.984 423.044 133.496 423.044C133.884 423.044 134.173 422.971 134.364 422.827C134.561 422.675 134.66 422.491 134.66 422.275V421.367H134.64C134.614 421.42 134.584 421.463 134.551 421.496C134.525 421.522 134.426 421.571 134.256 421.643C134.085 421.709 133.841 421.782 133.526 421.86ZM137.44 422.136V419.859H136.632V418.774H137.47V417.492H138.683V418.774H140.004V419.859H138.702V422.018C138.702 422.294 138.749 422.488 138.841 422.6C138.933 422.712 139.12 422.768 139.403 422.768H139.827V424H139.284C138.581 424 138.098 423.852 137.835 423.556C137.572 423.261 137.44 422.787 137.44 422.136ZM140.987 424V416.802H142.269V419.277H142.289C142.394 419.106 142.568 418.955 142.811 418.824C143.055 418.692 143.304 418.626 143.561 418.626C144.119 418.626 144.563 418.797 144.892 419.139C145.22 419.481 145.385 419.941 145.385 420.519V424H144.103V420.805C144.103 420.516 144.024 420.28 143.866 420.095C143.715 419.905 143.485 419.81 143.176 419.81C142.88 419.81 142.654 419.895 142.496 420.066C142.345 420.23 142.269 420.447 142.269 420.717V424H140.987Z" fill="#7986A3"/>
<path d="M126.124 268.808V261.906H127.455V267.576H130.305V268.808H126.124ZM132.371 267.388C132.581 267.664 132.871 267.803 133.239 267.803C133.607 267.803 133.896 267.664 134.106 267.388C134.317 267.106 134.422 266.708 134.422 266.195C134.422 265.683 134.313 265.288 134.096 265.012C133.886 264.73 133.6 264.588 133.239 264.588C132.877 264.588 132.588 264.726 132.371 265.002C132.161 265.278 132.055 265.676 132.055 266.195C132.055 266.715 132.161 267.112 132.371 267.388ZM134.994 268.226C134.534 268.713 133.949 268.956 133.239 268.956C132.529 268.956 131.944 268.713 131.484 268.226C131.023 267.74 130.793 267.063 130.793 266.195C130.793 265.341 131.03 264.667 131.503 264.174C131.977 263.681 132.555 263.435 133.239 263.435C133.922 263.435 134.501 263.681 134.974 264.174C135.447 264.667 135.684 265.341 135.684 266.195C135.684 267.063 135.454 267.74 134.994 268.226ZM138.005 265.712V266.669C138.005 266.984 138.104 267.254 138.301 267.477C138.505 267.694 138.781 267.803 139.129 267.803C139.504 267.803 139.793 267.668 139.997 267.398C140.207 267.122 140.312 266.721 140.312 266.195C140.312 265.663 140.207 265.262 139.997 264.992C139.793 264.723 139.504 264.588 139.129 264.588C138.781 264.588 138.505 264.697 138.301 264.914C138.104 265.13 138.005 265.397 138.005 265.712ZM136.723 268.808V261.61H138.005V264.085H138.025C138.038 264.066 138.054 264.043 138.074 264.016C138.094 263.983 138.143 263.931 138.222 263.859C138.307 263.786 138.396 263.721 138.488 263.661C138.587 263.602 138.712 263.55 138.863 263.504C139.021 263.458 139.185 263.435 139.356 263.435C140 263.435 140.532 263.691 140.953 264.204C141.38 264.71 141.594 265.374 141.594 266.195C141.594 267.037 141.387 267.707 140.973 268.207C140.565 268.706 140.016 268.956 139.326 268.956C139.044 268.956 138.787 268.904 138.557 268.798C138.327 268.687 138.169 268.578 138.084 268.473L137.946 268.305H137.926V268.808H136.723ZM143.907 265.712V266.669C143.907 266.984 144.006 267.254 144.203 267.477C144.407 267.694 144.683 267.803 145.031 267.803C145.406 267.803 145.695 267.668 145.899 267.398C146.109 267.122 146.215 266.721 146.215 266.195C146.215 265.663 146.109 265.262 145.899 264.992C145.695 264.723 145.406 264.588 145.031 264.588C144.683 264.588 144.407 264.697 144.203 264.914C144.006 265.13 143.907 265.397 143.907 265.712ZM142.626 268.808V261.61H143.907V264.085H143.927C143.94 264.066 143.957 264.043 143.976 264.016C143.996 263.983 144.045 263.931 144.124 263.859C144.21 263.786 144.299 263.721 144.391 263.661C144.489 263.602 144.614 263.55 144.765 263.504C144.923 263.458 145.087 263.435 145.258 263.435C145.902 263.435 146.435 263.691 146.856 264.204C147.283 264.71 147.496 265.374 147.496 266.195C147.496 267.037 147.289 267.707 146.875 268.207C146.468 268.706 145.919 268.956 145.229 268.956C144.946 268.956 144.69 268.904 144.46 268.798C144.23 268.687 144.072 268.578 143.986 268.473L143.848 268.305H143.829V268.808H142.626ZM148.74 271.027L149.785 268.552L147.695 263.582H148.996L150.347 267.122H150.367L151.718 263.582H153.019L150.012 271.027H148.74Z" fill="#7986A3"/>
<path d="M301.369 172.863L302.75 173.168C302.638 173.97 302.345 174.601 301.872 175.061C301.399 175.521 300.781 175.752 300.018 175.752C299.131 175.752 298.408 175.446 297.849 174.835C297.297 174.217 297.021 173.287 297.021 172.044C297.021 170.953 297.314 170.099 297.899 169.481C298.49 168.863 299.194 168.554 300.009 168.554C300.719 168.554 301.32 168.777 301.813 169.224C302.313 169.665 302.602 170.26 302.681 171.009L301.359 171.216C301.3 170.795 301.162 170.453 300.945 170.191C300.728 169.921 300.419 169.786 300.018 169.786C299.565 169.786 299.18 169.983 298.865 170.378C298.549 170.772 298.392 171.328 298.392 172.044C298.392 172.886 298.543 173.51 298.845 173.918C299.154 174.319 299.545 174.519 300.018 174.519C300.794 174.519 301.244 173.967 301.369 172.863ZM306.765 175.604V175.101H306.745C306.732 175.121 306.716 175.147 306.696 175.18C306.676 175.206 306.627 175.255 306.548 175.328C306.469 175.4 306.381 175.466 306.282 175.525C306.183 175.584 306.049 175.637 305.878 175.683C305.707 175.729 305.523 175.752 305.326 175.752C304.695 175.752 304.221 175.604 303.906 175.308C303.597 175.005 303.442 174.637 303.442 174.204C303.442 173.75 303.577 173.405 303.847 173.168C304.116 172.932 304.573 172.734 305.217 172.577C305.815 172.432 306.19 172.317 306.341 172.232C306.492 172.146 306.568 172.024 306.568 171.867C306.568 171.709 306.492 171.578 306.341 171.472C306.197 171.367 305.976 171.315 305.681 171.315C305.332 171.315 305.082 171.393 304.931 171.551C304.78 171.702 304.662 171.909 304.576 172.172L303.511 171.729C303.636 171.288 303.879 170.93 304.241 170.654C304.603 170.371 305.076 170.23 305.661 170.23C306.298 170.23 306.821 170.398 307.229 170.733C307.636 171.068 307.84 171.587 307.84 172.291V175.604H306.765ZM305.473 173.464C305.145 173.543 304.928 173.638 304.823 173.75C304.724 173.855 304.675 173.977 304.675 174.115C304.675 174.47 304.931 174.647 305.444 174.647C305.832 174.647 306.121 174.575 306.312 174.43C306.509 174.279 306.607 174.095 306.607 173.878V172.971H306.588C306.561 173.024 306.532 173.066 306.499 173.099C306.473 173.126 306.374 173.175 306.203 173.247C306.032 173.313 305.789 173.385 305.473 173.464ZM310.322 175.604L308.232 170.378H309.563L310.864 173.74H310.884L312.186 170.378H313.497L311.407 175.604H310.322ZM317.482 173.799L318.379 174.588C317.847 175.364 317.127 175.752 316.22 175.752C315.49 175.752 314.895 175.502 314.435 175.002C313.975 174.496 313.745 173.826 313.745 172.991C313.745 172.156 313.972 171.489 314.426 170.989C314.886 170.483 315.464 170.23 316.161 170.23C316.858 170.23 317.429 170.483 317.876 170.989C318.33 171.489 318.557 172.156 318.557 172.991V173.375H315.047C315.066 173.776 315.175 174.085 315.372 174.302C315.576 174.512 315.852 174.618 316.2 174.618C316.496 174.618 316.739 174.545 316.93 174.401C317.127 174.25 317.311 174.049 317.482 173.799ZM315.047 172.419H317.314C317.282 172.084 317.167 171.824 316.969 171.64C316.772 171.449 316.503 171.354 316.161 171.354C315.845 171.354 315.586 171.456 315.382 171.66C315.185 171.863 315.073 172.117 315.047 172.419Z" fill="#7986A3"/>
<path d="M285.975 343.097L285.581 341.963H282.948L282.554 343.097H281.233L283.727 336.195H284.861L287.346 343.097H285.975ZM284.26 338.167L283.323 340.859H285.206L284.279 338.167H284.26ZM290.204 340.79L291.604 340.484C291.689 341.023 291.827 341.415 292.018 341.658C292.215 341.894 292.534 342.013 292.975 342.013C293.349 342.013 293.648 341.947 293.872 341.816C294.095 341.677 294.207 341.477 294.207 341.214C294.207 340.938 294.099 340.728 293.882 340.583C293.671 340.432 293.185 340.238 292.422 340.001C291.706 339.778 291.196 339.508 290.894 339.193C290.598 338.871 290.45 338.476 290.45 338.01C290.45 337.471 290.657 337.01 291.072 336.629C291.492 336.241 292.061 336.047 292.777 336.047C293.428 336.047 293.987 336.205 294.454 336.521C294.927 336.836 295.223 337.306 295.341 337.931L294.049 338.256C293.845 337.605 293.422 337.28 292.777 337.28C292.436 337.28 292.179 337.346 292.008 337.477C291.844 337.609 291.762 337.783 291.762 338C291.762 338.203 291.857 338.361 292.048 338.473C292.238 338.578 292.728 338.765 293.517 339.035C294.279 339.298 294.802 339.584 295.085 339.893C295.367 340.195 295.509 340.606 295.509 341.125C295.509 341.737 295.278 342.243 294.818 342.644C294.358 343.045 293.744 343.245 292.975 343.245C292.192 343.245 291.558 343.041 291.072 342.634C290.592 342.22 290.302 341.605 290.204 340.79ZM296.442 343.097V335.9H297.724V338.374H297.743C297.849 338.203 298.023 338.052 298.266 337.921C298.509 337.789 298.759 337.724 299.015 337.724C299.574 337.724 300.018 337.895 300.346 338.236C300.675 338.578 300.839 339.038 300.839 339.617V343.097H299.558V339.903C299.558 339.613 299.479 339.377 299.321 339.193C299.17 339.002 298.94 338.907 298.631 338.907C298.335 338.907 298.108 338.992 297.95 339.163C297.799 339.328 297.724 339.544 297.724 339.814V343.097H296.442ZM303.403 341.677C303.614 341.954 303.903 342.092 304.271 342.092C304.639 342.092 304.928 341.954 305.139 341.677C305.349 341.395 305.454 340.997 305.454 340.484C305.454 339.972 305.346 339.577 305.129 339.301C304.919 339.019 304.633 338.877 304.271 338.877C303.91 338.877 303.62 339.015 303.403 339.291C303.193 339.567 303.088 339.965 303.088 340.484C303.088 341.004 303.193 341.401 303.403 341.677ZM306.026 342.516C305.566 343.002 304.981 343.245 304.271 343.245C303.561 343.245 302.976 343.002 302.516 342.516C302.056 342.029 301.826 341.352 301.826 340.484C301.826 339.63 302.063 338.956 302.536 338.463C303.009 337.97 303.588 337.724 304.271 337.724C304.955 337.724 305.533 337.97 306.006 338.463C306.48 338.956 306.716 339.63 306.716 340.484C306.716 341.352 306.486 342.029 306.026 342.516ZM307.756 343.097V337.872H308.968V338.424H308.988C309.087 338.226 309.231 338.069 309.422 337.95C309.619 337.832 309.833 337.773 310.063 337.773C310.227 337.773 310.385 337.806 310.536 337.872L310.339 339.114C310.194 339.061 310.06 339.035 309.935 339.035C309.337 339.035 309.037 339.433 309.037 340.228V343.097H307.756ZM311.739 341.234V338.956H310.93V337.872H311.768V336.59H312.981V337.872H314.302V338.956H313.001V341.115C313.001 341.392 313.047 341.585 313.139 341.697C313.231 341.809 313.418 341.865 313.701 341.865H314.125V343.097H313.582C312.879 343.097 312.396 342.949 312.133 342.654C311.87 342.358 311.739 341.885 311.739 341.234Z" fill="#7986A3"/>
<path d="M302.851 391.992L304.231 392.298C304.12 393.1 303.827 393.731 303.354 394.191C302.88 394.651 302.263 394.881 301.5 394.881C300.613 394.881 299.89 394.576 299.331 393.964C298.779 393.346 298.503 392.416 298.503 391.174C298.503 390.083 298.795 389.228 299.38 388.61C299.972 387.993 300.675 387.684 301.49 387.684C302.2 387.684 302.802 387.907 303.295 388.354C303.794 388.794 304.083 389.389 304.162 390.139L302.841 390.346C302.782 389.925 302.644 389.583 302.427 389.32C302.21 389.051 301.901 388.916 301.5 388.916C301.047 388.916 300.662 389.113 300.346 389.508C300.031 389.902 299.873 390.457 299.873 391.174C299.873 392.015 300.024 392.64 300.327 393.047C300.636 393.448 301.027 393.649 301.5 393.649C302.276 393.649 302.726 393.097 302.851 391.992ZM305.22 392.88V389.508H306.502V392.742C306.502 393.07 306.564 393.304 306.689 393.442C306.814 393.58 307.014 393.649 307.29 393.649C307.599 393.649 307.849 393.57 308.04 393.412C308.23 393.248 308.326 392.991 308.326 392.643V389.508H309.607V394.733H308.385V394.231H308.365C308.043 394.664 307.589 394.881 307.004 394.881C306.4 394.881 305.949 394.701 305.654 394.339C305.364 393.977 305.22 393.491 305.22 392.88ZM312.27 391.637V392.594C312.27 392.909 312.369 393.179 312.566 393.402C312.77 393.619 313.046 393.728 313.394 393.728C313.769 393.728 314.058 393.593 314.262 393.323C314.472 393.047 314.578 392.646 314.578 392.121C314.578 391.588 314.472 391.187 314.262 390.918C314.058 390.648 313.769 390.513 313.394 390.513C313.046 390.513 312.77 390.622 312.566 390.839C312.369 391.056 312.27 391.322 312.27 391.637ZM310.989 394.733V387.536H312.27V390.01H312.29C312.303 389.991 312.32 389.968 312.339 389.941C312.359 389.909 312.408 389.856 312.487 389.784C312.573 389.711 312.661 389.646 312.754 389.587C312.852 389.527 312.977 389.475 313.128 389.429C313.286 389.383 313.45 389.36 313.621 389.36C314.265 389.36 314.798 389.616 315.218 390.129C315.646 390.635 315.859 391.299 315.859 392.121C315.859 392.962 315.652 393.632 315.238 394.132C314.831 394.632 314.282 394.881 313.592 394.881C313.309 394.881 313.053 394.829 312.823 394.724C312.592 394.612 312.435 394.503 312.349 394.398L312.211 394.231H312.191V394.733H310.989ZM318.173 391.637V392.594C318.173 392.909 318.271 393.179 318.469 393.402C318.672 393.619 318.948 393.728 319.297 393.728C319.672 393.728 319.961 393.593 320.165 393.323C320.375 393.047 320.48 392.646 320.48 392.121C320.48 391.588 320.375 391.187 320.165 390.918C319.961 390.648 319.672 390.513 319.297 390.513C318.948 390.513 318.672 390.622 318.469 390.839C318.271 391.056 318.173 391.322 318.173 391.637ZM316.891 394.733V387.536H318.173V390.01H318.193C318.206 389.991 318.222 389.968 318.242 389.941C318.262 389.909 318.311 389.856 318.39 389.784C318.475 389.711 318.564 389.646 318.656 389.587C318.755 389.527 318.879 389.475 319.031 389.429C319.188 389.383 319.353 389.36 319.524 389.36C320.168 389.36 320.7 389.616 321.121 390.129C321.548 390.635 321.762 391.299 321.762 392.121C321.762 392.962 321.555 393.632 321.141 394.132C320.733 394.632 320.184 394.881 319.494 394.881C319.211 394.881 318.955 394.829 318.725 394.724C318.495 394.612 318.337 394.503 318.252 394.398L318.114 394.231H318.094V394.733H316.891ZM323.005 396.952L324.05 394.477L321.96 389.508H323.262L324.612 393.047H324.632L325.983 389.508H327.284L324.277 396.952H323.005Z" fill="#7986A3"/>
<path d="M415.924 285.664V278.762H417.255V284.432H420.104V285.664H415.924ZM420.938 285.664V280.439H422.22V285.664H420.938ZM420.938 279.679V278.467H422.22V279.679H420.938ZM423.596 285.664V280.439H424.828V280.941H424.848C424.992 280.757 425.19 280.603 425.439 280.478C425.689 280.353 425.952 280.291 426.228 280.291C426.807 280.291 427.26 280.465 427.589 280.813C427.917 281.155 428.082 281.632 428.082 282.243V285.664H426.8V282.558C426.8 282.197 426.731 281.927 426.593 281.75C426.455 281.566 426.218 281.474 425.883 281.474C425.568 281.474 425.321 281.566 425.144 281.75C424.966 281.927 424.877 282.167 424.877 282.47V285.664H423.596ZM429.411 285.664V278.467H430.693V282.598H430.713L432.616 280.439H434.223L432.34 282.558L434.391 285.664H432.971L431.374 283.278H431.354L430.693 284.028V285.664H429.411Z" fill="#7986A3"/>
<path d="M579.419 423.636C578.532 423.636 577.809 423.33 577.25 422.719C576.698 422.101 576.422 421.171 576.422 419.929C576.422 418.837 576.714 417.983 577.299 417.365C577.891 416.747 578.594 416.438 579.409 416.438C580.106 416.438 580.697 416.649 581.184 417.069C581.677 417.49 581.973 418.062 582.071 418.785L580.74 419.002C580.576 418.114 580.135 417.671 579.419 417.671C578.965 417.671 578.581 417.868 578.265 418.262C577.95 418.657 577.792 419.212 577.792 419.929C577.792 420.77 577.943 421.394 578.246 421.802C578.555 422.203 578.946 422.403 579.419 422.403C579.846 422.403 580.181 422.282 580.425 422.039C580.674 421.795 580.799 421.454 580.799 421.013H579.518V419.879H582.071V420.796C582.071 421.671 581.825 422.364 581.332 422.877C580.839 423.383 580.201 423.636 579.419 423.636ZM586.137 423.488V422.985H586.117C586.104 423.005 586.087 423.031 586.068 423.064C586.048 423.09 585.999 423.14 585.92 423.212C585.841 423.284 585.752 423.35 585.654 423.409C585.555 423.468 585.42 423.521 585.249 423.567C585.078 423.613 584.894 423.636 584.697 423.636C584.066 423.636 583.593 423.488 583.277 423.192C582.968 422.89 582.814 422.522 582.814 422.088C582.814 421.634 582.949 421.289 583.218 421.053C583.488 420.816 583.945 420.619 584.589 420.461C585.187 420.316 585.562 420.201 585.713 420.116C585.864 420.03 585.94 419.909 585.94 419.751C585.94 419.593 585.864 419.462 585.713 419.357C585.568 419.252 585.348 419.199 585.052 419.199C584.704 419.199 584.454 419.278 584.303 419.436C584.152 419.587 584.033 419.794 583.948 420.057L582.883 419.613C583.008 419.173 583.251 418.814 583.613 418.538C583.974 418.256 584.447 418.114 585.032 418.114C585.67 418.114 586.193 418.282 586.6 418.617C587.008 418.952 587.211 419.472 587.211 420.175V423.488H586.137ZM584.845 421.348C584.516 421.427 584.299 421.523 584.194 421.634C584.096 421.74 584.046 421.861 584.046 421.999C584.046 422.354 584.303 422.532 584.815 422.532C585.203 422.532 585.493 422.459 585.683 422.315C585.88 422.164 585.979 421.979 585.979 421.763V420.855H585.959C585.933 420.908 585.903 420.951 585.871 420.984C585.844 421.01 585.746 421.059 585.575 421.132C585.404 421.197 585.161 421.27 584.845 421.348ZM588.493 423.488V418.262H589.706V418.814H589.726C589.824 418.617 589.969 418.459 590.16 418.341C590.357 418.223 590.571 418.164 590.801 418.164C590.965 418.164 591.123 418.197 591.274 418.262L591.077 419.505C590.932 419.452 590.797 419.426 590.672 419.426C590.074 419.426 589.775 419.823 589.775 420.619V423.488H588.493ZM595.358 421.348V420.392C595.358 420.077 595.256 419.81 595.052 419.593C594.855 419.376 594.582 419.268 594.234 419.268C593.859 419.268 593.567 419.403 593.356 419.672C593.152 419.942 593.051 420.343 593.051 420.875C593.051 421.401 593.152 421.802 593.356 422.078C593.567 422.348 593.859 422.482 594.234 422.482C594.582 422.482 594.855 422.374 595.052 422.157C595.256 421.933 595.358 421.664 595.358 421.348ZM595.437 423.488V422.985H595.417C595.384 423.031 595.335 423.09 595.269 423.163C595.21 423.235 595.059 423.334 594.815 423.458C594.579 423.577 594.319 423.636 594.037 423.636C593.346 423.636 592.794 423.386 592.38 422.887C591.973 422.387 591.769 421.717 591.769 420.875C591.769 420.027 591.992 419.357 592.439 418.864C592.886 418.364 593.412 418.114 594.017 418.114C594.293 418.114 594.539 418.17 594.756 418.282C594.98 418.387 595.131 418.492 595.21 418.598L595.338 418.765H595.358V416.29H596.64V423.488H595.437ZM601.408 421.684L602.305 422.472C601.773 423.248 601.053 423.636 600.146 423.636C599.416 423.636 598.822 423.386 598.361 422.887C597.901 422.38 597.671 421.71 597.671 420.875C597.671 420.04 597.898 419.373 598.352 418.874C598.812 418.367 599.39 418.114 600.087 418.114C600.784 418.114 601.356 418.367 601.803 418.874C602.256 419.373 602.483 420.04 602.483 420.875V421.26H598.973C598.992 421.661 599.101 421.97 599.298 422.187C599.502 422.397 599.778 422.502 600.126 422.502C600.422 422.502 600.665 422.43 600.856 422.285C601.053 422.134 601.237 421.933 601.408 421.684ZM598.973 420.303H601.24C601.208 419.968 601.093 419.708 600.895 419.524C600.698 419.334 600.429 419.238 600.087 419.238C599.771 419.238 599.512 419.34 599.308 419.544C599.111 419.748 598.999 420.001 598.973 420.303ZM603.514 423.488V418.262H604.747V418.765H604.767C604.911 418.581 605.108 418.427 605.358 418.302C605.608 418.177 605.871 418.114 606.147 418.114C606.725 418.114 607.179 418.289 607.508 418.637C607.836 418.979 608.001 419.455 608.001 420.067V423.488H606.719V420.382C606.719 420.021 606.65 419.751 606.512 419.574C606.374 419.39 606.137 419.298 605.802 419.298C605.486 419.298 605.24 419.39 605.062 419.574C604.885 419.751 604.796 419.991 604.796 420.293V423.488H603.514Z" fill="#7986A3"/>
<path d="M458.092 364.987V358.085H460.892C461.602 358.085 462.174 358.286 462.608 358.687C463.048 359.081 463.269 359.614 463.269 360.284C463.269 360.784 463.137 361.208 462.874 361.556C462.618 361.904 462.263 362.151 461.809 362.296L463.278 364.987H461.839L460.449 362.424H459.423V364.987H458.092ZM459.423 361.27H460.784C461.54 361.27 461.918 360.941 461.918 360.284C461.918 359.62 461.54 359.288 460.784 359.288H459.423V361.27ZM467.24 364.987V364.484H467.22C467.207 364.504 467.19 364.53 467.171 364.563C467.151 364.59 467.102 364.639 467.023 364.711C466.944 364.784 466.855 364.849 466.756 364.908C466.658 364.968 466.523 365.02 466.352 365.066C466.181 365.112 465.997 365.135 465.8 365.135C465.169 365.135 464.696 364.987 464.38 364.692C464.071 364.389 463.917 364.021 463.917 363.587C463.917 363.134 464.052 362.789 464.321 362.552C464.591 362.315 465.047 362.118 465.692 361.96C466.29 361.816 466.664 361.701 466.816 361.615C466.967 361.53 467.042 361.408 467.042 361.25C467.042 361.093 466.967 360.961 466.816 360.856C466.671 360.751 466.451 360.698 466.155 360.698C465.807 360.698 465.557 360.777 465.406 360.935C465.254 361.086 465.136 361.293 465.051 361.556L463.986 361.112C464.111 360.672 464.354 360.314 464.715 360.038C465.077 359.755 465.55 359.614 466.135 359.614C466.773 359.614 467.295 359.781 467.703 360.117C468.111 360.452 468.314 360.971 468.314 361.674V364.987H467.24ZM465.948 362.848C465.619 362.927 465.402 363.022 465.297 363.134C465.199 363.239 465.149 363.36 465.149 363.498C465.149 363.853 465.406 364.031 465.918 364.031C466.306 364.031 466.595 363.959 466.786 363.814C466.983 363.663 467.082 363.479 467.082 363.262V362.355H467.062C467.036 362.407 467.006 362.45 466.973 362.483C466.947 362.509 466.848 362.558 466.678 362.631C466.507 362.697 466.263 362.769 465.948 362.848ZM469.596 364.987V359.762H470.77V360.264H470.789C470.908 360.08 471.079 359.926 471.302 359.801C471.532 359.676 471.782 359.614 472.051 359.614C472.327 359.614 472.587 359.679 472.83 359.811C473.074 359.936 473.258 360.1 473.382 360.304H473.402C473.534 360.1 473.721 359.936 473.964 359.811C474.207 359.679 474.474 359.614 474.763 359.614C475.387 359.614 475.88 359.778 476.242 360.107C476.61 360.435 476.794 360.869 476.794 361.408V364.987H475.621V361.674C475.621 361.418 475.545 361.208 475.394 361.043C475.249 360.879 475.022 360.797 474.714 360.797C474.424 360.797 474.201 360.872 474.043 361.024C473.892 361.175 473.816 361.369 473.816 361.605V364.987H472.643V361.674C472.643 361.425 472.564 361.218 472.406 361.053C472.249 360.882 472.025 360.797 471.736 360.797C471.44 360.797 471.217 360.872 471.065 361.024C470.914 361.175 470.839 361.369 470.839 361.605V364.987H469.596ZM479.409 361.832V362.907C479.409 363.209 479.511 363.466 479.715 363.676C479.919 363.88 480.191 363.982 480.533 363.982C480.908 363.982 481.214 363.844 481.45 363.567C481.693 363.291 481.815 362.894 481.815 362.374C481.815 361.855 481.697 361.457 481.46 361.181C481.223 360.905 480.914 360.767 480.533 360.767C480.191 360.767 479.919 360.872 479.715 361.083C479.511 361.287 479.409 361.536 479.409 361.832ZM478.127 367.206V359.762H479.35V360.264H479.37C479.383 360.245 479.399 360.222 479.419 360.195C479.439 360.163 479.488 360.11 479.567 360.038C479.652 359.965 479.744 359.9 479.843 359.84C479.942 359.781 480.073 359.729 480.237 359.683C480.408 359.637 480.589 359.614 480.78 359.614C481.398 359.614 481.937 359.863 482.397 360.363C482.863 360.856 483.097 361.526 483.097 362.374C483.097 363.229 482.873 363.903 482.426 364.396C481.979 364.889 481.437 365.135 480.799 365.135C480.609 365.135 480.431 365.112 480.267 365.066C480.109 365.02 479.981 364.968 479.882 364.908C479.784 364.843 479.698 364.78 479.626 364.721C479.554 364.655 479.501 364.599 479.468 364.553L479.429 364.484H479.409V367.206H478.127Z" fill="#7986A3"/>
<path d="M156.374 602V596.331H154.352V595.098H159.726V596.331H157.705V602H156.374ZM160.962 600.58C161.172 600.856 161.461 600.994 161.83 600.994C162.198 600.994 162.487 600.856 162.697 600.58C162.908 600.298 163.013 599.9 163.013 599.387C163.013 598.874 162.904 598.48 162.687 598.204C162.477 597.921 162.191 597.78 161.83 597.78C161.468 597.78 161.179 597.918 160.962 598.194C160.752 598.47 160.646 598.868 160.646 599.387C160.646 599.906 160.752 600.304 160.962 600.58ZM163.585 601.418C163.125 601.905 162.539 602.148 161.83 602.148C161.12 602.148 160.535 601.905 160.075 601.418C159.614 600.932 159.384 600.255 159.384 599.387C159.384 598.533 159.621 597.859 160.094 597.366C160.567 596.873 161.146 596.626 161.83 596.626C162.513 596.626 163.092 596.873 163.565 597.366C164.038 597.859 164.275 598.533 164.275 599.387C164.275 600.255 164.045 600.932 163.585 601.418ZM166.073 602L164.92 596.774H166.172L166.862 600.265H166.892L168.055 596.774H169.219L170.293 600.255H170.313L171.102 596.774H172.334L171.082 602H169.82L168.627 598.243H168.607L167.316 602H166.073ZM176.611 600.196L177.508 600.984C176.976 601.76 176.256 602.148 175.349 602.148C174.619 602.148 174.025 601.898 173.564 601.399C173.104 600.892 172.874 600.222 172.874 599.387C172.874 598.552 173.101 597.885 173.555 597.386C174.015 596.879 174.593 596.626 175.29 596.626C175.987 596.626 176.559 596.879 177.006 597.386C177.459 597.885 177.686 598.552 177.686 599.387V599.772H174.176C174.196 600.173 174.304 600.482 174.501 600.698C174.705 600.909 174.981 601.014 175.329 601.014C175.625 601.014 175.868 600.942 176.059 600.797C176.256 600.646 176.44 600.445 176.611 600.196ZM174.176 598.815H176.444C176.411 598.48 176.296 598.22 176.098 598.036C175.901 597.846 175.632 597.75 175.29 597.75C174.974 597.75 174.715 597.852 174.511 598.056C174.314 598.26 174.202 598.513 174.176 598.815ZM178.717 602V596.774H179.93V597.326H179.95C180.049 597.129 180.193 596.971 180.384 596.853C180.581 596.735 180.795 596.676 181.025 596.676C181.189 596.676 181.347 596.709 181.498 596.774L181.301 598.017C181.156 597.964 181.021 597.938 180.896 597.938C180.298 597.938 179.999 598.335 179.999 599.131V602H178.717ZM184.162 602.118L187.712 594.625L188.51 594.99L184.961 602.463L184.162 602.118ZM191.815 602V595.098H193.146V597.879H195.512V595.098H196.844V602H195.512V599.012H193.146V602H191.815ZM201.714 600.196L202.611 600.984C202.078 601.76 201.359 602.148 200.451 602.148C199.722 602.148 199.127 601.898 198.667 601.399C198.207 600.892 197.977 600.222 197.977 599.387C197.977 598.552 198.203 597.885 198.657 597.386C199.117 596.879 199.696 596.626 200.392 596.626C201.089 596.626 201.661 596.879 202.108 597.386C202.562 597.885 202.788 598.552 202.788 599.387V599.772H199.278C199.298 600.173 199.406 600.482 199.604 600.698C199.807 600.909 200.083 601.014 200.432 601.014C200.728 601.014 200.971 600.942 201.161 600.797C201.359 600.646 201.543 600.445 201.714 600.196ZM199.278 598.815H201.546C201.513 598.48 201.398 598.22 201.201 598.036C201.004 597.846 200.734 597.75 200.392 597.75C200.077 597.75 199.817 597.852 199.613 598.056C199.416 598.26 199.304 598.513 199.278 598.815ZM206.797 602V601.497H206.778C206.765 601.517 206.748 601.543 206.728 601.576C206.709 601.602 206.659 601.652 206.581 601.724C206.502 601.796 206.413 601.862 206.314 601.921C206.216 601.98 206.081 602.033 205.91 602.079C205.739 602.125 205.555 602.148 205.358 602.148C204.727 602.148 204.254 602 203.938 601.704C203.629 601.402 203.475 601.034 203.475 600.6C203.475 600.146 203.609 599.801 203.879 599.565C204.148 599.328 204.605 599.131 205.249 598.973C205.848 598.828 206.222 598.713 206.374 598.628C206.525 598.542 206.6 598.421 206.6 598.263C206.6 598.105 206.525 597.974 206.374 597.869C206.229 597.764 206.009 597.711 205.713 597.711C205.365 597.711 205.115 597.79 204.964 597.948C204.812 598.099 204.694 598.306 204.609 598.569L203.544 598.125C203.669 597.685 203.912 597.326 204.273 597.05C204.635 596.768 205.108 596.626 205.693 596.626C206.331 596.626 206.853 596.794 207.261 597.129C207.668 597.464 207.872 597.984 207.872 598.687V602H206.797ZM205.506 599.86C205.177 599.939 204.96 600.035 204.855 600.146C204.756 600.252 204.707 600.373 204.707 600.511C204.707 600.866 204.964 601.044 205.476 601.044C205.864 601.044 206.153 600.971 206.344 600.827C206.541 600.675 206.64 600.491 206.64 600.275V599.367H206.62C206.594 599.42 206.564 599.463 206.531 599.496C206.505 599.522 206.406 599.571 206.235 599.643C206.065 599.709 205.821 599.782 205.506 599.86ZM210.354 602L208.264 596.774H209.595L210.897 600.136H210.916L212.218 596.774H213.529L211.439 602H210.354ZM217.514 600.196L218.412 600.984C217.879 601.76 217.159 602.148 216.252 602.148C215.523 602.148 214.928 601.898 214.468 601.399C214.008 600.892 213.778 600.222 213.778 599.387C213.778 598.552 214.004 597.885 214.458 597.386C214.918 596.879 215.496 596.626 216.193 596.626C216.89 596.626 217.462 596.879 217.909 597.386C218.362 597.885 218.589 598.552 218.589 599.387V599.772H215.079C215.099 600.173 215.207 600.482 215.404 600.698C215.608 600.909 215.884 601.014 216.233 601.014C216.528 601.014 216.772 600.942 216.962 600.797C217.159 600.646 217.344 600.445 217.514 600.196ZM215.079 598.815H217.347C217.314 598.48 217.199 598.22 217.002 598.036C216.805 597.846 216.535 597.75 216.193 597.75C215.878 597.75 215.618 597.852 215.414 598.056C215.217 598.26 215.105 598.513 215.079 598.815ZM219.621 602V596.774H220.853V597.277H220.873C221.018 597.093 221.215 596.939 221.465 596.814C221.714 596.689 221.977 596.626 222.253 596.626C222.832 596.626 223.285 596.801 223.614 597.149C223.943 597.491 224.107 597.967 224.107 598.579V602H222.825V598.894C222.825 598.533 222.756 598.263 222.618 598.086C222.48 597.902 222.243 597.81 221.908 597.81C221.593 597.81 221.346 597.902 221.169 598.086C220.991 598.263 220.902 598.503 220.902 598.805V602H219.621Z" fill="#7986A3"/>
<path d="M648.034 417.539V410.637H650.962C651.574 410.637 652.063 410.818 652.431 411.179C652.806 411.534 652.993 411.971 652.993 412.491C652.993 413.069 652.744 413.506 652.244 413.802V413.812C652.54 413.937 652.78 414.137 652.964 414.413C653.154 414.683 653.25 415.008 653.25 415.389C653.25 416.047 653.049 416.573 652.648 416.967C652.247 417.348 651.587 417.539 650.666 417.539H648.034ZM649.365 416.306H650.972C651.603 416.306 651.919 416.001 651.919 415.389C651.919 415.107 651.833 414.89 651.662 414.739C651.498 414.581 651.271 414.502 650.982 414.502H649.365V416.306ZM649.365 413.417H650.795C651.064 413.417 651.274 413.355 651.426 413.23C651.583 413.099 651.662 412.908 651.662 412.658C651.662 412.395 651.587 412.198 651.435 412.067C651.284 411.935 651.071 411.869 650.795 411.869H649.365V413.417ZM656.902 417.539V410.637H659.702C660.406 410.637 660.977 410.837 661.418 411.238C661.858 411.633 662.078 412.165 662.078 412.836C662.078 413.506 661.865 414.039 661.438 414.433C661.017 414.827 660.438 415.025 659.702 415.025H658.233V417.539H656.902ZM658.233 413.792H659.682C659.978 413.792 660.221 413.707 660.412 413.536C660.603 413.358 660.698 413.125 660.698 412.836C660.698 412.5 660.599 412.257 660.402 412.106C660.212 411.948 659.972 411.869 659.682 411.869H658.233V413.792ZM664.054 416.119C664.264 416.395 664.553 416.533 664.922 416.533C665.29 416.533 665.579 416.395 665.789 416.119C666 415.836 666.105 415.439 666.105 414.926C666.105 414.413 665.996 414.019 665.779 413.743C665.569 413.46 665.283 413.319 664.922 413.319C664.56 413.319 664.271 413.457 664.054 413.733C663.844 414.009 663.738 414.407 663.738 414.926C663.738 415.445 663.844 415.843 664.054 416.119ZM666.677 416.957C666.216 417.444 665.631 417.687 664.922 417.687C664.212 417.687 663.627 417.444 663.166 416.957C662.706 416.471 662.476 415.794 662.476 414.926C662.476 414.071 662.713 413.398 663.186 412.905C663.659 412.412 664.238 412.165 664.922 412.165C665.605 412.165 666.184 412.412 666.657 412.905C667.13 413.398 667.367 414.071 667.367 414.926C667.367 415.794 667.137 416.471 666.677 416.957ZM668.406 417.539V412.313H669.619V412.865H669.639C669.737 412.668 669.882 412.51 670.072 412.392C670.27 412.274 670.483 412.214 670.713 412.214C670.878 412.214 671.035 412.247 671.187 412.313L670.989 413.555C670.845 413.503 670.71 413.477 670.585 413.477C669.987 413.477 669.688 413.874 669.688 414.67V417.539H668.406ZM672.389 415.675V413.398H671.581V412.313H672.419V411.031H673.631V412.313H674.953V413.398H673.651V415.557C673.651 415.833 673.697 416.027 673.789 416.139C673.881 416.25 674.069 416.306 674.351 416.306H674.775V417.539H674.233C673.53 417.539 673.046 417.391 672.783 417.095C672.521 416.799 672.389 416.326 672.389 415.675Z" fill="#7986A3"/>
<path d="M23.6277 294V287.098H26.5561C27.1674 287.098 27.6571 287.279 28.0252 287.64C28.3999 287.995 28.5872 288.432 28.5872 288.952C28.5872 289.53 28.3374 289.967 27.8379 290.263V290.273C28.1337 290.398 28.3736 290.598 28.5576 290.874C28.7483 291.144 28.8436 291.469 28.8436 291.851C28.8436 292.508 28.6431 293.034 28.2421 293.428C27.8412 293.809 27.1805 294 26.2603 294H23.6277ZM24.9588 292.768H26.5659C27.197 292.768 27.5125 292.462 27.5125 291.851C27.5125 291.568 27.427 291.351 27.2561 291.2C27.0918 291.042 26.865 290.963 26.5758 290.963H24.9588V292.768ZM24.9588 289.879H26.3885C26.658 289.879 26.8683 289.816 27.0195 289.691C27.1773 289.56 27.2561 289.369 27.2561 289.119C27.2561 288.856 27.1805 288.659 27.0294 288.528C26.8782 288.396 26.6645 288.331 26.3885 288.331H24.9588V289.879ZM32.4958 294V287.098H35.2961C35.9994 287.098 36.5713 287.299 37.0117 287.7C37.4521 288.094 37.6723 288.626 37.6723 289.297C37.6723 289.967 37.4587 290.5 37.0314 290.894C36.6107 291.289 36.0323 291.486 35.2961 291.486H33.8269V294H32.4958ZM33.8269 290.253H35.2763C35.5721 290.253 35.8153 290.168 36.006 289.997C36.1966 289.819 36.2919 289.586 36.2919 289.297C36.2919 288.962 36.1933 288.718 35.9961 288.567C35.8055 288.409 35.5656 288.331 35.2763 288.331H33.8269V290.253ZM39.6477 292.58C39.8581 292.856 40.1473 292.994 40.5154 292.994C40.8835 292.994 41.1727 292.856 41.3831 292.58C41.5934 292.298 41.6986 291.9 41.6986 291.387C41.6986 290.874 41.5901 290.48 41.3732 290.204C41.1629 289.921 40.8769 289.78 40.5154 289.78C40.1539 289.78 39.8647 289.918 39.6477 290.194C39.4374 290.47 39.3322 290.868 39.3322 291.387C39.3322 291.906 39.4374 292.304 39.6477 292.58ZM42.2705 293.418C41.8104 293.905 41.2253 294.148 40.5154 294.148C39.8055 294.148 39.2205 293.905 38.7604 293.418C38.3002 292.932 38.0702 292.255 38.0702 291.387C38.0702 290.533 38.3068 289.859 38.7801 289.366C39.2533 288.873 39.8318 288.626 40.5154 288.626C41.199 288.626 41.7775 288.873 42.2508 289.366C42.724 289.859 42.9607 290.533 42.9607 291.387C42.9607 292.255 42.7306 292.932 42.2705 293.418ZM44 294V288.774H45.2127V289.326H45.2325C45.3311 289.129 45.4757 288.971 45.6663 288.853C45.8635 288.735 46.0771 288.676 46.3072 288.676C46.4715 288.676 46.6293 288.709 46.7805 288.774L46.5833 290.017C46.4387 289.964 46.3039 289.938 46.179 289.938C45.5808 289.938 45.2818 290.335 45.2818 291.131V294H44ZM47.9829 292.136V289.859H47.1744V288.774H48.0125V287.492H49.2253V288.774H50.5465V289.859H49.245V292.018C49.245 292.294 49.291 292.488 49.383 292.6C49.4751 292.712 49.6624 292.768 49.945 292.768H50.369V294H49.8267C49.1234 294 48.6402 293.852 48.3773 293.556C48.1144 293.261 47.9829 292.787 47.9829 292.136ZM28.8224 309V302.098H33.1904V303.331H30.1535V304.879H32.9143V306.062H30.1535V307.768H33.1904V309H28.8224ZM33.8325 309L35.6467 306.298L33.941 303.774H35.2721L36.4454 305.529H36.4651L37.6384 303.774H38.9695L37.2638 306.298L39.078 309H37.7075L36.4651 307.127H36.4454L35.203 309H33.8325ZM39.8644 309V303.774H41.1462V309H39.8644ZM39.8644 303.015V301.802H41.1462V303.015H39.8644ZM42.7882 307.136V304.859H41.9797V303.774H42.8177V302.492H44.0305V303.774H45.3517V304.859H44.0502V307.018C44.0502 307.294 44.0962 307.488 44.1883 307.6C44.2803 307.712 44.4676 307.768 44.7503 307.768H45.1743V309H44.632C43.9286 309 43.4455 308.852 43.1826 308.556C42.9196 308.261 42.7882 307.787 42.7882 307.136Z" fill="#7986A3"/>
<path d="M562.428 240.054V233.152H565.357C565.968 233.152 566.458 233.332 566.826 233.694C567.201 234.049 567.388 234.486 567.388 235.005C567.388 235.584 567.138 236.021 566.639 236.317V236.327C566.934 236.451 567.174 236.652 567.358 236.928C567.549 237.197 567.644 237.523 567.644 237.904C567.644 238.561 567.444 239.087 567.043 239.482C566.642 239.863 565.981 240.054 565.061 240.054H562.428ZM563.76 238.821H565.367C565.998 238.821 566.313 238.515 566.313 237.904C566.313 237.621 566.228 237.405 566.057 237.253C565.893 237.096 565.666 237.017 565.377 237.017H563.76V238.821ZM563.76 235.932H565.189C565.459 235.932 565.669 235.87 565.82 235.745C565.978 235.613 566.057 235.423 566.057 235.173C566.057 234.91 565.981 234.713 565.83 234.581C565.679 234.45 565.465 234.384 565.189 234.384H563.76V235.932ZM571.297 240.054V233.152H572.628V238.821H575.477V240.054H571.297ZM577.543 238.634C577.754 238.91 578.043 239.048 578.411 239.048C578.779 239.048 579.068 238.91 579.279 238.634C579.489 238.351 579.594 237.953 579.594 237.441C579.594 236.928 579.486 236.534 579.269 236.258C579.059 235.975 578.773 235.834 578.411 235.834C578.05 235.834 577.76 235.972 577.543 236.248C577.333 236.524 577.228 236.921 577.228 237.441C577.228 237.96 577.333 238.358 577.543 238.634ZM580.166 239.472C579.706 239.958 579.121 240.201 578.411 240.201C577.701 240.201 577.116 239.958 576.656 239.472C576.196 238.985 575.966 238.308 575.966 237.441C575.966 236.586 576.202 235.912 576.676 235.419C577.149 234.926 577.727 234.68 578.411 234.68C579.095 234.68 579.673 234.926 580.146 235.419C580.62 235.912 580.856 236.586 580.856 237.441C580.856 238.308 580.626 238.985 580.166 239.472ZM583.177 236.958V237.914C583.177 238.23 583.276 238.499 583.473 238.722C583.677 238.939 583.953 239.048 584.301 239.048C584.676 239.048 584.965 238.913 585.169 238.644C585.379 238.368 585.485 237.967 585.485 237.441C585.485 236.908 585.379 236.507 585.169 236.238C584.965 235.968 584.676 235.834 584.301 235.834C583.953 235.834 583.677 235.942 583.473 236.159C583.276 236.376 583.177 236.642 583.177 236.958ZM581.896 240.054V232.856H583.177V235.331H583.197C583.21 235.311 583.227 235.288 583.246 235.262C583.266 235.229 583.315 235.176 583.394 235.104C583.48 235.032 583.569 234.966 583.661 234.907C583.759 234.848 583.884 234.795 584.035 234.749C584.193 234.703 584.357 234.68 584.528 234.68C585.172 234.68 585.705 234.936 586.126 235.449C586.553 235.955 586.766 236.619 586.766 237.441C586.766 238.282 586.559 238.953 586.145 239.452C585.738 239.952 585.189 240.201 584.499 240.201C584.216 240.201 583.96 240.149 583.73 240.044C583.499 239.932 583.342 239.824 583.256 239.718L583.118 239.551H583.099V240.054H581.896ZM589.08 236.958V237.914C589.08 238.23 589.178 238.499 589.376 238.722C589.579 238.939 589.856 239.048 590.204 239.048C590.579 239.048 590.868 238.913 591.072 238.644C591.282 238.368 591.387 237.967 591.387 237.441C591.387 236.908 591.282 236.507 591.072 236.238C590.868 235.968 590.579 235.834 590.204 235.834C589.856 235.834 589.579 235.942 589.376 236.159C589.178 236.376 589.08 236.642 589.08 236.958ZM587.798 240.054V232.856H589.08V235.331H589.1C589.113 235.311 589.129 235.288 589.149 235.262C589.169 235.229 589.218 235.176 589.297 235.104C589.382 235.032 589.471 234.966 589.563 234.907C589.662 234.848 589.787 234.795 589.938 234.749C590.095 234.703 590.26 234.68 590.431 234.68C591.075 234.68 591.607 234.936 592.028 235.449C592.455 235.955 592.669 236.619 592.669 237.441C592.669 238.282 592.462 238.953 592.048 239.452C591.64 239.952 591.091 240.201 590.401 240.201C590.118 240.201 589.862 240.149 589.632 240.044C589.402 239.932 589.244 239.824 589.159 239.718L589.021 239.551H589.001V240.054H587.798ZM593.912 242.272L594.957 239.797L592.867 234.828H594.169L595.519 238.368H595.539L596.89 234.828H598.191L595.184 242.272H593.912Z" fill="#7986A3"/>
<path d="M619.597 364.987V358.085H622.525C623.136 358.085 623.626 358.266 623.994 358.628C624.369 358.983 624.556 359.42 624.556 359.939C624.556 360.517 624.306 360.955 623.807 361.25V361.26C624.103 361.385 624.342 361.586 624.527 361.862C624.717 362.131 624.812 362.457 624.812 362.838C624.812 363.495 624.612 364.021 624.211 364.415C623.81 364.797 623.149 364.987 622.229 364.987H619.597ZM620.928 363.755H622.535C623.166 363.755 623.481 363.449 623.481 362.838C623.481 362.555 623.396 362.338 623.225 362.187C623.061 362.029 622.834 361.95 622.545 361.95H620.928V363.755ZM620.928 360.866H622.357C622.627 360.866 622.837 360.803 622.988 360.679C623.146 360.547 623.225 360.356 623.225 360.107C623.225 359.844 623.149 359.647 622.998 359.515C622.847 359.384 622.633 359.318 622.357 359.318H620.928V360.866ZM628.465 364.987V358.085H629.796V363.755H632.645V364.987H628.465ZM634.712 363.567C634.922 363.844 635.211 363.982 635.579 363.982C635.947 363.982 636.237 363.844 636.447 363.567C636.657 363.285 636.762 362.887 636.762 362.374C636.762 361.862 636.654 361.467 636.437 361.191C636.227 360.909 635.941 360.767 635.579 360.767C635.218 360.767 634.928 360.905 634.712 361.181C634.501 361.457 634.396 361.855 634.396 362.374C634.396 362.894 634.501 363.291 634.712 363.567ZM637.334 364.406C636.874 364.892 636.289 365.135 635.579 365.135C634.869 365.135 634.284 364.892 633.824 364.406C633.364 363.919 633.134 363.242 633.134 362.374C633.134 361.52 633.371 360.846 633.844 360.353C634.317 359.86 634.896 359.614 635.579 359.614C636.263 359.614 636.841 359.86 637.315 360.353C637.788 360.846 638.024 361.52 638.024 362.374C638.024 363.242 637.794 363.919 637.334 364.406ZM639.064 364.987V359.762H640.296V360.264H640.316C640.461 360.08 640.658 359.926 640.908 359.801C641.157 359.676 641.42 359.614 641.696 359.614C642.275 359.614 642.728 359.788 643.057 360.136C643.386 360.478 643.55 360.955 643.55 361.566V364.987H642.268V361.881C642.268 361.52 642.199 361.25 642.061 361.073C641.923 360.889 641.687 360.797 641.351 360.797C641.036 360.797 640.789 360.889 640.612 361.073C640.434 361.25 640.346 361.49 640.346 361.793V364.987H639.064ZM648.222 362.907V361.832C648.222 361.536 648.12 361.287 647.916 361.083C647.713 360.872 647.44 360.767 647.098 360.767C646.717 360.767 646.408 360.905 646.171 361.181C645.935 361.457 645.816 361.855 645.816 362.374C645.816 362.894 645.935 363.291 646.171 363.567C646.414 363.844 646.723 363.982 647.098 363.982C647.44 363.982 647.713 363.88 647.916 363.676C648.12 363.466 648.222 363.209 648.222 362.907ZM644.909 366.052L645.866 365.392C646.017 365.687 646.188 365.901 646.378 366.032C646.569 366.17 646.815 366.24 647.118 366.24C647.453 366.24 647.719 366.151 647.916 365.973C648.12 365.802 648.222 365.526 648.222 365.145V364.484H648.202C648.104 364.662 647.933 364.816 647.69 364.948C647.446 365.073 647.184 365.135 646.901 365.135C646.23 365.135 645.668 364.892 645.215 364.406C644.761 363.913 644.534 363.236 644.534 362.374C644.534 361.526 644.768 360.856 645.235 360.363C645.701 359.863 646.25 359.614 646.881 359.614C647.479 359.614 647.939 359.831 648.262 360.264H648.281V359.762H649.504V364.987C649.504 365.75 649.28 366.335 648.833 366.742C648.393 367.15 647.821 367.354 647.118 367.354C646.572 367.354 646.109 367.235 645.728 366.999C645.353 366.762 645.08 366.447 644.909 366.052Z" fill="#7986A3"/>
<path d="M518.373 391V384.098H519.704V386.879H522.071V384.098H523.402V391H522.071V388.012H519.704V391H518.373ZM526.112 389.58C526.323 389.856 526.612 389.994 526.98 389.994C527.348 389.994 527.637 389.856 527.848 389.58C528.058 389.298 528.163 388.9 528.163 388.387C528.163 387.874 528.055 387.48 527.838 387.204C527.628 386.921 527.342 386.78 526.98 386.78C526.619 386.78 526.329 386.918 526.112 387.194C525.902 387.47 525.797 387.868 525.797 388.387C525.797 388.906 525.902 389.304 526.112 389.58ZM528.735 390.418C528.275 390.905 527.69 391.148 526.98 391.148C526.27 391.148 525.685 390.905 525.225 390.418C524.765 389.932 524.535 389.255 524.535 388.387C524.535 387.533 524.771 386.859 525.245 386.366C525.718 385.873 526.296 385.626 526.98 385.626C527.664 385.626 528.242 385.873 528.715 386.366C529.189 386.859 529.425 387.533 529.425 388.387C529.425 389.255 529.195 389.932 528.735 390.418ZM531.697 389.58C531.907 389.856 532.197 389.994 532.565 389.994C532.933 389.994 533.222 389.856 533.432 389.58C533.643 389.298 533.748 388.9 533.748 388.387C533.748 387.874 533.64 387.48 533.423 387.204C533.212 386.921 532.926 386.78 532.565 386.78C532.203 386.78 531.914 386.918 531.697 387.194C531.487 387.47 531.382 387.868 531.382 388.387C531.382 388.906 531.487 389.304 531.697 389.58ZM534.32 390.418C533.86 390.905 533.275 391.148 532.565 391.148C531.855 391.148 531.27 390.905 530.81 390.418C530.35 389.932 530.12 389.255 530.12 388.387C530.12 387.533 530.356 386.859 530.829 386.366C531.303 385.873 531.881 385.626 532.565 385.626C533.248 385.626 533.827 385.873 534.3 386.366C534.773 386.859 535.01 387.533 535.01 388.387C535.01 389.255 534.78 389.932 534.32 390.418ZM536.049 391V383.802H537.331V387.934H537.351L539.254 385.774H540.861L538.978 387.894L541.029 391H539.609L538.011 388.614H537.992L537.331 389.363V391H536.049ZM544.698 391V390.497H544.679C544.666 390.517 544.649 390.543 544.629 390.576C544.61 390.602 544.56 390.652 544.482 390.724C544.403 390.796 544.314 390.862 544.215 390.921C544.117 390.98 543.982 391.033 543.811 391.079C543.64 391.125 543.456 391.148 543.259 391.148C542.628 391.148 542.155 391 541.839 390.704C541.53 390.402 541.376 390.034 541.376 389.6C541.376 389.146 541.51 388.801 541.78 388.565C542.049 388.328 542.506 388.131 543.15 387.973C543.749 387.828 544.123 387.713 544.274 387.628C544.426 387.542 544.501 387.421 544.501 387.263C544.501 387.105 544.426 386.974 544.274 386.869C544.13 386.764 543.91 386.711 543.614 386.711C543.265 386.711 543.016 386.79 542.864 386.948C542.713 387.099 542.595 387.306 542.51 387.569L541.445 387.125C541.57 386.685 541.813 386.326 542.174 386.05C542.536 385.768 543.009 385.626 543.594 385.626C544.232 385.626 544.754 385.794 545.162 386.129C545.569 386.464 545.773 386.984 545.773 387.687V391H544.698ZM543.407 388.86C543.078 388.939 542.861 389.035 542.756 389.146C542.657 389.252 542.608 389.373 542.608 389.511C542.608 389.866 542.864 390.044 543.377 390.044C543.765 390.044 544.054 389.971 544.245 389.827C544.442 389.675 544.541 389.491 544.541 389.275V388.367H544.521C544.495 388.42 544.465 388.463 544.432 388.496C544.406 388.522 544.307 388.571 544.136 388.643C543.966 388.709 543.722 388.782 543.407 388.86ZM547.055 391V383.802H548.337V386.277H548.357C548.462 386.106 548.636 385.955 548.879 385.824C549.122 385.692 549.372 385.626 549.629 385.626C550.187 385.626 550.631 385.797 550.96 386.139C551.288 386.481 551.453 386.941 551.453 387.519V391H550.171V387.805C550.171 387.516 550.092 387.28 549.934 387.095C549.783 386.905 549.553 386.81 549.244 386.81C548.948 386.81 548.721 386.895 548.564 387.066C548.412 387.23 548.337 387.447 548.337 387.717V391H547.055Z" fill="#7986A3"/>
<path d="M518.022 449L516.681 442.098H518.032L518.92 446.791H518.949L520.537 442.098H521.207L522.795 446.791H522.824L523.711 442.098H525.033L523.692 449H522.311L520.892 444.711H520.832L519.403 449H518.022ZM526.021 449V443.774H527.303V449H526.021ZM526.021 443.015V441.802H527.303V443.015H526.021ZM528.678 449V443.774H529.911V444.277H529.931C530.075 444.093 530.273 443.939 530.522 443.814C530.772 443.689 531.035 443.626 531.311 443.626C531.89 443.626 532.343 443.801 532.672 444.149C533 444.491 533.165 444.967 533.165 445.579V449H531.883V445.894C531.883 445.533 531.814 445.263 531.676 445.086C531.538 444.902 531.301 444.81 530.966 444.81C530.65 444.81 530.404 444.902 530.227 445.086C530.049 445.263 529.96 445.503 529.96 445.805V449H528.678ZM537.738 446.86V445.904C537.738 445.588 537.636 445.322 537.433 445.105C537.235 444.888 536.963 444.78 536.614 444.78C536.24 444.78 535.947 444.915 535.737 445.184C535.533 445.454 535.431 445.855 535.431 446.387C535.431 446.913 535.533 447.314 535.737 447.59C535.947 447.86 536.24 447.994 536.614 447.994C536.963 447.994 537.235 447.886 537.433 447.669C537.636 447.445 537.738 447.176 537.738 446.86ZM537.817 449V448.497H537.797C537.765 448.543 537.715 448.602 537.649 448.675C537.59 448.747 537.439 448.846 537.196 448.97C536.959 449.089 536.7 449.148 536.417 449.148C535.727 449.148 535.175 448.898 534.761 448.399C534.353 447.899 534.149 447.229 534.149 446.387C534.149 445.539 534.373 444.869 534.82 444.376C535.267 443.876 535.793 443.626 536.397 443.626C536.673 443.626 536.92 443.682 537.137 443.794C537.36 443.899 537.511 444.004 537.59 444.109L537.718 444.277H537.738V441.802H539.02V449H537.817ZM541.629 447.58C541.84 447.856 542.129 447.994 542.497 447.994C542.865 447.994 543.154 447.856 543.365 447.58C543.575 447.298 543.68 446.9 543.68 446.387C543.68 445.874 543.572 445.48 543.355 445.204C543.144 444.921 542.858 444.78 542.497 444.78C542.135 444.78 541.846 444.918 541.629 445.194C541.419 445.47 541.314 445.868 541.314 446.387C541.314 446.906 541.419 447.304 541.629 447.58ZM544.252 448.418C543.792 448.905 543.207 449.148 542.497 449.148C541.787 449.148 541.202 448.905 540.742 448.418C540.282 447.932 540.052 447.255 540.052 446.387C540.052 445.533 540.288 444.859 540.762 444.366C541.235 443.873 541.813 443.626 542.497 443.626C543.181 443.626 543.759 443.873 544.232 444.366C544.706 444.859 544.942 445.533 544.942 446.387C544.942 447.255 544.712 447.932 544.252 448.418ZM546.741 449L545.587 443.774H546.839L547.53 447.265H547.559L548.723 443.774H549.886L550.961 447.255H550.98L551.769 443.774H553.002L551.75 449H550.487L549.294 445.243H549.275L547.983 449H546.741Z" fill="#7986A3"/>
<path d="M642.133 507.769V500.867H646.501V502.099H643.464V503.647H646.225V504.83H643.464V506.536H646.501V507.769H642.133ZM647.734 507.769V500.571H649.065V507.769H647.734ZM651.732 504.673V505.629C651.732 505.945 651.83 506.214 652.027 506.438C652.231 506.655 652.507 506.763 652.856 506.763C653.23 506.763 653.519 506.628 653.723 506.359C653.934 506.083 654.039 505.682 654.039 505.156C654.039 504.623 653.934 504.222 653.723 503.953C653.519 503.683 653.23 503.549 652.856 503.549C652.507 503.549 652.231 503.657 652.027 503.874C651.83 504.091 651.732 504.357 651.732 504.673ZM650.45 507.769V500.571H651.732V503.046H651.751C651.764 503.026 651.781 503.003 651.801 502.977C651.82 502.944 651.87 502.891 651.948 502.819C652.034 502.747 652.123 502.681 652.215 502.622C652.313 502.563 652.438 502.51 652.589 502.464C652.747 502.418 652.911 502.395 653.082 502.395C653.727 502.395 654.259 502.651 654.68 503.164C655.107 503.67 655.321 504.334 655.321 505.156C655.321 505.997 655.113 506.668 654.699 507.167C654.292 507.667 653.743 507.917 653.053 507.917C652.77 507.917 652.514 507.864 652.284 507.759C652.054 507.647 651.896 507.539 651.81 507.433L651.672 507.266H651.653V507.769H650.45ZM657.585 506.349C657.795 506.625 658.084 506.763 658.452 506.763C658.82 506.763 659.11 506.625 659.32 506.349C659.53 506.066 659.636 505.669 659.636 505.156C659.636 504.643 659.527 504.249 659.31 503.973C659.1 503.69 658.814 503.549 658.452 503.549C658.091 503.549 657.802 503.687 657.585 503.963C657.374 504.239 657.269 504.637 657.269 505.156C657.269 505.675 657.374 506.073 657.585 506.349ZM660.207 507.187C659.747 507.673 659.162 507.917 658.452 507.917C657.742 507.917 657.157 507.673 656.697 507.187C656.237 506.701 656.007 506.023 656.007 505.156C656.007 504.301 656.244 503.628 656.717 503.135C657.19 502.642 657.769 502.395 658.452 502.395C659.136 502.395 659.714 502.642 660.188 503.135C660.661 503.628 660.898 504.301 660.898 505.156C660.898 506.023 660.668 506.701 660.207 507.187ZM662.696 507.769L661.543 502.543H662.795L663.485 506.033H663.515L664.678 502.543H665.841L666.916 506.023H666.936L667.725 502.543H668.957L667.705 507.769H666.443L665.25 504.012H665.23L663.938 507.769H662.696Z" fill="#7986A3"/>
<path d="M546.786 604.956V598.054H549.715C550.326 598.054 550.816 598.235 551.184 598.597C551.559 598.952 551.746 599.389 551.746 599.908C551.746 600.486 551.496 600.924 550.997 601.219V601.229C551.292 601.354 551.532 601.555 551.716 601.831C551.907 602.1 552.002 602.426 552.002 602.807C552.002 603.464 551.802 603.99 551.401 604.384C551 604.766 550.339 604.956 549.419 604.956H546.786ZM548.118 603.724H549.725C550.356 603.724 550.671 603.418 550.671 602.807C550.671 602.524 550.586 602.307 550.415 602.156C550.251 601.998 550.024 601.919 549.735 601.919H548.118V603.724ZM548.118 600.835H549.547C549.817 600.835 550.027 600.772 550.178 600.648C550.336 600.516 550.415 600.325 550.415 600.076C550.415 599.813 550.339 599.616 550.188 599.484C550.037 599.353 549.823 599.287 549.547 599.287H548.118V600.835ZM555.655 604.956V598.054H556.986V600.835H559.352V598.054H560.683V604.956H559.352V601.969H556.986V604.956H555.655ZM565.139 604.956V604.453H565.119C565.106 604.473 565.09 604.499 565.07 604.532C565.05 604.559 565.001 604.608 564.922 604.68C564.843 604.753 564.755 604.818 564.656 604.877C564.557 604.937 564.423 604.989 564.252 605.035C564.081 605.081 563.897 605.104 563.7 605.104C563.068 605.104 562.595 604.956 562.28 604.661C561.971 604.358 561.816 603.99 561.816 603.556C561.816 603.103 561.951 602.758 562.221 602.521C562.49 602.284 562.947 602.087 563.591 601.929C564.189 601.785 564.564 601.67 564.715 601.584C564.866 601.499 564.942 601.377 564.942 601.219C564.942 601.062 564.866 600.93 564.715 600.825C564.57 600.72 564.35 600.667 564.054 600.667C563.706 600.667 563.456 600.746 563.305 600.904C563.154 601.055 563.036 601.262 562.95 601.525L561.885 601.081C562.01 600.641 562.253 600.283 562.615 600.007C562.976 599.724 563.45 599.583 564.035 599.583C564.672 599.583 565.195 599.75 565.602 600.085C566.01 600.421 566.214 600.94 566.214 601.643V604.956H565.139ZM563.847 602.817C563.519 602.896 563.302 602.991 563.197 603.103C563.098 603.208 563.049 603.329 563.049 603.467C563.049 603.822 563.305 604 563.818 604C564.206 604 564.495 603.928 564.685 603.783C564.883 603.632 564.981 603.448 564.981 603.231V602.324H564.962C564.935 602.376 564.906 602.419 564.873 602.452C564.847 602.478 564.748 602.527 564.577 602.6C564.406 602.666 564.163 602.738 563.847 602.817ZM567.496 604.956V597.759H568.827V604.956H567.496ZM570.211 604.956V597.759H571.542V604.956H570.211Z" fill="#7986A3"/>
<path d="M472.94 534.54V527.638H475.868C476.48 527.638 476.969 527.819 477.337 528.181C477.712 528.535 477.899 528.973 477.899 529.492C477.899 530.07 477.65 530.507 477.15 530.803V530.813C477.446 530.938 477.686 531.138 477.87 531.415C478.06 531.684 478.156 532.009 478.156 532.391C478.156 533.048 477.955 533.574 477.554 533.968C477.153 534.35 476.493 534.54 475.572 534.54H472.94ZM474.271 533.308H475.878C476.509 533.308 476.825 533.002 476.825 532.391C476.825 532.108 476.739 531.891 476.568 531.74C476.404 531.582 476.177 531.503 475.888 531.503H474.271V533.308ZM474.271 530.419H475.701C475.97 530.419 476.181 530.356 476.332 530.231C476.489 530.1 476.568 529.909 476.568 529.66C476.568 529.397 476.493 529.199 476.342 529.068C476.19 528.936 475.977 528.871 475.701 528.871H474.271V530.419ZM485.762 531.799L487.142 532.105C487.031 532.907 486.738 533.538 486.265 533.998C485.791 534.458 485.174 534.688 484.411 534.688C483.524 534.688 482.801 534.382 482.242 533.771C481.69 533.153 481.414 532.223 481.414 530.981C481.414 529.89 481.706 529.035 482.291 528.417C482.883 527.799 483.586 527.49 484.401 527.49C485.111 527.49 485.713 527.714 486.206 528.161C486.705 528.601 486.994 529.196 487.073 529.945L485.752 530.152C485.693 529.732 485.555 529.39 485.338 529.127C485.121 528.858 484.812 528.723 484.411 528.723C483.958 528.723 483.573 528.92 483.257 529.314C482.942 529.709 482.784 530.264 482.784 530.981C482.784 531.822 482.935 532.447 483.238 532.854C483.547 533.255 483.938 533.456 484.411 533.456C485.187 533.456 485.637 532.903 485.762 531.799ZM488.131 532.686V529.314H489.413V532.548C489.413 532.877 489.475 533.11 489.6 533.249C489.725 533.387 489.925 533.456 490.201 533.456C490.51 533.456 490.76 533.377 490.951 533.219C491.141 533.055 491.237 532.798 491.237 532.45V529.314H492.518V534.54H491.296V534.037H491.276C490.954 534.471 490.5 534.688 489.915 534.688C489.311 534.688 488.86 534.507 488.565 534.146C488.275 533.784 488.131 533.298 488.131 532.686ZM495.181 531.444V532.401C495.181 532.716 495.28 532.986 495.477 533.209C495.681 533.426 495.957 533.534 496.305 533.534C496.68 533.534 496.969 533.4 497.173 533.13C497.383 532.854 497.489 532.453 497.489 531.927C497.489 531.395 497.383 530.994 497.173 530.724C496.969 530.455 496.68 530.32 496.305 530.32C495.957 530.32 495.681 530.429 495.477 530.645C495.28 530.862 495.181 531.129 495.181 531.444ZM493.9 534.54V527.342H495.181V529.817H495.201C495.214 529.798 495.231 529.775 495.25 529.748C495.27 529.715 495.319 529.663 495.398 529.59C495.484 529.518 495.572 529.452 495.664 529.393C495.763 529.334 495.888 529.282 496.039 529.236C496.197 529.19 496.361 529.167 496.532 529.167C497.176 529.167 497.709 529.423 498.129 529.936C498.557 530.442 498.77 531.106 498.77 531.927C498.77 532.769 498.563 533.439 498.149 533.939C497.742 534.438 497.193 534.688 496.503 534.688C496.22 534.688 495.964 534.635 495.733 534.53C495.503 534.419 495.346 534.31 495.26 534.205L495.122 534.037H495.102V534.54H493.9ZM501.084 531.444V532.401C501.084 532.716 501.182 532.986 501.38 533.209C501.583 533.426 501.859 533.534 502.208 533.534C502.583 533.534 502.872 533.4 503.076 533.13C503.286 532.854 503.391 532.453 503.391 531.927C503.391 531.395 503.286 530.994 503.076 530.724C502.872 530.455 502.583 530.32 502.208 530.32C501.859 530.32 501.583 530.429 501.38 530.645C501.182 530.862 501.084 531.129 501.084 531.444ZM499.802 534.54V527.342H501.084V529.817H501.104C501.117 529.798 501.133 529.775 501.153 529.748C501.173 529.715 501.222 529.663 501.301 529.59C501.386 529.518 501.475 529.452 501.567 529.393C501.666 529.334 501.79 529.282 501.942 529.236C502.099 529.19 502.264 529.167 502.435 529.167C503.079 529.167 503.611 529.423 504.032 529.936C504.459 530.442 504.673 531.106 504.673 531.927C504.673 532.769 504.466 533.439 504.052 533.939C503.644 534.438 503.095 534.688 502.405 534.688C502.122 534.688 501.866 534.635 501.636 534.53C501.406 534.419 501.248 534.31 501.163 534.205L501.025 534.037H501.005V534.54H499.802ZM505.916 536.759L506.961 534.284L504.871 529.314H506.173L507.523 532.854H507.543L508.894 529.314H510.195L507.188 536.759H505.916Z" fill="#7986A3"/>
<path d="M294.254 500.563V495.909H295.585V500.504C295.585 500.878 295.69 501.178 295.9 501.401C296.117 501.618 296.433 501.726 296.847 501.726C297.261 501.726 297.577 501.618 297.794 501.401C298.011 501.184 298.119 500.892 298.119 500.524V495.909H299.45V500.563C299.45 501.339 299.213 501.934 298.74 502.348C298.267 502.755 297.636 502.959 296.847 502.959C296.058 502.959 295.427 502.755 294.954 502.348C294.487 501.934 294.254 501.339 294.254 500.563ZM303.347 502.811V495.909H304.678V498.69H307.044V495.909H308.376V502.811H307.044V499.823H304.678V502.811H303.347ZM312.831 502.811V502.308H312.812C312.799 502.328 312.782 502.354 312.762 502.387C312.743 502.413 312.693 502.463 312.615 502.535C312.536 502.607 312.447 502.673 312.348 502.732C312.25 502.791 312.115 502.844 311.944 502.89C311.773 502.936 311.589 502.959 311.392 502.959C310.761 502.959 310.288 502.811 309.972 502.515C309.663 502.213 309.509 501.845 309.509 501.411C309.509 500.957 309.643 500.612 309.913 500.376C310.182 500.139 310.639 499.942 311.283 499.784C311.882 499.639 312.256 499.524 312.407 499.439C312.559 499.353 312.634 499.232 312.634 499.074C312.634 498.916 312.559 498.785 312.407 498.68C312.263 498.575 312.043 498.522 311.747 498.522C311.398 498.522 311.149 498.601 310.997 498.759C310.846 498.91 310.728 499.117 310.643 499.38L309.578 498.936C309.703 498.496 309.946 498.137 310.307 497.861C310.669 497.579 311.142 497.437 311.727 497.437C312.365 497.437 312.887 497.605 313.295 497.94C313.702 498.275 313.906 498.795 313.906 499.498V502.811H312.831ZM311.54 500.671C311.211 500.75 310.994 500.846 310.889 500.957C310.79 501.063 310.741 501.184 310.741 501.322C310.741 501.677 310.997 501.855 311.51 501.855C311.898 501.855 312.187 501.782 312.378 501.638C312.575 501.487 312.674 501.302 312.674 501.086V500.178H312.654C312.628 500.231 312.598 500.274 312.565 500.307C312.539 500.333 312.44 500.382 312.269 500.455C312.099 500.52 311.855 500.593 311.54 500.671ZM315.188 502.811V495.613H316.519V502.811H315.188ZM317.903 502.811V495.613H319.235V502.811H317.903Z" fill="#7986A3"/>
<path d="M233.709 497.853V492.184H231.688V490.951H237.061V492.184H235.04V497.853H233.709ZM237.363 497.853V492.628H238.576V493.18H238.596C238.694 492.982 238.839 492.825 239.03 492.706C239.227 492.588 239.44 492.529 239.67 492.529C239.835 492.529 239.993 492.562 240.144 492.628L239.947 493.87C239.802 493.817 239.667 493.791 239.542 493.791C238.944 493.791 238.645 494.189 238.645 494.984V497.853H237.363ZM240.934 496V492.628H242.216V495.862C242.216 496.19 242.279 496.424 242.403 496.562C242.528 496.7 242.729 496.769 243.005 496.769C243.314 496.769 243.564 496.69 243.754 496.532C243.945 496.368 244.04 496.111 244.04 495.763V492.628H245.322V497.853H244.099V497.35H244.08C243.758 497.784 243.304 498.001 242.719 498.001C242.114 498.001 241.664 497.82 241.368 497.459C241.079 497.097 240.934 496.611 240.934 496ZM249.839 495.743L251.051 496.059C250.933 496.683 250.677 497.163 250.282 497.498C249.888 497.834 249.392 498.001 248.793 498.001C248.084 498.001 247.499 497.758 247.038 497.272C246.585 496.785 246.358 496.108 246.358 495.24C246.358 494.379 246.591 493.706 247.058 493.219C247.531 492.726 248.113 492.48 248.803 492.48C249.388 492.48 249.878 492.651 250.272 492.992C250.667 493.334 250.91 493.791 251.002 494.363L249.809 494.59C249.684 493.952 249.349 493.633 248.803 493.633C248.442 493.633 248.153 493.771 247.936 494.047C247.725 494.317 247.62 494.715 247.62 495.24C247.62 495.766 247.725 496.167 247.936 496.443C248.146 496.713 248.435 496.848 248.803 496.848C249.382 496.848 249.727 496.479 249.839 495.743ZM252.038 497.853V490.656H253.319V494.787H253.339L255.242 492.628H256.849L254.966 494.747L257.017 497.853H255.597L254 495.467H253.98L253.319 496.217V497.853H252.038Z" fill="#7986A3"/>
<path d="M263.308 479.014V472.112H266.109C266.812 472.112 267.384 472.313 267.824 472.714C268.265 473.108 268.485 473.64 268.485 474.311C268.485 474.981 268.271 475.514 267.844 475.908C267.423 476.303 266.845 476.5 266.109 476.5H264.64V479.014H263.308ZM264.64 475.267H266.089C266.385 475.267 266.628 475.182 266.819 475.011C267.009 474.833 267.105 474.6 267.105 474.311C267.105 473.976 267.006 473.732 266.809 473.581C266.618 473.423 266.378 473.345 266.089 473.345H264.64V475.267ZM269.228 479.014V473.788H270.51V479.014H269.228ZM269.228 473.029V471.816H270.51V473.029H269.228ZM271.885 479.014V471.816H273.217V479.014H271.885ZM274.601 479.014V471.816H275.932V479.014H274.601ZM280.294 479.014V478.511H280.274C280.261 478.531 280.244 478.557 280.225 478.59C280.205 478.616 280.156 478.666 280.077 478.738C279.998 478.81 279.909 478.876 279.811 478.935C279.712 478.994 279.577 479.047 279.406 479.093C279.235 479.139 279.051 479.162 278.854 479.162C278.223 479.162 277.75 479.014 277.434 478.718C277.125 478.416 276.971 478.048 276.971 477.614C276.971 477.16 277.106 476.815 277.375 476.579C277.645 476.342 278.102 476.145 278.746 475.987C279.344 475.842 279.719 475.727 279.87 475.642C280.021 475.556 280.097 475.435 280.097 475.277C280.097 475.119 280.021 474.988 279.87 474.883C279.725 474.778 279.505 474.725 279.209 474.725C278.861 474.725 278.611 474.804 278.46 474.962C278.309 475.113 278.19 475.32 278.105 475.583L277.04 475.139C277.165 474.699 277.408 474.34 277.77 474.064C278.131 473.782 278.604 473.64 279.189 473.64C279.827 473.64 280.35 473.808 280.757 474.143C281.165 474.478 281.369 474.998 281.369 475.701V479.014H280.294ZM279.002 476.874C278.673 476.953 278.457 477.049 278.351 477.16C278.253 477.266 278.203 477.387 278.203 477.525C278.203 477.88 278.46 478.058 278.973 478.058C279.36 478.058 279.65 477.985 279.84 477.841C280.037 477.69 280.136 477.505 280.136 477.289V476.381H280.116C280.09 476.434 280.06 476.477 280.028 476.51C280.001 476.536 279.903 476.585 279.732 476.658C279.561 476.723 279.318 476.796 279.002 476.874ZM282.65 479.014V473.788H283.863V474.34H283.883C283.982 474.143 284.126 473.985 284.317 473.867C284.514 473.749 284.728 473.69 284.958 473.69C285.122 473.69 285.28 473.723 285.431 473.788L285.234 475.031C285.089 474.978 284.954 474.952 284.83 474.952C284.231 474.952 283.932 475.349 283.932 476.145V479.014H282.65Z" fill="#7986A3"/>
<path d="M287.931 560.32L285.437 553.418H286.837L288.543 558.319H288.572L290.229 553.418H291.609L289.144 560.32H287.931ZM295.295 558.516L296.192 559.304C295.66 560.08 294.94 560.468 294.033 560.468C293.303 560.468 292.708 560.218 292.248 559.719C291.788 559.212 291.558 558.542 291.558 557.707C291.558 556.872 291.785 556.205 292.238 555.706C292.699 555.199 293.277 554.946 293.974 554.946C294.671 554.946 295.242 555.199 295.689 555.706C296.143 556.205 296.37 556.872 296.37 557.707V558.092H292.86C292.879 558.493 292.988 558.802 293.185 559.019C293.389 559.229 293.665 559.334 294.013 559.334C294.309 559.334 294.552 559.262 294.743 559.117C294.94 558.966 295.124 558.765 295.295 558.516ZM292.86 557.135H295.127C295.095 556.8 294.98 556.54 294.782 556.356C294.585 556.166 294.316 556.07 293.974 556.07C293.658 556.07 293.399 556.172 293.195 556.376C292.998 556.58 292.886 556.833 292.86 557.135ZM297.401 560.32V555.094H298.634V555.597H298.654C298.798 555.413 298.995 555.259 299.245 555.134C299.495 555.009 299.758 554.946 300.034 554.946C300.612 554.946 301.066 555.121 301.395 555.469C301.723 555.811 301.888 556.287 301.888 556.899V560.32H300.606V557.214C300.606 556.853 300.537 556.583 300.399 556.406C300.261 556.222 300.024 556.13 299.689 556.13C299.373 556.13 299.127 556.222 298.949 556.406C298.772 556.583 298.683 556.823 298.683 557.125V560.32H297.401ZM303.483 558.457V556.179H302.675V555.094H303.513V553.813H304.726V555.094H306.047V556.179H304.745V558.338C304.745 558.614 304.791 558.808 304.883 558.92C304.975 559.032 305.163 559.088 305.445 559.088H305.869V560.32H305.327C304.624 560.32 304.141 560.172 303.878 559.876C303.615 559.581 303.483 559.107 303.483 558.457Z" fill="#7986A3"/>
<rect opacity="0.5" x="242.817" y="536.439" width="84.2807" height="74.3653" rx="4.1083" transform="rotate(-180 242.817 536.439)" fill="#4D5F83" fill-opacity="0.15" stroke="#4D5F83" stroke-width="1.64332" stroke-miterlimit="16"/>
<g opacity="0.15">
<mask id="mask0" mask-type="alpha" maskUnits="userSpaceOnUse" x="158" y="462" width="85" height="75">
<rect x="242.817" y="536.439" width="84.2807" height="74.3653" rx="4.1083" transform="rotate(-180 242.817 536.439)" fill="#C4C4C4"/>
</mask>
<g mask="url(#mask0)">
<rect width="182.241" height="3.70032" transform="matrix(-0.703677 0.703134 -0.703677 -0.703134 208.699 385.186)" fill="#4D5F83"/>
<rect width="182.241" height="3.70032" transform="matrix(-0.703676 0.703134 -0.703676 -0.703134 213.906 390.389)" fill="#4D5F83"/>
<rect width="182.241" height="3.70032" transform="matrix(-0.703676 0.703134 -0.703676 -0.703134 219.114 395.594)" fill="#4D5F83"/>
<rect width="182.241" height="3.70032" transform="matrix(-0.703676 0.703134 -0.703676 -0.703134 224.322 400.797)" fill="#4D5F83"/>
<rect width="182.241" height="3.70032" transform="matrix(-0.703676 0.703134 -0.703676 -0.703134 229.529 406.001)" fill="#4D5F83"/>
<rect width="182.241" height="3.70032" transform="matrix(-0.703676 0.703134 -0.703676 -0.703134 234.736 411.204)" fill="#4D5F83"/>
<rect width="182.241" height="3.70032" transform="matrix(-0.703676 0.703134 -0.703676 -0.703134 239.945 416.408)" fill="#4D5F83"/>
<rect width="182.241" height="3.70032" transform="matrix(-0.703676 0.703134 -0.703676 -0.703134 245.152 421.612)" fill="#4D5F83"/>
<rect width="182.241" height="3.70032" transform="matrix(-0.703676 0.703134 -0.703676 -0.703134 250.36 426.815)" fill="#4D5F83"/>
<rect width="182.241" height="3.70032" transform="matrix(-0.703676 0.703134 -0.703676 -0.703134 255.567 432.018)" fill="#4D5F83"/>
<rect width="182.241" height="3.70032" transform="matrix(-0.703676 0.703134 -0.703676 -0.703134 260.775 437.223)" fill="#4D5F83"/>
<rect width="182.241" height="3.70032" transform="matrix(-0.703676 0.703134 -0.703676 -0.703134 265.983 442.426)" fill="#4D5F83"/>
<rect width="182.241" height="3.70032" transform="matrix(-0.703676 0.703134 -0.703676 -0.703134 271.191 447.63)" fill="#4D5F83"/>
<rect width="182.241" height="3.70032" transform="matrix(-0.703677 0.703134 -0.703677 -0.703134 276.398 452.833)" fill="#4D5F83"/>
<rect width="182.241" height="3.70032" transform="matrix(-0.703677 0.703134 -0.703677 -0.703134 281.605 458.037)" fill="#4D5F83"/>
<rect width="182.241" height="3.70032" transform="matrix(-0.703676 0.703134 -0.703676 -0.703134 286.814 463.241)" fill="#4D5F83"/>
<rect width="182.241" height="3.70032" transform="matrix(-0.703676 0.703134 -0.703676 -0.703134 292.021 468.444)" fill="#4D5F83"/>
<rect width="182.241" height="3.70032" transform="matrix(-0.703676 0.703134 -0.703676 -0.703134 297.229 473.648)" fill="#4D5F83"/>
<rect width="182.241" height="3.70032" transform="matrix(-0.703676 0.703134 -0.703676 -0.703134 302.436 478.851)" fill="#4D5F83"/>
<rect width="182.241" height="3.70032" transform="matrix(-0.703676 0.703134 -0.703676 -0.703134 307.644 484.055)" fill="#4D5F83"/>
<rect width="182.241" height="3.70032" transform="matrix(-0.703676 0.703134 -0.703676 -0.703134 312.852 489.259)" fill="#4D5F83"/>
</g>
</g>
<rect opacity="0.5" x="589.855" y="563.21" width="71.3907" height="59.4922" rx="4.1083" transform="rotate(-180 589.855 563.21)" fill="#4D5F83" fill-opacity="0.15" stroke="#4D5F83" stroke-width="1.64332" stroke-miterlimit="16"/>
<g opacity="0.15">
<mask id="mask1" mask-type="alpha" maskUnits="userSpaceOnUse" x="518" y="503" width="72" height="61">
<rect x="589.855" y="563.21" width="71.3907" height="59.4922" rx="4.1083" transform="rotate(-180 589.855 563.21)" fill="#C4C4C4"/>
</mask>
<g mask="url(#mask1)">
<rect width="182.241" height="3.70032" transform="matrix(-0.703677 0.703134 -0.703677 -0.703134 557.72 403.033)" fill="#4D5F83"/>
<rect width="182.241" height="3.70032" transform="matrix(-0.703676 0.703134 -0.703676 -0.703134 562.927 408.237)" fill="#4D5F83"/>
<rect width="182.241" height="3.70032" transform="matrix(-0.703676 0.703134 -0.703676 -0.703134 568.135 413.441)" fill="#4D5F83"/>
<rect width="182.241" height="3.70032" transform="matrix(-0.703676 0.703134 -0.703676 -0.703134 573.343 418.644)" fill="#4D5F83"/>
<rect width="182.241" height="3.70032" transform="matrix(-0.703676 0.703134 -0.703676 -0.703134 578.55 423.848)" fill="#4D5F83"/>
<rect width="182.241" height="3.70032" transform="matrix(-0.703676 0.703134 -0.703676 -0.703134 583.758 429.052)" fill="#4D5F83"/>
<rect width="182.241" height="3.70032" transform="matrix(-0.703676 0.703134 -0.703676 -0.703134 588.966 434.255)" fill="#4D5F83"/>
<rect width="182.241" height="3.70032" transform="matrix(-0.703676 0.703134 -0.703676 -0.703134 594.173 439.459)" fill="#4D5F83"/>
<rect width="182.241" height="3.70032" transform="matrix(-0.703676 0.703134 -0.703676 -0.703134 599.381 444.662)" fill="#4D5F83"/>
<rect width="182.241" height="3.70032" transform="matrix(-0.703676 0.703134 -0.703676 -0.703134 604.588 449.866)" fill="#4D5F83"/>
<rect width="182.241" height="3.70032" transform="matrix(-0.703676 0.703134 -0.703676 -0.703134 609.796 455.07)" fill="#4D5F83"/>
<rect width="182.241" height="3.70032" transform="matrix(-0.703676 0.703134 -0.703676 -0.703134 615.004 460.273)" fill="#4D5F83"/>
<rect width="182.241" height="3.70032" transform="matrix(-0.703676 0.703134 -0.703676 -0.703134 620.212 465.477)" fill="#4D5F83"/>
<rect width="182.241" height="3.70032" transform="matrix(-0.703676 0.703134 -0.703676 -0.703134 625.419 470.681)" fill="#4D5F83"/>
<rect width="182.241" height="3.70032" transform="matrix(-0.703676 0.703134 -0.703676 -0.703134 630.627 475.885)" fill="#4D5F83"/>
<rect width="182.241" height="3.70032" transform="matrix(-0.703676 0.703134 -0.703676 -0.703134 635.835 481.088)" fill="#4D5F83"/>
<rect width="182.241" height="3.70032" transform="matrix(-0.703676 0.703134 -0.703676 -0.703134 641.042 486.292)" fill="#4D5F83"/>
<rect width="182.241" height="3.70032" transform="matrix(-0.703676 0.703134 -0.703676 -0.703134 646.25 491.495)" fill="#4D5F83"/>
<rect width="182.241" height="3.70032" transform="matrix(-0.703676 0.703134 -0.703676 -0.703134 651.457 496.699)" fill="#4D5F83"/>
<rect width="182.241" height="3.70032" transform="matrix(-0.703676 0.703134 -0.703676 -0.703134 656.665 501.903)" fill="#4D5F83"/>
<rect width="182.241" height="3.70032" transform="matrix(-0.703676 0.703134 -0.703676 -0.703134 661.873 507.106)" fill="#4D5F83"/>
</g>
</g>
<path d="M203.413 503.87L202.773 502.03H198.501L197.861 503.87H195.717L199.765 492.67H201.605L205.637 503.87H203.413ZM200.629 495.87L199.109 500.238H202.165L200.661 495.87H200.629Z" fill="#E5EBEF"/>
<path d="M549.748 538.574V527.374H554.5C555.492 527.374 556.287 527.667 556.884 528.254C557.492 528.83 557.796 529.539 557.796 530.382C557.796 531.321 557.391 532.03 556.58 532.51V532.526C557.06 532.729 557.45 533.054 557.748 533.502C558.058 533.939 558.212 534.467 558.212 535.086C558.212 536.153 557.887 537.006 557.236 537.646C556.586 538.265 555.514 538.574 554.02 538.574H549.748ZM551.908 536.574H554.516C555.54 536.574 556.052 536.078 556.052 535.086C556.052 534.627 555.914 534.275 555.636 534.03C555.37 533.774 555.002 533.646 554.532 533.646H551.908V536.574ZM551.908 531.886H554.228C554.666 531.886 555.007 531.785 555.252 531.582C555.508 531.369 555.636 531.059 555.636 530.654C555.636 530.227 555.514 529.907 555.268 529.694C555.023 529.481 554.676 529.374 554.228 529.374H551.908V531.886Z" fill="#E5EBEF"/>
<path d="M286.102 39.4538L285.576 37.9419H282.066L281.54 39.4538H279.778L283.104 30.2512H284.616L287.929 39.4538H286.102ZM283.814 32.8805L282.565 36.4695H285.076L283.841 32.8805H283.814ZM289.012 36.9691V33.9322H287.934V32.4861H289.051V30.7771H290.668V32.4861H292.43V33.9322H290.695V36.8113C290.695 37.1794 290.756 37.438 290.879 37.587C291.001 37.736 291.251 37.8105 291.628 37.8105H292.193V39.4538H291.47C290.532 39.4538 289.888 39.2566 289.538 38.8622C289.187 38.4678 289.012 37.8368 289.012 36.9691ZM293.967 36.9691V33.9322H292.889V32.4861H294.007V30.7771H295.624V32.4861H297.386V33.9322H295.65V36.8113C295.65 37.1794 295.712 37.438 295.834 37.587C295.957 37.736 296.207 37.8105 296.584 37.8105H297.149V39.4538H296.426C295.488 39.4538 294.844 39.2566 294.493 38.8622C294.143 38.4678 293.967 37.8368 293.967 36.9691ZM302.538 39.4538V38.7833H302.512C302.495 38.8096 302.473 38.8447 302.446 38.8885C302.42 38.9236 302.354 38.9893 302.249 39.0857C302.144 39.1821 302.026 39.2697 301.894 39.3486C301.763 39.4275 301.583 39.4976 301.355 39.559C301.127 39.6203 300.882 39.651 300.619 39.651C299.778 39.651 299.147 39.4538 298.726 39.0594C298.314 38.6562 298.108 38.1654 298.108 37.587C298.108 36.9822 298.288 36.5221 298.647 36.2066C299.006 35.8911 299.615 35.6281 300.474 35.4178C301.272 35.225 301.771 35.0716 301.973 34.9577C302.175 34.8437 302.275 34.6816 302.275 34.4713C302.275 34.2609 302.175 34.0856 301.973 33.9454C301.78 33.8052 301.487 33.735 301.092 33.735C300.628 33.735 300.295 33.8402 300.093 34.0506C299.892 34.2521 299.734 34.5282 299.62 34.8788L298.2 34.2872C298.367 33.7 298.691 33.2223 299.173 32.8542C299.655 32.4774 300.286 32.2889 301.066 32.2889C301.916 32.2889 302.613 32.5124 303.156 32.9594C303.7 33.4064 303.971 34.0988 303.971 35.0366V39.4538H302.538ZM300.816 36.601C300.378 36.7062 300.089 36.8332 299.949 36.9822C299.817 37.1225 299.751 37.2846 299.751 37.4687C299.751 37.9419 300.093 38.1786 300.777 38.1786C301.294 38.1786 301.679 38.0822 301.934 37.8894C302.197 37.6878 302.328 37.4424 302.328 37.1531V35.9437H302.302C302.267 36.0138 302.227 36.0707 302.183 36.1146C302.148 36.1496 302.017 36.2154 301.789 36.3118C301.561 36.3994 301.237 36.4958 300.816 36.601ZM309.861 36.6404L311.478 37.0611C311.32 37.8937 310.979 38.5335 310.453 38.9805C309.927 39.4275 309.265 39.651 308.468 39.651C307.521 39.651 306.741 39.3267 306.128 38.6781C305.523 38.0296 305.22 37.1269 305.22 35.97C305.22 34.8218 305.532 33.9235 306.154 33.2749C306.785 32.6176 307.561 32.2889 308.481 32.2889C309.261 32.2889 309.914 32.5168 310.44 32.9725C310.966 33.4283 311.29 34.0374 311.413 34.7999L309.822 35.1023C309.655 34.2521 309.208 33.8271 308.481 33.8271C307.999 33.8271 307.613 34.0111 307.324 34.3792C307.043 34.7386 306.903 35.2688 306.903 35.97C306.903 36.6711 307.043 37.2057 307.324 37.5738C307.604 37.9332 307.99 38.1128 308.481 38.1128C309.252 38.1128 309.712 37.622 309.861 36.6404ZM312.793 39.4538V29.8568H314.502V35.3652H314.528L317.066 32.4861H319.209L316.698 35.3126L319.432 39.4538H317.539L315.409 36.2723H315.383L314.502 37.2715V39.4538H312.793ZM324.621 37.048L325.817 38.0997C325.107 39.1339 324.147 39.651 322.938 39.651C321.965 39.651 321.172 39.3179 320.558 38.6519C319.945 37.977 319.638 37.083 319.638 35.97C319.638 34.8569 319.94 33.9673 320.545 33.3012C321.159 32.6264 321.93 32.2889 322.859 32.2889C323.788 32.2889 324.55 32.6264 325.146 33.3012C325.751 33.9673 326.054 34.8569 326.054 35.97V36.4827H321.373C321.4 37.0173 321.544 37.4292 321.807 37.7185C322.079 37.9989 322.447 38.1391 322.912 38.1391C323.306 38.1391 323.63 38.0427 323.884 37.8499C324.147 37.6483 324.393 37.381 324.621 37.048ZM321.373 35.2075H324.397C324.353 34.7605 324.2 34.4143 323.937 34.1689C323.674 33.9147 323.315 33.7876 322.859 33.7876C322.438 33.7876 322.092 33.9235 321.82 34.1952C321.557 34.4669 321.408 34.8043 321.373 35.2075ZM327.429 39.4538V32.4861H329.046V33.2223H329.072C329.204 32.9594 329.397 32.7491 329.651 32.5913C329.914 32.4335 330.198 32.3547 330.505 32.3547C330.724 32.3547 330.935 32.3985 331.136 32.4861L330.873 34.1426C330.681 34.0725 330.501 34.0374 330.334 34.0374C329.537 34.0374 329.138 34.5677 329.138 35.6281V39.4538H327.429ZM331.73 37.1531L333.268 36.7588C333.391 37.7316 333.913 38.218 334.833 38.218C335.254 38.218 335.587 38.1523 335.832 38.0208C336.086 37.8806 336.213 37.6878 336.213 37.4424C336.213 37.2408 336.117 37.0918 335.924 36.9954C335.731 36.8902 335.328 36.75 334.715 36.5747C334.548 36.5309 334.421 36.4958 334.333 36.4695C333.527 36.2417 332.935 35.9743 332.559 35.6676C332.182 35.3521 331.993 34.9358 331.993 34.4187C331.993 33.8402 332.225 33.3406 332.69 32.92C333.163 32.4993 333.807 32.2889 334.623 32.2889C336.183 32.2889 337.16 32.9725 337.554 34.3398L336.134 34.7736C336.012 34.4406 335.836 34.1776 335.609 33.9848C335.389 33.792 335.065 33.6956 334.636 33.6956C334.303 33.6956 334.035 33.7613 333.834 33.8928C333.641 34.0155 333.545 34.1645 333.545 34.3398C333.545 34.5326 333.658 34.686 333.886 34.7999C334.123 34.9051 334.706 35.0891 335.635 35.3521C336.45 35.5712 337.002 35.8516 337.291 36.1935C337.589 36.5265 337.738 36.956 337.738 37.4818C337.738 38.0427 337.493 38.5467 337.002 38.9937C336.52 39.4319 335.819 39.651 334.899 39.651C333.935 39.651 333.19 39.41 332.664 38.9279C332.147 38.4371 331.835 37.8455 331.73 37.1531Z" fill="#FF5859"/>
<path d="M339.712 665.763H340.935C341.251 665.763 341.527 665.728 341.763 665.658C342 665.579 342.223 665.439 342.434 665.237C342.644 665.035 342.806 664.733 342.92 664.33C343.034 663.918 343.091 663.405 343.091 662.792C343.091 661.766 342.898 661.021 342.513 660.557C342.136 660.083 341.636 659.847 341.014 659.847H339.712V665.763ZM337.938 667.406V658.204H341.014C341.54 658.204 342.035 658.296 342.499 658.48C342.964 658.664 343.385 658.935 343.762 659.295C344.138 659.654 344.436 660.136 344.656 660.741C344.883 661.337 344.997 662.02 344.997 662.792C344.997 663.633 344.883 664.365 344.656 664.987C344.428 665.609 344.117 666.091 343.722 666.433C343.328 666.766 342.898 667.012 342.434 667.169C341.978 667.327 341.478 667.406 340.935 667.406H337.938ZM350.905 665L352.101 666.052C351.391 667.086 350.431 667.603 349.222 667.603C348.249 667.603 347.456 667.27 346.842 666.604C346.229 665.929 345.922 665.035 345.922 663.922C345.922 662.809 346.224 661.92 346.829 661.254C347.443 660.579 348.214 660.241 349.143 660.241C350.072 660.241 350.835 660.579 351.431 661.254C352.035 661.92 352.338 662.809 352.338 663.922V664.435H347.657C347.684 664.97 347.828 665.382 348.091 665.671C348.363 665.951 348.731 666.091 349.196 666.091C349.59 666.091 349.914 665.995 350.168 665.802C350.431 665.601 350.677 665.333 350.905 665ZM347.657 663.16H350.681C350.637 662.713 350.484 662.367 350.221 662.121C349.958 661.867 349.599 661.74 349.143 661.74C348.722 661.74 348.376 661.876 348.104 662.148C347.841 662.419 347.693 662.757 347.657 663.16ZM354.068 667.406V661.885H352.99V660.438H354.107V659.452C354.107 658.856 354.261 658.436 354.568 658.19C354.883 657.936 355.339 657.809 355.935 657.809H357.302V659.321H356.29C356.079 659.321 355.93 659.365 355.843 659.452C355.764 659.531 355.724 659.672 355.724 659.873V660.438H357.486V661.885H355.777V667.406H354.068ZM362.934 665L364.131 666.052C363.421 667.086 362.461 667.603 361.251 667.603C360.279 667.603 359.485 667.27 358.872 666.604C358.258 665.929 357.952 665.035 357.952 663.922C357.952 662.809 358.254 661.92 358.859 661.254C359.472 660.579 360.244 660.241 361.173 660.241C362.102 660.241 362.864 660.579 363.46 661.254C364.065 661.92 364.367 662.809 364.367 663.922V664.435H359.687C359.713 664.97 359.858 665.382 360.121 665.671C360.393 665.951 360.761 666.091 361.225 666.091C361.62 666.091 361.944 665.995 362.198 665.802C362.461 665.601 362.706 665.333 362.934 665ZM359.687 663.16H362.711C362.667 662.713 362.514 662.367 362.251 662.121C361.988 661.867 361.628 661.74 361.173 661.74C360.752 661.74 360.406 661.876 360.134 662.148C359.871 662.419 359.722 662.757 359.687 663.16ZM365.743 667.406V660.438H367.386V661.109H367.412C367.605 660.864 367.868 660.658 368.201 660.491C368.534 660.325 368.885 660.241 369.253 660.241C370.024 660.241 370.629 660.474 371.067 660.938C371.505 661.394 371.724 662.029 371.724 662.844V667.406H370.015V663.265C370.015 662.783 369.923 662.424 369.739 662.187C369.555 661.942 369.24 661.819 368.793 661.819C368.372 661.819 368.043 661.942 367.807 662.187C367.57 662.424 367.452 662.743 367.452 663.147V667.406H365.743ZM377.822 664.553V663.278C377.822 662.857 377.686 662.502 377.415 662.213C377.152 661.924 376.788 661.779 376.324 661.779C375.824 661.779 375.434 661.959 375.153 662.318C374.882 662.678 374.746 663.212 374.746 663.922C374.746 664.623 374.882 665.158 375.153 665.526C375.434 665.886 375.824 666.065 376.324 666.065C376.788 666.065 377.152 665.921 377.415 665.631C377.686 665.333 377.822 664.974 377.822 664.553ZM377.927 667.406V666.736H377.901C377.857 666.797 377.792 666.876 377.704 666.972C377.625 667.069 377.423 667.2 377.099 667.367C376.784 667.524 376.437 667.603 376.061 667.603C375.14 667.603 374.404 667.27 373.852 666.604C373.309 665.938 373.037 665.044 373.037 663.922C373.037 662.792 373.335 661.898 373.931 661.24C374.527 660.574 375.228 660.241 376.034 660.241C376.402 660.241 376.731 660.316 377.02 660.465C377.318 660.605 377.52 660.745 377.625 660.885L377.796 661.109H377.822V657.809H379.531V667.406H377.927ZM385.889 665L387.086 666.052C386.376 667.086 385.416 667.603 384.207 667.603C383.234 667.603 382.441 667.27 381.827 666.604C381.214 665.929 380.907 665.035 380.907 663.922C380.907 662.809 381.209 661.92 381.814 661.254C382.427 660.579 383.199 660.241 384.128 660.241C385.057 660.241 385.819 660.579 386.415 661.254C387.02 661.92 387.322 662.809 387.322 663.922V664.435H382.642C382.668 664.97 382.813 665.382 383.076 665.671C383.348 665.951 383.716 666.091 384.18 666.091C384.575 666.091 384.899 665.995 385.153 665.802C385.416 665.601 385.662 665.333 385.889 665ZM382.642 663.16H385.666C385.622 662.713 385.469 662.367 385.206 662.121C384.943 661.867 384.583 661.74 384.128 661.74C383.707 661.74 383.361 661.876 383.089 662.148C382.826 662.419 382.677 662.757 382.642 663.16ZM388.698 667.406V660.438H390.315V661.175H390.341C390.472 660.912 390.665 660.701 390.919 660.544C391.182 660.386 391.467 660.307 391.774 660.307C391.993 660.307 392.203 660.351 392.405 660.438L392.142 662.095C391.949 662.025 391.77 661.99 391.603 661.99C390.806 661.99 390.407 662.52 390.407 663.58V667.406H388.698ZM392.999 665.105L394.537 664.711C394.66 665.684 395.181 666.17 396.102 666.17C396.522 666.17 396.855 666.105 397.101 665.973C397.355 665.833 397.482 665.64 397.482 665.395C397.482 665.193 397.386 665.044 397.193 664.948C397 664.843 396.597 664.702 395.983 664.527C395.817 664.483 395.69 664.448 395.602 664.422C394.796 664.194 394.204 663.927 393.827 663.62C393.45 663.304 393.262 662.888 393.262 662.371C393.262 661.793 393.494 661.293 393.959 660.872C394.432 660.452 395.076 660.241 395.891 660.241C397.451 660.241 398.429 660.925 398.823 662.292L397.403 662.726C397.28 662.393 397.105 662.13 396.877 661.937C396.658 661.744 396.334 661.648 395.904 661.648C395.571 661.648 395.304 661.714 395.103 661.845C394.91 661.968 394.813 662.117 394.813 662.292C394.813 662.485 394.927 662.638 395.155 662.752C395.392 662.857 395.975 663.041 396.904 663.304C397.719 663.524 398.271 663.804 398.56 664.146C398.858 664.479 399.007 664.908 399.007 665.434C399.007 665.995 398.762 666.499 398.271 666.946C397.789 667.384 397.088 667.603 396.167 667.603C395.203 667.603 394.458 667.362 393.933 666.88C393.415 666.389 393.104 665.798 392.999 665.105Z" fill="#24E8AD"/>
</g>
<defs>
<clipPath id="clip0">
<path d="M708 708L0 708L0 0L708 0L708 708Z" fill="white"/>
</clipPath>
</defs>
</svg>
