<svg width="708" height="708" viewBox="0 0 708 708" fill="none" xmlns="http://www.w3.org/2000/svg">
<g clip-path="url(#clip0)">
<path d="M360.436 87L359.916 85.505H356.445L355.925 87H354.183L357.472 77.9H358.967L362.243 87H360.436ZM358.174 80.5L356.939 84.049H359.422L358.2 80.5H358.174ZM363.314 84.543V81.54H362.248V80.11H363.353V78.42H364.952V80.11H366.694V81.54H364.978V84.387C364.978 84.751 365.038 85.0067 365.16 85.154C365.281 85.3013 365.528 85.375 365.901 85.375H366.46V87H365.745C364.817 87 364.18 86.805 363.834 86.415C363.487 86.025 363.314 85.401 363.314 84.543ZM368.214 84.543V81.54H367.148V80.11H368.253V78.42H369.852V80.11H371.594V81.54H369.878V84.387C369.878 84.751 369.939 85.0067 370.06 85.154C370.181 85.3013 370.428 85.375 370.801 85.375H371.36V87H370.645C369.718 87 369.081 86.805 368.734 86.415C368.387 86.025 368.214 85.401 368.214 84.543ZM376.69 87V86.337H376.664C376.646 86.363 376.625 86.3977 376.599 86.441C376.573 86.4757 376.508 86.5407 376.404 86.636C376.3 86.7313 376.183 86.818 376.053 86.896C375.923 86.974 375.745 87.0433 375.52 87.104C375.294 87.1647 375.052 87.195 374.792 87.195C373.96 87.195 373.336 87 372.92 86.61C372.512 86.2113 372.309 85.726 372.309 85.154C372.309 84.556 372.486 84.101 372.842 83.789C373.197 83.477 373.799 83.217 374.649 83.009C375.437 82.8183 375.931 82.6667 376.131 82.554C376.33 82.4413 376.43 82.281 376.43 82.073C376.43 81.865 376.33 81.6917 376.131 81.553C375.94 81.4143 375.65 81.345 375.26 81.345C374.8 81.345 374.471 81.449 374.272 81.657C374.072 81.8563 373.916 82.1293 373.804 82.476L372.4 81.891C372.564 81.3103 372.885 80.838 373.362 80.474C373.838 80.1013 374.462 79.915 375.234 79.915C376.074 79.915 376.763 80.136 377.301 80.578C377.838 81.02 378.107 81.7047 378.107 82.632V87H376.69ZM374.987 84.179C374.553 84.283 374.267 84.4087 374.129 84.556C373.999 84.6947 373.934 84.855 373.934 85.037C373.934 85.505 374.272 85.739 374.948 85.739C375.459 85.739 375.84 85.6437 376.092 85.453C376.352 85.2537 376.482 85.011 376.482 84.725V83.529H376.456C376.421 83.5983 376.382 83.6547 376.339 83.698C376.304 83.7327 376.174 83.7977 375.949 83.893C375.723 83.9797 375.403 84.075 374.987 84.179ZM383.931 84.218L385.53 84.634C385.374 85.4573 385.036 86.09 384.516 86.532C383.996 86.974 383.341 87.195 382.553 87.195C381.617 87.195 380.845 86.8743 380.239 86.233C379.641 85.5917 379.342 84.699 379.342 83.555C379.342 82.4197 379.649 81.5313 380.265 80.89C380.889 80.24 381.656 79.915 382.566 79.915C383.337 79.915 383.983 80.1403 384.503 80.591C385.023 81.0417 385.343 81.644 385.465 82.398L383.892 82.697C383.727 81.8563 383.285 81.436 382.566 81.436C382.089 81.436 381.708 81.618 381.422 81.982C381.144 82.3373 381.006 82.8617 381.006 83.555C381.006 84.2483 381.144 84.777 381.422 85.141C381.699 85.4963 382.08 85.674 382.566 85.674C383.328 85.674 383.783 85.1887 383.931 84.218ZM386.83 87V77.51H388.52V82.957H388.546L391.055 80.11H393.174L390.691 82.905L393.395 87H391.523L389.417 83.854H389.391L388.52 84.842V87H386.83ZM398.526 84.621L399.709 85.661C399.007 86.6837 398.058 87.195 396.862 87.195C395.9 87.195 395.115 86.8657 394.509 86.207C393.902 85.5397 393.599 84.6557 393.599 83.555C393.599 82.4543 393.898 81.5747 394.496 80.916C395.102 80.2487 395.865 79.915 396.784 79.915C397.702 79.915 398.456 80.2487 399.046 80.916C399.644 81.5747 399.943 82.4543 399.943 83.555V84.062H395.315C395.341 84.5907 395.484 84.998 395.744 85.284C396.012 85.5613 396.376 85.7 396.836 85.7C397.226 85.7 397.546 85.6047 397.798 85.414C398.058 85.2147 398.3 84.9503 398.526 84.621ZM395.315 82.801H398.305C398.261 82.359 398.11 82.0167 397.85 81.774C397.59 81.5227 397.234 81.397 396.784 81.397C396.368 81.397 396.025 81.5313 395.757 81.8C395.497 82.0687 395.349 82.4023 395.315 82.801ZM401.303 87V80.11H402.902V80.838H402.928C403.058 80.578 403.248 80.37 403.5 80.214C403.76 80.058 404.041 79.98 404.345 79.98C404.561 79.98 404.769 80.0233 404.969 80.11L404.709 81.748C404.518 81.6787 404.34 81.644 404.176 81.644C403.387 81.644 402.993 82.1683 402.993 83.217V87H401.303ZM405.556 84.725L407.077 84.335C407.198 85.297 407.714 85.778 408.624 85.778C409.04 85.778 409.369 85.713 409.612 85.583C409.863 85.4443 409.989 85.2537 409.989 85.011C409.989 84.8117 409.894 84.6643 409.703 84.569C409.512 84.465 409.114 84.3263 408.507 84.153C408.342 84.1097 408.217 84.075 408.13 84.049C407.333 83.8237 406.748 83.5593 406.375 83.256C406.002 82.944 405.816 82.5323 405.816 82.021C405.816 81.449 406.046 80.955 406.505 80.539C406.973 80.123 407.61 79.915 408.416 79.915C409.959 79.915 410.925 80.591 411.315 81.943L409.911 82.372C409.79 82.0427 409.616 81.7827 409.391 81.592C409.174 81.4013 408.854 81.306 408.429 81.306C408.1 81.306 407.835 81.371 407.636 81.501C407.445 81.6223 407.35 81.7697 407.35 81.943C407.35 82.1337 407.463 82.2853 407.688 82.398C407.922 82.502 408.498 82.684 409.417 82.944C410.223 83.1607 410.769 83.438 411.055 83.776C411.35 84.1053 411.497 84.53 411.497 85.05C411.497 85.6047 411.254 86.103 410.769 86.545C410.292 86.9783 409.599 87.195 408.689 87.195C407.736 87.195 406.999 86.9567 406.479 86.48C405.968 85.9947 405.66 85.4097 405.556 84.725Z" fill="#FF5859"/>
<path d="M342.888 631.375H344.097C344.409 631.375 344.682 631.34 344.916 631.271C345.15 631.193 345.371 631.054 345.579 630.855C345.787 630.656 345.948 630.357 346.06 629.958C346.173 629.551 346.229 629.044 346.229 628.437C346.229 627.423 346.039 626.686 345.657 626.227C345.285 625.759 344.791 625.525 344.175 625.525H342.888V631.375ZM341.133 633V623.9H344.175C344.695 623.9 345.185 623.991 345.644 624.173C346.104 624.355 346.52 624.624 346.892 624.979C347.265 625.334 347.56 625.811 347.776 626.409C348.002 626.998 348.114 627.674 348.114 628.437C348.114 629.269 348.002 629.993 347.776 630.608C347.551 631.223 347.243 631.7 346.853 632.038C346.463 632.367 346.039 632.61 345.579 632.766C345.129 632.922 344.635 633 344.097 633H341.133ZM353.956 630.621L355.139 631.661C354.437 632.684 353.488 633.195 352.292 633.195C351.33 633.195 350.545 632.866 349.939 632.207C349.332 631.54 349.029 630.656 349.029 629.555C349.029 628.454 349.328 627.575 349.926 626.916C350.532 626.249 351.295 625.915 352.214 625.915C353.132 625.915 353.886 626.249 354.476 626.916C355.074 627.575 355.373 628.454 355.373 629.555V630.062H350.745C350.771 630.591 350.914 630.998 351.174 631.284C351.442 631.561 351.806 631.7 352.266 631.7C352.656 631.7 352.976 631.605 353.228 631.414C353.488 631.215 353.73 630.95 353.956 630.621ZM350.745 628.801H353.735C353.691 628.359 353.54 628.017 353.28 627.774C353.02 627.523 352.664 627.397 352.214 627.397C351.798 627.397 351.455 627.531 351.187 627.8C350.927 628.069 350.779 628.402 350.745 628.801ZM357.084 633V627.54H356.018V626.11H357.123V625.135C357.123 624.546 357.274 624.13 357.578 623.887C357.89 623.636 358.34 623.51 358.93 623.51H360.282V625.005H359.281C359.073 625.005 358.925 625.048 358.839 625.135C358.761 625.213 358.722 625.352 358.722 625.551V626.11H360.464V627.54H358.774V633H357.084ZM365.851 630.621L367.034 631.661C366.332 632.684 365.383 633.195 364.187 633.195C363.225 633.195 362.441 632.866 361.834 632.207C361.228 631.54 360.924 630.656 360.924 629.555C360.924 628.454 361.223 627.575 361.821 626.916C362.428 626.249 363.191 625.915 364.109 625.915C365.028 625.915 365.782 626.249 366.371 626.916C366.969 627.575 367.268 628.454 367.268 629.555V630.062H362.64C362.666 630.591 362.809 630.998 363.069 631.284C363.338 631.561 363.702 631.7 364.161 631.7C364.551 631.7 364.872 631.605 365.123 631.414C365.383 631.215 365.626 630.95 365.851 630.621ZM362.64 628.801H365.63C365.587 628.359 365.435 628.017 365.175 627.774C364.915 627.523 364.56 627.397 364.109 627.397C363.693 627.397 363.351 627.531 363.082 627.8C362.822 628.069 362.675 628.402 362.64 628.801ZM368.628 633V626.11H370.253V626.773H370.279C370.47 626.53 370.73 626.327 371.059 626.162C371.389 625.997 371.735 625.915 372.099 625.915C372.862 625.915 373.46 626.145 373.893 626.604C374.327 627.055 374.543 627.683 374.543 628.489V633H372.853V628.905C372.853 628.428 372.762 628.073 372.58 627.839C372.398 627.596 372.086 627.475 371.644 627.475C371.228 627.475 370.903 627.596 370.669 627.839C370.435 628.073 370.318 628.389 370.318 628.788V633H368.628ZM380.573 630.179V628.918C380.573 628.502 380.439 628.151 380.17 627.865C379.91 627.579 379.551 627.436 379.091 627.436C378.597 627.436 378.212 627.614 377.934 627.969C377.666 628.324 377.531 628.853 377.531 629.555C377.531 630.248 377.666 630.777 377.934 631.141C378.212 631.496 378.597 631.674 379.091 631.674C379.551 631.674 379.91 631.531 380.17 631.245C380.439 630.95 380.573 630.595 380.573 630.179ZM380.677 633V632.337H380.651C380.608 632.398 380.543 632.476 380.456 632.571C380.378 632.666 380.179 632.796 379.858 632.961C379.546 633.117 379.204 633.195 378.831 633.195C377.921 633.195 377.193 632.866 376.647 632.207C376.11 631.548 375.841 630.664 375.841 629.555C375.841 628.437 376.136 627.553 376.725 626.903C377.315 626.244 378.008 625.915 378.805 625.915C379.169 625.915 379.494 625.989 379.78 626.136C380.075 626.275 380.274 626.413 380.378 626.552L380.547 626.773H380.573V623.51H382.263V633H380.677ZM388.55 630.621L389.733 631.661C389.031 632.684 388.082 633.195 386.886 633.195C385.924 633.195 385.14 632.866 384.533 632.207C383.927 631.54 383.623 630.656 383.623 629.555C383.623 628.454 383.922 627.575 384.52 626.916C385.127 626.249 385.89 625.915 386.808 625.915C387.727 625.915 388.481 626.249 389.07 626.916C389.668 627.575 389.967 628.454 389.967 629.555V630.062H385.339C385.365 630.591 385.508 630.998 385.768 631.284C386.037 631.561 386.401 631.7 386.86 631.7C387.25 631.7 387.571 631.605 387.822 631.414C388.082 631.215 388.325 630.95 388.55 630.621ZM385.339 628.801H388.329C388.286 628.359 388.134 628.017 387.874 627.774C387.614 627.523 387.259 627.397 386.808 627.397C386.392 627.397 386.05 627.531 385.781 627.8C385.521 628.069 385.374 628.402 385.339 628.801ZM391.327 633V626.11H392.926V626.838H392.952C393.082 626.578 393.273 626.37 393.524 626.214C393.784 626.058 394.066 625.98 394.369 625.98C394.586 625.98 394.794 626.023 394.993 626.11L394.733 627.748C394.543 627.679 394.365 627.644 394.2 627.644C393.412 627.644 393.017 628.168 393.017 629.217V633H391.327ZM395.581 630.725L397.102 630.335C397.223 631.297 397.739 631.778 398.649 631.778C399.065 631.778 399.394 631.713 399.637 631.583C399.888 631.444 400.014 631.254 400.014 631.011C400.014 630.812 399.919 630.664 399.728 630.569C399.537 630.465 399.139 630.326 398.532 630.153C398.367 630.11 398.242 630.075 398.155 630.049C397.358 629.824 396.773 629.559 396.4 629.256C396.027 628.944 395.841 628.532 395.841 628.021C395.841 627.449 396.071 626.955 396.53 626.539C396.998 626.123 397.635 625.915 398.441 625.915C399.984 625.915 400.95 626.591 401.34 627.943L399.936 628.372C399.815 628.043 399.641 627.783 399.416 627.592C399.199 627.401 398.879 627.306 398.454 627.306C398.125 627.306 397.86 627.371 397.661 627.501C397.47 627.622 397.375 627.77 397.375 627.943C397.375 628.134 397.488 628.285 397.713 628.398C397.947 628.502 398.523 628.684 399.442 628.944C400.248 629.161 400.794 629.438 401.08 629.776C401.375 630.105 401.522 630.53 401.522 631.05C401.522 631.605 401.279 632.103 400.794 632.545C400.317 632.978 399.624 633.195 398.714 633.195C397.761 633.195 397.024 632.957 396.504 632.48C395.993 631.995 395.685 631.41 395.581 630.725Z" fill="#24E8CC"/>
<path d="M549.489 199V192.098H552.418C553.029 192.098 553.519 192.279 553.887 192.64C554.261 192.995 554.449 193.432 554.449 193.952C554.449 194.53 554.199 194.967 553.699 195.263V195.273C553.995 195.398 554.235 195.598 554.419 195.874C554.61 196.144 554.705 196.469 554.705 196.851C554.705 197.508 554.505 198.034 554.104 198.428C553.703 198.809 553.042 199 552.122 199H549.489ZM550.82 197.768H552.427C553.059 197.768 553.374 197.462 553.374 196.851C553.374 196.568 553.289 196.351 553.118 196.2C552.953 196.042 552.727 195.963 552.437 195.963H550.82V197.768ZM550.82 194.879H552.25C552.519 194.879 552.73 194.816 552.881 194.691C553.039 194.56 553.118 194.369 553.118 194.119C553.118 193.856 553.042 193.659 552.891 193.528C552.74 193.396 552.526 193.331 552.25 193.331H550.82V194.879ZM558.357 199V192.098H559.688V197.768H562.538V199H558.357ZM564.604 197.58C564.815 197.856 565.104 197.994 565.472 197.994C565.84 197.994 566.129 197.856 566.34 197.58C566.55 197.298 566.655 196.9 566.655 196.387C566.655 195.874 566.547 195.48 566.33 195.204C566.119 194.921 565.833 194.78 565.472 194.78C565.11 194.78 564.821 194.918 564.604 195.194C564.394 195.47 564.289 195.868 564.289 196.387C564.289 196.906 564.394 197.304 564.604 197.58ZM567.227 198.418C566.767 198.905 566.182 199.148 565.472 199.148C564.762 199.148 564.177 198.905 563.717 198.418C563.257 197.932 563.027 197.255 563.027 196.387C563.027 195.533 563.263 194.859 563.736 194.366C564.21 193.873 564.788 193.626 565.472 193.626C566.155 193.626 566.734 193.873 567.207 194.366C567.68 194.859 567.917 195.533 567.917 196.387C567.917 197.255 567.687 197.932 567.227 198.418ZM570.238 195.904V196.86C570.238 197.176 570.337 197.445 570.534 197.669C570.738 197.886 571.014 197.994 571.362 197.994C571.737 197.994 572.026 197.86 572.23 197.59C572.44 197.314 572.545 196.913 572.545 196.387C572.545 195.855 572.44 195.454 572.23 195.184C572.026 194.915 571.737 194.78 571.362 194.78C571.014 194.78 570.738 194.888 570.534 195.105C570.337 195.322 570.238 195.588 570.238 195.904ZM568.956 199V191.802H570.238V194.277H570.258C570.271 194.257 570.287 194.234 570.307 194.208C570.327 194.175 570.376 194.123 570.455 194.05C570.541 193.978 570.629 193.912 570.721 193.853C570.82 193.794 570.945 193.741 571.096 193.695C571.254 193.649 571.418 193.626 571.589 193.626C572.233 193.626 572.766 193.883 573.186 194.395C573.614 194.902 573.827 195.565 573.827 196.387C573.827 197.229 573.62 197.899 573.206 198.399C572.798 198.898 572.25 199.148 571.559 199.148C571.277 199.148 571.02 199.095 570.79 198.99C570.56 198.878 570.403 198.77 570.317 198.665L570.179 198.497H570.159V199H568.956ZM576.141 195.904V196.86C576.141 197.176 576.239 197.445 576.436 197.669C576.64 197.886 576.916 197.994 577.265 197.994C577.639 197.994 577.929 197.86 578.132 197.59C578.343 197.314 578.448 196.913 578.448 196.387C578.448 195.855 578.343 195.454 578.132 195.184C577.929 194.915 577.639 194.78 577.265 194.78C576.916 194.78 576.64 194.888 576.436 195.105C576.239 195.322 576.141 195.588 576.141 195.904ZM574.859 199V191.802H576.141V194.277H576.16C576.174 194.257 576.19 194.234 576.21 194.208C576.229 194.175 576.279 194.123 576.358 194.05C576.443 193.978 576.532 193.912 576.624 193.853C576.722 193.794 576.847 193.741 576.998 193.695C577.156 193.649 577.321 193.626 577.491 193.626C578.136 193.626 578.668 193.883 579.089 194.395C579.516 194.902 579.73 195.565 579.73 196.387C579.73 197.229 579.523 197.899 579.108 198.399C578.701 198.898 578.152 199.148 577.462 199.148C577.179 199.148 576.923 199.095 576.693 198.99C576.463 198.878 576.305 198.77 576.22 198.665L576.081 198.497H576.062V199H574.859ZM580.973 201.218L582.018 198.744L579.928 193.774H581.229L582.58 197.314H582.6L583.951 193.774H585.252L582.245 201.218H580.973Z" fill="#7986A3"/>
<path d="M481.726 246V239.098H484.654C485.266 239.098 485.755 239.279 486.123 239.64C486.498 239.995 486.685 240.432 486.685 240.952C486.685 241.53 486.436 241.967 485.936 242.263V242.273C486.232 242.398 486.472 242.598 486.656 242.874C486.846 243.144 486.942 243.469 486.942 243.851C486.942 244.508 486.741 245.034 486.34 245.428C485.939 245.809 485.279 246 484.358 246H481.726ZM483.057 244.768H484.664C485.295 244.768 485.611 244.462 485.611 243.851C485.611 243.568 485.525 243.351 485.354 243.2C485.19 243.042 484.963 242.963 484.674 242.963H483.057V244.768ZM483.057 241.879H484.487C484.756 241.879 484.967 241.816 485.118 241.691C485.275 241.56 485.354 241.369 485.354 241.119C485.354 240.856 485.279 240.659 485.128 240.528C484.976 240.396 484.763 240.331 484.487 240.331H483.057V241.879ZM490.594 246V239.098H491.925V244.768H494.775V246H490.594ZM495.608 246V240.774H496.89V246H495.608ZM495.608 240.015V238.802H496.89V240.015H495.608ZM498.266 246V240.774H499.498V241.277H499.518C499.663 241.093 499.86 240.939 500.11 240.814C500.359 240.689 500.622 240.626 500.899 240.626C501.477 240.626 501.931 240.801 502.259 241.149C502.588 241.491 502.752 241.967 502.752 242.579V246H501.47V242.894C501.47 242.533 501.401 242.263 501.263 242.086C501.125 241.902 500.889 241.81 500.553 241.81C500.238 241.81 499.991 241.902 499.814 242.086C499.636 242.263 499.548 242.503 499.548 242.805V246H498.266ZM504.082 246V238.802H505.364V242.934H505.383L507.286 240.774H508.893L507.01 242.894L509.061 246H507.641L506.044 243.614H506.024L505.364 244.363V246H504.082Z" fill="#7986A3"/>
<path d="M359.285 256V249.098H362.214C362.825 249.098 363.315 249.279 363.683 249.64C364.058 249.995 364.245 250.432 364.245 250.952C364.245 251.53 363.995 251.967 363.496 252.263V252.273C363.791 252.398 364.031 252.598 364.215 252.874C364.406 253.144 364.501 253.469 364.501 253.851C364.501 254.508 364.301 255.034 363.9 255.428C363.499 255.809 362.838 256 361.918 256H359.285ZM360.617 254.768H362.224C362.855 254.768 363.17 254.462 363.17 253.851C363.17 253.568 363.085 253.351 362.914 253.2C362.75 253.042 362.523 252.963 362.234 252.963H360.617V254.768ZM360.617 251.879H362.046C362.316 251.879 362.526 251.816 362.677 251.691C362.835 251.56 362.914 251.369 362.914 251.119C362.914 250.856 362.838 250.659 362.687 250.528C362.536 250.396 362.322 250.331 362.046 250.331H360.617V251.879ZM366.823 254.58C367.033 254.856 367.322 254.994 367.69 254.994C368.058 254.994 368.348 254.856 368.558 254.58C368.768 254.298 368.873 253.9 368.873 253.387C368.873 252.874 368.765 252.48 368.548 252.204C368.338 251.921 368.052 251.78 367.69 251.78C367.329 251.78 367.039 251.918 366.823 252.194C366.612 252.47 366.507 252.868 366.507 253.387C366.507 253.906 366.612 254.304 366.823 254.58ZM369.445 255.418C368.985 255.905 368.4 256.148 367.69 256.148C366.98 256.148 366.395 255.905 365.935 255.418C365.475 254.932 365.245 254.255 365.245 253.387C365.245 252.533 365.482 251.859 365.955 251.366C366.428 250.873 367.007 250.626 367.69 250.626C368.374 250.626 368.952 250.873 369.426 251.366C369.899 251.859 370.135 252.533 370.135 253.387C370.135 254.255 369.905 254.932 369.445 255.418ZM371.441 254.136V251.859H370.632V250.774H371.471V249.492H372.683V250.774H374.005V251.859H372.703V254.018C372.703 254.294 372.749 254.488 372.841 254.6C372.933 254.712 373.12 254.768 373.403 254.768H373.827V256H373.285C372.581 256 372.098 255.852 371.835 255.556C371.572 255.261 371.441 254.787 371.441 254.136ZM375.158 254.136V251.859H374.349V250.774H375.187V249.492H376.4V250.774H377.721V251.859H376.42V254.018C376.42 254.294 376.466 254.488 376.558 254.6C376.65 254.712 376.837 254.768 377.12 254.768H377.544V256H377.001C376.298 256 375.815 255.852 375.552 255.556C375.289 255.261 375.158 254.787 375.158 254.136ZM379.937 254.58C380.147 254.856 380.437 254.994 380.805 254.994C381.173 254.994 381.462 254.856 381.672 254.58C381.883 254.298 381.988 253.9 381.988 253.387C381.988 252.874 381.879 252.48 381.662 252.204C381.452 251.921 381.166 251.78 380.805 251.78C380.443 251.78 380.154 251.918 379.937 252.194C379.727 252.47 379.621 252.868 379.621 253.387C379.621 253.906 379.727 254.304 379.937 254.58ZM382.56 255.418C382.1 255.905 381.515 256.148 380.805 256.148C380.095 256.148 379.51 255.905 379.05 255.418C378.589 254.932 378.359 254.255 378.359 253.387C378.359 252.533 378.596 251.859 379.069 251.366C379.543 250.873 380.121 250.626 380.805 250.626C381.488 250.626 382.067 250.873 382.54 251.366C383.013 251.859 383.25 252.533 383.25 253.387C383.25 254.255 383.02 254.932 382.56 255.418ZM384.289 256V250.774H385.463V251.277H385.482C385.601 251.093 385.771 250.939 385.995 250.814C386.225 250.689 386.475 250.626 386.744 250.626C387.02 250.626 387.28 250.692 387.523 250.824C387.766 250.948 387.951 251.113 388.075 251.317H388.095C388.227 251.113 388.414 250.948 388.657 250.824C388.9 250.692 389.167 250.626 389.456 250.626C390.08 250.626 390.573 250.791 390.935 251.119C391.303 251.448 391.487 251.882 391.487 252.421V256H390.314V252.687C390.314 252.431 390.238 252.22 390.087 252.056C389.942 251.892 389.715 251.81 389.406 251.81C389.117 251.81 388.894 251.885 388.736 252.036C388.585 252.187 388.509 252.381 388.509 252.618V256H387.336V252.687C387.336 252.437 387.257 252.23 387.099 252.066C386.942 251.895 386.718 251.81 386.429 251.81C386.133 251.81 385.91 251.885 385.758 252.036C385.607 252.187 385.532 252.381 385.532 252.618V256H384.289ZM395.384 256V249.098H396.754L398.756 253.574H398.776L400.777 249.098H402.158V256H400.856V251.76H400.836L398.874 256H398.657L396.695 251.76H396.676V256H395.384ZM403.634 256V250.774H404.915V256H403.634ZM403.634 250.015V248.802H404.915V250.015H403.634ZM409.535 253.86V252.904C409.535 252.588 409.433 252.322 409.229 252.105C409.032 251.888 408.759 251.78 408.411 251.78C408.036 251.78 407.744 251.915 407.533 252.184C407.33 252.454 407.228 252.855 407.228 253.387C407.228 253.913 407.33 254.314 407.533 254.59C407.744 254.86 408.036 254.994 408.411 254.994C408.759 254.994 409.032 254.886 409.229 254.669C409.433 254.445 409.535 254.176 409.535 253.86ZM409.614 256V255.497H409.594C409.561 255.543 409.512 255.602 409.446 255.675C409.387 255.747 409.236 255.846 408.993 255.97C408.756 256.089 408.496 256.148 408.214 256.148C407.524 256.148 406.971 255.898 406.557 255.399C406.15 254.899 405.946 254.229 405.946 253.387C405.946 252.539 406.169 251.869 406.616 251.376C407.063 250.876 407.589 250.626 408.194 250.626C408.47 250.626 408.717 250.682 408.934 250.794C409.157 250.899 409.308 251.004 409.387 251.109L409.515 251.277H409.535V248.802H410.817V256H409.614Z" fill="#7986A3"/>
<path d="M359.244 371V365.331H357.223V364.098H362.596V365.331H360.575V371H359.244ZM363.832 369.58C364.043 369.856 364.332 369.994 364.7 369.994C365.068 369.994 365.357 369.856 365.568 369.58C365.778 369.298 365.883 368.9 365.883 368.387C365.883 367.874 365.775 367.48 365.558 367.204C365.347 366.921 365.061 366.78 364.7 366.78C364.338 366.78 364.049 366.918 363.832 367.194C363.622 367.47 363.517 367.868 363.517 368.387C363.517 368.906 363.622 369.304 363.832 369.58ZM366.455 370.418C365.995 370.905 365.41 371.148 364.7 371.148C363.99 371.148 363.405 370.905 362.945 370.418C362.485 369.932 362.255 369.255 362.255 368.387C362.255 367.533 362.491 366.859 362.965 366.366C363.438 365.873 364.016 365.626 364.7 365.626C365.384 365.626 365.962 365.873 366.435 366.366C366.909 366.859 367.145 367.533 367.145 368.387C367.145 369.255 366.915 369.932 366.455 370.418ZM369.466 367.845V368.92C369.466 369.222 369.568 369.478 369.772 369.689C369.976 369.892 370.249 369.994 370.59 369.994C370.965 369.994 371.271 369.856 371.507 369.58C371.751 369.304 371.872 368.906 371.872 368.387C371.872 367.868 371.754 367.47 371.517 367.194C371.281 366.918 370.972 366.78 370.59 366.78C370.249 366.78 369.976 366.885 369.772 367.095C369.568 367.299 369.466 367.549 369.466 367.845ZM368.185 373.218V365.774H369.407V366.277H369.427C369.44 366.257 369.456 366.234 369.476 366.208C369.496 366.175 369.545 366.123 369.624 366.05C369.71 365.978 369.802 365.912 369.9 365.853C369.999 365.794 370.13 365.741 370.295 365.695C370.465 365.649 370.646 365.626 370.837 365.626C371.455 365.626 371.994 365.876 372.454 366.376C372.921 366.869 373.154 367.539 373.154 368.387C373.154 369.242 372.93 369.915 372.483 370.408C372.036 370.901 371.494 371.148 370.857 371.148C370.666 371.148 370.488 371.125 370.324 371.079C370.166 371.033 370.038 370.98 369.94 370.921C369.841 370.855 369.756 370.793 369.683 370.734C369.611 370.668 369.558 370.612 369.525 370.566L369.486 370.497H369.466V373.218H368.185ZM376.756 371V364.098H378.127L380.129 368.574H380.148L382.15 364.098H383.53V371H382.229V366.76H382.209L380.247 371H380.03L378.068 366.76H378.048V371H376.756ZM385.006 371V365.774H386.288V371H385.006ZM385.006 365.015V363.802H386.288V365.015H385.006ZM390.908 368.86V367.904C390.908 367.588 390.806 367.322 390.602 367.105C390.405 366.888 390.132 366.78 389.784 366.78C389.409 366.78 389.116 366.915 388.906 367.184C388.702 367.454 388.6 367.855 388.6 368.387C388.6 368.913 388.702 369.314 388.906 369.59C389.116 369.86 389.409 369.994 389.784 369.994C390.132 369.994 390.405 369.886 390.602 369.669C390.806 369.445 390.908 369.176 390.908 368.86ZM390.986 371V370.497H390.967C390.934 370.543 390.885 370.602 390.819 370.675C390.76 370.747 390.608 370.846 390.365 370.97C390.129 371.089 389.869 371.148 389.586 371.148C388.896 371.148 388.344 370.898 387.93 370.399C387.522 369.899 387.319 369.229 387.319 368.387C387.319 367.539 387.542 366.869 387.989 366.376C388.436 365.876 388.962 365.626 389.567 365.626C389.843 365.626 390.089 365.682 390.306 365.794C390.53 365.899 390.681 366.004 390.76 366.109L390.888 366.277H390.908V363.802H392.189V371H390.986Z" fill="#7986A3"/>
<path d="M413.574 371V364.098H414.945L416.947 368.574H416.966L418.968 364.098H420.348V371H419.047V366.76H419.027L417.065 371H416.848L414.886 366.76H414.866V371H413.574ZM421.824 371V365.774H423.106V371H421.824ZM421.824 365.015V363.802H423.106V365.015H421.824ZM427.726 368.86V367.904C427.726 367.588 427.624 367.322 427.42 367.105C427.223 366.888 426.95 366.78 426.602 366.78C426.227 366.78 425.934 366.915 425.724 367.184C425.52 367.454 425.418 367.855 425.418 368.387C425.418 368.913 425.52 369.314 425.724 369.59C425.934 369.86 426.227 369.994 426.602 369.994C426.95 369.994 427.223 369.886 427.42 369.669C427.624 369.445 427.726 369.176 427.726 368.86ZM427.804 371V370.497H427.785C427.752 370.543 427.703 370.602 427.637 370.675C427.578 370.747 427.426 370.846 427.183 370.97C426.947 371.089 426.687 371.148 426.404 371.148C425.714 371.148 425.162 370.898 424.748 370.399C424.34 369.899 424.137 369.229 424.137 368.387C424.137 367.539 424.36 366.869 424.807 366.376C425.254 365.876 425.78 365.626 426.385 365.626C426.661 365.626 426.907 365.682 427.124 365.794C427.348 365.899 427.499 366.004 427.578 366.109L427.706 366.277H427.726V363.802H429.007V371H427.804ZM432.948 371V364.098H434.318L436.32 368.574H436.339L438.341 364.098H439.721V371H438.42V366.76H438.4L436.438 371H436.221L434.259 366.76H434.239V371H432.948ZM444.175 371V370.497H444.155C444.142 370.517 444.126 370.543 444.106 370.576C444.086 370.602 444.037 370.652 443.958 370.724C443.879 370.796 443.79 370.862 443.692 370.921C443.593 370.98 443.458 371.033 443.288 371.079C443.117 371.125 442.933 371.148 442.735 371.148C442.104 371.148 441.631 371 441.316 370.704C441.007 370.402 440.852 370.034 440.852 369.6C440.852 369.146 440.987 368.801 441.256 368.565C441.526 368.328 441.983 368.131 442.627 367.973C443.225 367.828 443.6 367.713 443.751 367.628C443.902 367.542 443.978 367.421 443.978 367.263C443.978 367.105 443.902 366.974 443.751 366.869C443.606 366.764 443.386 366.711 443.09 366.711C442.742 366.711 442.492 366.79 442.341 366.948C442.19 367.099 442.072 367.306 441.986 367.569L440.921 367.125C441.046 366.685 441.289 366.326 441.651 366.05C442.012 365.768 442.486 365.626 443.071 365.626C443.708 365.626 444.231 365.794 444.638 366.129C445.046 366.464 445.25 366.984 445.25 367.687V371H444.175ZM442.883 368.86C442.555 368.939 442.338 369.035 442.233 369.146C442.134 369.252 442.085 369.373 442.085 369.511C442.085 369.866 442.341 370.044 442.854 370.044C443.242 370.044 443.531 369.971 443.721 369.827C443.919 369.675 444.017 369.491 444.017 369.275V368.367H443.997C443.971 368.42 443.942 368.463 443.909 368.496C443.882 368.522 443.784 368.571 443.613 368.643C443.442 368.709 443.199 368.782 442.883 368.86ZM446.532 371V365.774H447.813V371H446.532ZM446.532 365.015V363.802H447.813V365.015H446.532ZM449.189 371V363.802H450.52V371H449.189Z" fill="#7986A3"/>
<path d="M300.626 412V405.098H301.997L303.998 409.574H304.018L306.019 405.098H307.4V412H306.098V407.76H306.079L304.116 412H303.9L301.937 407.76H301.918V412H300.626ZM308.876 412V406.774H310.157V412H308.876ZM308.876 406.015V404.802H310.157V406.015H308.876ZM314.777 409.86V408.904C314.777 408.588 314.675 408.322 314.471 408.105C314.274 407.888 314.001 407.78 313.653 407.78C313.278 407.78 312.986 407.915 312.776 408.184C312.572 408.454 312.47 408.855 312.47 409.387C312.47 409.913 312.572 410.314 312.776 410.59C312.986 410.86 313.278 410.994 313.653 410.994C314.001 410.994 314.274 410.886 314.471 410.669C314.675 410.445 314.777 410.176 314.777 409.86ZM314.856 412V411.497H314.836C314.803 411.543 314.754 411.602 314.688 411.675C314.629 411.747 314.478 411.846 314.235 411.97C313.998 412.089 313.739 412.148 313.456 412.148C312.766 412.148 312.214 411.898 311.799 411.399C311.392 410.899 311.188 410.229 311.188 409.387C311.188 408.539 311.412 407.869 311.859 407.376C312.306 406.876 312.831 406.626 313.436 406.626C313.712 406.626 313.959 406.682 314.176 406.794C314.399 406.899 314.55 407.004 314.629 407.109L314.757 407.277H314.777V404.802H316.059V412H314.856ZM321.754 412L319.26 405.098H320.66L322.366 409.998H322.395L324.052 405.098H325.432L322.967 412H321.754ZM329.118 410.196L330.015 410.984C329.483 411.76 328.763 412.148 327.856 412.148C327.126 412.148 326.531 411.898 326.071 411.399C325.611 410.892 325.381 410.222 325.381 409.387C325.381 408.552 325.608 407.885 326.061 407.386C326.521 406.879 327.1 406.626 327.797 406.626C328.493 406.626 329.065 406.879 329.512 407.386C329.966 407.885 330.193 408.552 330.193 409.387V409.772H326.682C326.702 410.173 326.811 410.482 327.008 410.698C327.212 410.909 327.488 411.014 327.836 411.014C328.132 411.014 328.375 410.942 328.566 410.797C328.763 410.646 328.947 410.445 329.118 410.196ZM326.682 408.815H328.95C328.917 408.48 328.802 408.22 328.605 408.036C328.408 407.846 328.138 407.75 327.797 407.75C327.481 407.75 327.221 407.852 327.018 408.056C326.821 408.26 326.709 408.513 326.682 408.815ZM331.224 412V406.774H332.457V407.277H332.476C332.621 407.093 332.818 406.939 333.068 406.814C333.318 406.689 333.581 406.626 333.857 406.626C334.435 406.626 334.889 406.801 335.217 407.149C335.546 407.491 335.71 407.967 335.71 408.579V412H334.429V408.894C334.429 408.533 334.36 408.263 334.222 408.086C334.084 407.902 333.847 407.81 333.512 407.81C333.196 407.81 332.95 407.902 332.772 408.086C332.595 408.263 332.506 408.503 332.506 408.805V412H331.224ZM337.306 410.136V407.859H336.498V406.774H337.336V405.492H338.549V406.774H339.87V407.859H338.568V410.018C338.568 410.294 338.614 410.488 338.706 410.6C338.798 410.712 338.986 410.768 339.268 410.768H339.692V412H339.15C338.447 412 337.963 411.852 337.701 411.556C337.438 411.261 337.306 410.787 337.306 410.136Z" fill="#7986A3"/>
<path d="M211.594 521L211.2 519.866H208.567L208.173 521H206.851L209.346 514.098H210.48L212.965 521H211.594ZM209.878 516.07L208.942 518.762H210.825L209.898 516.07H209.878ZM216.267 521V514.098H217.598V516.879H219.964V514.098H221.295V521H219.964V518.012H217.598V521H216.267ZM226.165 519.196L227.062 519.984C226.53 520.76 225.81 521.148 224.903 521.148C224.173 521.148 223.579 520.898 223.118 520.399C222.658 519.892 222.428 519.222 222.428 518.387C222.428 517.552 222.655 516.885 223.109 516.386C223.569 515.879 224.147 515.626 224.844 515.626C225.541 515.626 226.113 515.879 226.559 516.386C227.013 516.885 227.24 517.552 227.24 518.387V518.772H223.73C223.749 519.173 223.858 519.482 224.055 519.698C224.259 519.909 224.535 520.014 224.883 520.014C225.179 520.014 225.422 519.942 225.613 519.797C225.81 519.646 225.994 519.445 226.165 519.196ZM223.73 517.815H225.997C225.965 517.48 225.85 517.22 225.652 517.036C225.455 516.846 225.186 516.75 224.844 516.75C224.528 516.75 224.269 516.852 224.065 517.056C223.868 517.26 223.756 517.513 223.73 517.815ZM231.249 521V520.497H231.229C231.216 520.517 231.2 520.543 231.18 520.576C231.16 520.602 231.111 520.652 231.032 520.724C230.953 520.796 230.864 520.862 230.766 520.921C230.667 520.98 230.533 521.033 230.362 521.079C230.191 521.125 230.007 521.148 229.809 521.148C229.178 521.148 228.705 521 228.39 520.704C228.081 520.402 227.926 520.034 227.926 519.6C227.926 519.146 228.061 518.801 228.331 518.565C228.6 518.328 229.057 518.131 229.701 517.973C230.299 517.828 230.674 517.713 230.825 517.628C230.976 517.542 231.052 517.421 231.052 517.263C231.052 517.105 230.976 516.974 230.825 516.869C230.68 516.764 230.46 516.711 230.164 516.711C229.816 516.711 229.566 516.79 229.415 516.948C229.264 517.099 229.146 517.306 229.06 517.569L227.995 517.125C228.12 516.685 228.363 516.326 228.725 516.05C229.086 515.768 229.56 515.626 230.145 515.626C230.782 515.626 231.305 515.794 231.712 516.129C232.12 516.464 232.324 516.984 232.324 517.687V521H231.249ZM229.957 518.86C229.629 518.939 229.412 519.035 229.307 519.146C229.208 519.252 229.159 519.373 229.159 519.511C229.159 519.866 229.415 520.044 229.928 520.044C230.316 520.044 230.605 519.971 230.795 519.827C230.993 519.675 231.091 519.491 231.091 519.275V518.367H231.072C231.045 518.42 231.016 518.463 230.983 518.496C230.957 518.522 230.858 518.571 230.687 518.643C230.516 518.709 230.273 518.782 229.957 518.86ZM234.806 521L232.716 515.774H234.047L235.348 519.136H235.368L236.669 515.774H237.981L235.891 521H234.806ZM241.966 519.196L242.863 519.984C242.331 520.76 241.611 521.148 240.704 521.148C239.974 521.148 239.379 520.898 238.919 520.399C238.459 519.892 238.229 519.222 238.229 518.387C238.229 517.552 238.456 516.885 238.909 516.386C239.37 515.879 239.948 515.626 240.645 515.626C241.342 515.626 241.913 515.879 242.36 516.386C242.814 516.885 243.041 517.552 243.041 518.387V518.772H239.531C239.55 519.173 239.659 519.482 239.856 519.698C240.06 519.909 240.336 520.014 240.684 520.014C240.98 520.014 241.223 519.942 241.414 519.797C241.611 519.646 241.795 519.445 241.966 519.196ZM239.531 517.815H241.798C241.766 517.48 241.65 517.22 241.453 517.036C241.256 516.846 240.987 516.75 240.645 516.75C240.329 516.75 240.07 516.852 239.866 517.056C239.669 517.26 239.557 517.513 239.531 517.815ZM244.072 521V515.774H245.305V516.277H245.324C245.469 516.093 245.666 515.939 245.916 515.814C246.166 515.689 246.429 515.626 246.705 515.626C247.283 515.626 247.737 515.801 248.066 516.149C248.394 516.491 248.559 516.967 248.559 517.579V521H247.277V517.894C247.277 517.533 247.208 517.263 247.07 517.086C246.932 516.902 246.695 516.81 246.36 516.81C246.044 516.81 245.798 516.902 245.62 517.086C245.443 517.263 245.354 517.503 245.354 517.805V521H244.072Z" fill="#7986A3"/>
<path d="M158.878 454L158.484 452.866H155.851L155.457 454H154.135L156.63 447.098H157.764L160.249 454H158.878ZM157.162 449.07L156.226 451.762H158.109L157.182 449.07H157.162ZM163.551 454V447.098H166.351C167.061 447.098 167.633 447.299 168.066 447.7C168.507 448.094 168.727 448.626 168.727 449.297C168.727 449.796 168.596 450.22 168.333 450.569C168.076 450.917 167.721 451.164 167.268 451.308L168.737 454H167.297L165.907 451.436H164.882V454H163.551ZM164.882 450.283H166.242C166.998 450.283 167.376 449.954 167.376 449.297C167.376 448.633 166.998 448.301 166.242 448.301H164.882V450.283ZM172.698 454V453.497H172.678C172.665 453.517 172.649 453.543 172.629 453.576C172.609 453.602 172.56 453.652 172.481 453.724C172.402 453.796 172.313 453.862 172.215 453.921C172.116 453.98 171.982 454.033 171.811 454.079C171.64 454.125 171.456 454.148 171.258 454.148C170.627 454.148 170.154 454 169.839 453.704C169.53 453.402 169.375 453.034 169.375 452.6C169.375 452.146 169.51 451.801 169.779 451.565C170.049 451.328 170.506 451.131 171.15 450.973C171.748 450.828 172.123 450.713 172.274 450.628C172.425 450.542 172.501 450.421 172.501 450.263C172.501 450.105 172.425 449.974 172.274 449.869C172.129 449.764 171.909 449.711 171.613 449.711C171.265 449.711 171.015 449.79 170.864 449.948C170.713 450.099 170.595 450.306 170.509 450.569L169.444 450.125C169.569 449.685 169.812 449.326 170.174 449.05C170.535 448.768 171.009 448.626 171.594 448.626C172.231 448.626 172.754 448.794 173.161 449.129C173.569 449.464 173.773 449.984 173.773 450.687V454H172.698ZM171.406 451.86C171.078 451.939 170.861 452.035 170.756 452.146C170.657 452.252 170.608 452.373 170.608 452.511C170.608 452.866 170.864 453.044 171.377 453.044C171.765 453.044 172.054 452.971 172.244 452.827C172.442 452.675 172.54 452.491 172.54 452.275V451.367H172.521C172.494 451.42 172.465 451.463 172.432 451.496C172.406 451.522 172.307 451.571 172.136 451.643C171.965 451.709 171.722 451.782 171.406 451.86ZM175.321 454V449.859H174.512V448.774H175.35V448.035C175.35 447.588 175.466 447.272 175.696 447.088C175.932 446.898 176.274 446.802 176.721 446.802H177.746V447.936H176.987C176.829 447.936 176.718 447.969 176.652 448.035C176.593 448.094 176.563 448.199 176.563 448.35V448.774H177.884V449.859H176.603V454H175.321ZM178.845 452.136V449.859H178.037V448.774H178.875V447.492H180.087V448.774H181.409V449.859H180.107V452.018C180.107 452.294 180.153 452.488 180.245 452.6C180.337 452.712 180.525 452.768 180.807 452.768H181.231V454H180.689C179.986 454 179.502 453.852 179.239 453.556C178.977 453.261 178.845 452.787 178.845 452.136ZM185.784 452.196L186.681 452.984C186.148 453.76 185.429 454.148 184.522 454.148C183.792 454.148 183.197 453.898 182.737 453.399C182.277 452.892 182.047 452.222 182.047 451.387C182.047 450.552 182.274 449.885 182.727 449.386C183.187 448.879 183.766 448.626 184.462 448.626C185.159 448.626 185.731 448.879 186.178 449.386C186.632 449.885 186.858 450.552 186.858 451.387V451.772H183.348C183.368 452.173 183.476 452.482 183.674 452.698C183.877 452.909 184.153 453.014 184.502 453.014C184.798 453.014 185.041 452.942 185.232 452.797C185.429 452.646 185.613 452.445 185.784 452.196ZM183.348 450.815H185.616C185.583 450.48 185.468 450.22 185.271 450.036C185.074 449.846 184.804 449.75 184.462 449.75C184.147 449.75 183.887 449.852 183.684 450.056C183.486 450.26 183.375 450.513 183.348 450.815ZM187.89 454V448.774H189.103V449.326H189.122C189.221 449.129 189.366 448.971 189.556 448.853C189.753 448.735 189.967 448.676 190.197 448.676C190.361 448.676 190.519 448.709 190.67 448.774L190.473 450.017C190.329 449.964 190.194 449.938 190.069 449.938C189.471 449.938 189.172 450.335 189.172 451.131V454H187.89ZM191.116 452.275L192.27 451.979C192.362 452.708 192.753 453.073 193.443 453.073C193.758 453.073 194.008 453.024 194.192 452.925C194.383 452.82 194.478 452.675 194.478 452.491C194.478 452.34 194.406 452.229 194.261 452.156C194.117 452.077 193.814 451.972 193.354 451.841C193.229 451.808 193.134 451.782 193.068 451.762C192.463 451.591 192.02 451.39 191.737 451.16C191.454 450.924 191.313 450.611 191.313 450.224C191.313 449.79 191.487 449.415 191.836 449.1C192.191 448.784 192.674 448.626 193.285 448.626C194.455 448.626 195.188 449.139 195.484 450.164L194.419 450.49C194.327 450.24 194.196 450.043 194.025 449.898C193.86 449.754 193.617 449.681 193.295 449.681C193.045 449.681 192.845 449.731 192.694 449.829C192.549 449.921 192.477 450.033 192.477 450.164C192.477 450.309 192.562 450.424 192.733 450.51C192.91 450.588 193.348 450.727 194.044 450.924C194.656 451.088 195.07 451.298 195.287 451.555C195.51 451.805 195.622 452.127 195.622 452.521C195.622 452.942 195.438 453.32 195.07 453.655C194.708 453.984 194.182 454.148 193.492 454.148C192.769 454.148 192.21 453.967 191.816 453.606C191.428 453.237 191.195 452.794 191.116 452.275Z" fill="#7986A3"/>
<path d="M114.376 347L113.982 345.866H111.349L110.955 347H109.634L112.128 340.098H113.262L115.747 347H114.376ZM112.661 342.07L111.724 344.762H113.607L112.68 342.07H112.661ZM119.049 347V340.098H120.419L122.421 344.574H122.44L124.442 340.098H125.822V347H124.521V342.76H124.501L122.539 347H122.322L120.36 342.76H120.34V347H119.049ZM130.276 347V346.497H130.256C130.243 346.517 130.227 346.543 130.207 346.576C130.187 346.602 130.138 346.652 130.059 346.724C129.98 346.796 129.891 346.862 129.793 346.921C129.694 346.98 129.559 347.033 129.389 347.079C129.218 347.125 129.034 347.148 128.836 347.148C128.205 347.148 127.732 347 127.417 346.704C127.108 346.402 126.953 346.034 126.953 345.6C126.953 345.146 127.088 344.801 127.357 344.565C127.627 344.328 128.084 344.131 128.728 343.973C129.326 343.828 129.701 343.713 129.852 343.628C130.003 343.542 130.079 343.421 130.079 343.263C130.079 343.105 130.003 342.974 129.852 342.869C129.707 342.764 129.487 342.711 129.191 342.711C128.843 342.711 128.593 342.79 128.442 342.948C128.291 343.099 128.172 343.306 128.087 343.569L127.022 343.125C127.147 342.685 127.39 342.326 127.752 342.05C128.113 341.768 128.587 341.626 129.172 341.626C129.809 341.626 130.332 341.794 130.739 342.129C131.147 342.464 131.351 342.984 131.351 343.687V347H130.276ZM128.984 344.86C128.656 344.939 128.439 345.035 128.333 345.146C128.235 345.252 128.186 345.373 128.186 345.511C128.186 345.866 128.442 346.044 128.955 346.044C129.342 346.044 129.632 345.971 129.822 345.827C130.02 345.675 130.118 345.491 130.118 345.275V344.367H130.098C130.072 344.42 130.043 344.463 130.01 344.496C129.983 344.522 129.885 344.571 129.714 344.643C129.543 344.709 129.3 344.782 128.984 344.86ZM132.633 347V341.774H133.914V347H132.633ZM132.633 341.015V339.802H133.914V341.015H132.633ZM135.29 347V341.774H136.523V342.277H136.542C136.687 342.093 136.884 341.939 137.134 341.814C137.384 341.689 137.647 341.626 137.923 341.626C138.501 341.626 138.955 341.801 139.283 342.149C139.612 342.491 139.776 342.967 139.776 343.579V347H138.495V343.894C138.495 343.533 138.426 343.263 138.288 343.086C138.15 342.902 137.913 342.81 137.578 342.81C137.262 342.81 137.016 342.902 136.838 343.086C136.661 343.263 136.572 343.503 136.572 343.805V347H135.29Z" fill="#7986A3"/>
<path d="M83.5886 234L83.1942 232.866H80.5616L80.1672 234H78.846L81.3406 227.098H82.4745L84.9592 234H83.5886ZM81.873 229.07L80.9363 231.762H82.8196L81.8927 229.07H81.873ZM88.2611 234V227.098H89.5922V232.768H92.4417V234H88.2611ZM94.5079 232.58C94.7182 232.856 95.0074 232.994 95.3755 232.994C95.7436 232.994 96.0329 232.856 96.2432 232.58C96.4536 232.298 96.5587 231.9 96.5587 231.387C96.5587 230.874 96.4503 230.48 96.2334 230.204C96.023 229.921 95.7371 229.78 95.3755 229.78C95.014 229.78 94.7248 229.918 94.5079 230.194C94.2975 230.47 94.1923 230.868 94.1923 231.387C94.1923 231.906 94.2975 232.304 94.5079 232.58ZM97.1306 233.418C96.6705 233.905 96.0855 234.148 95.3755 234.148C94.6656 234.148 94.0806 233.905 93.6205 233.418C93.1603 232.932 92.9303 232.255 92.9303 231.387C92.9303 230.533 93.1669 229.859 93.6402 229.366C94.1135 228.873 94.6919 228.626 95.3755 228.626C96.0592 228.626 96.6376 228.873 97.1109 229.366C97.5842 229.859 97.8208 230.533 97.8208 231.387C97.8208 232.255 97.5907 232.932 97.1306 233.418ZM100.142 230.904V231.86C100.142 232.176 100.24 232.445 100.438 232.669C100.641 232.886 100.918 232.994 101.266 232.994C101.641 232.994 101.93 232.86 102.134 232.59C102.344 232.314 102.449 231.913 102.449 231.387C102.449 230.855 102.344 230.454 102.134 230.184C101.93 229.915 101.641 229.78 101.266 229.78C100.918 229.78 100.641 229.888 100.438 230.105C100.24 230.322 100.142 230.588 100.142 230.904ZM98.8601 234V226.802H100.142V229.277H100.162C100.175 229.257 100.191 229.234 100.211 229.208C100.231 229.175 100.28 229.123 100.359 229.05C100.444 228.978 100.533 228.912 100.625 228.853C100.724 228.794 100.849 228.741 101 228.695C101.157 228.649 101.322 228.626 101.493 228.626C102.137 228.626 102.669 228.883 103.09 229.395C103.517 229.902 103.731 230.565 103.731 231.387C103.731 232.229 103.524 232.899 103.11 233.399C102.702 233.898 102.153 234.148 101.463 234.148C101.18 234.148 100.924 234.095 100.694 233.99C100.464 233.878 100.306 233.77 100.221 233.665L100.083 233.497H100.063V234H98.8601ZM106.044 230.904V231.86C106.044 232.176 106.143 232.445 106.34 232.669C106.544 232.886 106.82 232.994 107.168 232.994C107.543 232.994 107.832 232.86 108.036 232.59C108.246 232.314 108.352 231.913 108.352 231.387C108.352 230.855 108.246 230.454 108.036 230.184C107.832 229.915 107.543 229.78 107.168 229.78C106.82 229.78 106.544 229.888 106.34 230.105C106.143 230.322 106.044 230.588 106.044 230.904ZM104.763 234V226.802H106.044V229.277H106.064C106.077 229.257 106.094 229.234 106.113 229.208C106.133 229.175 106.182 229.123 106.261 229.05C106.347 228.978 106.435 228.912 106.527 228.853C106.626 228.794 106.751 228.741 106.902 228.695C107.06 228.649 107.224 228.626 107.395 228.626C108.039 228.626 108.572 228.883 108.992 229.395C109.42 229.902 109.633 230.565 109.633 231.387C109.633 232.229 109.426 232.899 109.012 233.399C108.605 233.898 108.056 234.148 107.366 234.148C107.083 234.148 106.827 234.095 106.597 233.99C106.366 233.878 106.209 233.77 106.123 233.665L105.985 233.497H105.965V234H104.763ZM110.877 236.218L111.922 233.744L109.832 228.774H111.133L112.484 232.314H112.504L113.854 228.774H115.156L112.149 236.218H110.877Z" fill="#7986A3"/>
<path d="M199.247 238L198.852 236.866H196.22L195.825 238H194.504L196.999 231.098H198.133L200.617 238H199.247ZM197.531 233.07L196.594 235.762H198.478L197.551 233.07H197.531ZM203.476 235.693L204.876 235.387C204.961 235.926 205.099 236.317 205.29 236.56C205.487 236.797 205.806 236.915 206.246 236.915C206.621 236.915 206.92 236.85 207.143 236.718C207.367 236.58 207.479 236.38 207.479 236.117C207.479 235.841 207.37 235.63 207.153 235.486C206.943 235.335 206.457 235.141 205.694 234.904C204.978 234.68 204.468 234.411 204.166 234.095C203.87 233.773 203.722 233.379 203.722 232.912C203.722 232.373 203.929 231.913 204.343 231.532C204.764 231.144 205.333 230.95 206.049 230.95C206.7 230.95 207.258 231.108 207.725 231.423C208.198 231.739 208.494 232.209 208.613 232.833L207.321 233.159C207.117 232.508 206.693 232.183 206.049 232.183C205.707 232.183 205.451 232.248 205.28 232.38C205.116 232.511 205.033 232.686 205.033 232.902C205.033 233.106 205.129 233.264 205.319 233.376C205.51 233.481 206 233.668 206.788 233.938C207.551 234.201 208.074 234.487 208.356 234.796C208.639 235.098 208.78 235.509 208.78 236.028C208.78 236.639 208.55 237.145 208.09 237.546C207.63 237.947 207.015 238.148 206.246 238.148C205.464 238.148 204.83 237.944 204.343 237.537C203.863 237.122 203.574 236.508 203.476 235.693ZM213.105 236.196L214.003 236.984C213.47 237.76 212.75 238.148 211.843 238.148C211.114 238.148 210.519 237.898 210.059 237.399C209.598 236.892 209.368 236.222 209.368 235.387C209.368 234.552 209.595 233.885 210.049 233.386C210.509 232.879 211.087 232.626 211.784 232.626C212.481 232.626 213.053 232.879 213.5 233.386C213.953 233.885 214.18 234.552 214.18 235.387V235.772H210.67C210.69 236.173 210.798 236.482 210.995 236.698C211.199 236.909 211.475 237.014 211.824 237.014C212.119 237.014 212.363 236.942 212.553 236.797C212.75 236.646 212.934 236.445 213.105 236.196ZM210.67 234.815H212.938C212.905 234.48 212.79 234.22 212.593 234.036C212.395 233.846 212.126 233.75 211.784 233.75C211.469 233.75 211.209 233.852 211.005 234.056C210.808 234.26 210.696 234.513 210.67 234.815ZM215.971 238L214.817 232.774H216.069L216.76 236.265H216.789L217.953 232.774H219.116L220.191 236.255H220.211L220.999 232.774H222.232L220.98 238H219.718L218.524 234.243H218.505L217.213 238H215.971ZM226.509 236.196L227.406 236.984C226.873 237.76 226.154 238.148 225.247 238.148C224.517 238.148 223.922 237.898 223.462 237.399C223.002 236.892 222.772 236.222 222.772 235.387C222.772 234.552 222.998 233.885 223.452 233.386C223.912 232.879 224.491 232.626 225.187 232.626C225.884 232.626 226.456 232.879 226.903 233.386C227.357 233.885 227.583 234.552 227.583 235.387V235.772H224.073C224.093 236.173 224.201 236.482 224.399 236.698C224.602 236.909 224.878 237.014 225.227 237.014C225.523 237.014 225.766 236.942 225.956 236.797C226.154 236.646 226.338 236.445 226.509 236.196ZM224.073 234.815H226.341C226.308 234.48 226.193 234.22 225.996 234.036C225.799 233.846 225.529 233.75 225.187 233.75C224.872 233.75 224.612 233.852 224.408 234.056C224.211 234.26 224.1 234.513 224.073 234.815ZM228.615 238V232.774H229.828V233.326H229.847C229.946 233.129 230.091 232.971 230.281 232.853C230.478 232.735 230.692 232.676 230.922 232.676C231.086 232.676 231.244 232.709 231.395 232.774L231.198 234.017C231.054 233.964 230.919 233.938 230.794 233.938C230.196 233.938 229.897 234.335 229.897 235.131V238H228.615Z" fill="#7986A3"/>
<path d="M224.383 357L223.989 355.866H221.356L220.962 357H219.64L222.135 350.098H223.269L225.754 357H224.383ZM222.667 352.07L221.731 354.762H223.614L222.687 352.07H222.667ZM229.055 357V350.098H231.856C232.566 350.098 233.137 350.299 233.571 350.7C234.012 351.094 234.232 351.626 234.232 352.297C234.232 352.796 234.1 353.22 233.838 353.569C233.581 353.917 233.226 354.164 232.773 354.308L234.242 357H232.802L231.412 354.436H230.387V357H229.055ZM230.387 353.283H231.747C232.503 353.283 232.881 352.954 232.881 352.297C232.881 351.633 232.503 351.301 231.747 351.301H230.387V353.283ZM238.203 357V356.497H238.183C238.17 356.517 238.154 356.543 238.134 356.576C238.114 356.602 238.065 356.652 237.986 356.724C237.907 356.796 237.818 356.862 237.72 356.921C237.621 356.98 237.486 357.033 237.316 357.079C237.145 357.125 236.961 357.148 236.763 357.148C236.132 357.148 235.659 357 235.344 356.704C235.035 356.402 234.88 356.034 234.88 355.6C234.88 355.146 235.015 354.801 235.284 354.565C235.554 354.328 236.011 354.131 236.655 353.973C237.253 353.828 237.628 353.713 237.779 353.628C237.93 353.542 238.006 353.421 238.006 353.263C238.006 353.105 237.93 352.974 237.779 352.869C237.634 352.764 237.414 352.711 237.118 352.711C236.77 352.711 236.52 352.79 236.369 352.948C236.218 353.099 236.099 353.306 236.014 353.569L234.949 353.125C235.074 352.685 235.317 352.326 235.679 352.05C236.04 351.768 236.514 351.626 237.099 351.626C237.736 351.626 238.259 351.794 238.666 352.129C239.074 352.464 239.278 352.984 239.278 353.687V357H238.203ZM236.911 354.86C236.583 354.939 236.366 355.035 236.261 355.146C236.162 355.252 236.113 355.373 236.113 355.511C236.113 355.866 236.369 356.044 236.882 356.044C237.27 356.044 237.559 355.971 237.749 355.827C237.947 355.675 238.045 355.491 238.045 355.275V354.367H238.025C237.999 354.42 237.97 354.463 237.937 354.496C237.91 354.522 237.812 354.571 237.641 354.643C237.47 354.709 237.227 354.782 236.911 354.86ZM240.56 357V351.774H241.733V352.277H241.753C241.871 352.093 242.042 351.939 242.265 351.814C242.495 351.689 242.745 351.626 243.015 351.626C243.291 351.626 243.55 351.692 243.794 351.824C244.037 351.948 244.221 352.113 244.346 352.317H244.366C244.497 352.113 244.684 351.948 244.928 351.824C245.171 351.692 245.437 351.626 245.726 351.626C246.351 351.626 246.844 351.791 247.205 352.119C247.573 352.448 247.757 352.882 247.757 353.421V357H246.584V353.687C246.584 353.431 246.508 353.22 246.357 353.056C246.213 352.892 245.986 352.81 245.677 352.81C245.388 352.81 245.164 352.885 245.006 353.036C244.855 353.187 244.78 353.381 244.78 353.618V357H243.606V353.687C243.606 353.437 243.527 353.23 243.37 353.066C243.212 352.895 242.988 352.81 242.699 352.81C242.403 352.81 242.18 352.885 242.029 353.036C241.878 353.187 241.802 353.381 241.802 353.618V357H240.56ZM250.373 353.845V354.92C250.373 355.222 250.474 355.478 250.678 355.689C250.882 355.892 251.155 355.994 251.497 355.994C251.871 355.994 252.177 355.856 252.414 355.58C252.657 355.304 252.778 354.906 252.778 354.387C252.778 353.868 252.66 353.47 252.423 353.194C252.187 352.918 251.878 352.78 251.497 352.78C251.155 352.78 250.882 352.885 250.678 353.095C250.474 353.299 250.373 353.549 250.373 353.845ZM249.091 359.218V351.774H250.313V352.277H250.333C250.346 352.257 250.363 352.234 250.382 352.208C250.402 352.175 250.451 352.123 250.53 352.05C250.616 351.978 250.708 351.912 250.806 351.853C250.905 351.794 251.036 351.741 251.201 351.695C251.372 351.649 251.552 351.626 251.743 351.626C252.361 351.626 252.9 351.876 253.36 352.376C253.827 352.869 254.06 353.539 254.06 354.387C254.06 355.242 253.837 355.915 253.39 356.408C252.943 356.901 252.4 357.148 251.763 357.148C251.572 357.148 251.395 357.125 251.23 357.079C251.073 357.033 250.944 356.98 250.846 356.921C250.747 356.855 250.662 356.793 250.589 356.734C250.517 356.668 250.465 356.612 250.432 356.566L250.392 356.497H250.373V359.218H249.091Z" fill="#7986A3"/>
<path d="M68.8366 562V555.098H73.2046V556.331H70.1677V557.879H72.9285V559.062H70.1677V560.768H73.2046V562H68.8366ZM74.4383 562V554.802H75.7694V562H74.4383ZM78.4354 558.904V559.86C78.4354 560.176 78.534 560.445 78.7312 560.669C78.935 560.886 79.2111 560.994 79.5594 560.994C79.9341 560.994 80.2233 560.86 80.4271 560.59C80.6375 560.314 80.7426 559.913 80.7426 559.387C80.7426 558.855 80.6375 558.454 80.4271 558.184C80.2233 557.915 79.9341 557.78 79.5594 557.78C79.2111 557.78 78.935 557.888 78.7312 558.105C78.534 558.322 78.4354 558.588 78.4354 558.904ZM77.1536 562V554.802H78.4354V557.277H78.4551C78.4683 557.257 78.4847 557.234 78.5044 557.208C78.5241 557.175 78.5734 557.123 78.6523 557.05C78.7378 556.978 78.8265 556.912 78.9185 556.853C79.0171 556.794 79.142 556.741 79.2932 556.695C79.451 556.649 79.6153 556.626 79.7862 556.626C80.4304 556.626 80.9628 556.883 81.3835 557.395C81.8108 557.902 82.0244 558.565 82.0244 559.387C82.0244 560.229 81.8174 560.899 81.4032 561.399C80.9957 561.898 80.4468 562.148 79.7566 562.148C79.474 562.148 79.2176 562.095 78.9876 561.99C78.7575 561.878 78.5997 561.77 78.5143 561.665L78.3762 561.497H78.3565V562H77.1536ZM84.2886 560.58C84.4989 560.856 84.7882 560.994 85.1563 560.994C85.5244 560.994 85.8136 560.856 86.0239 560.58C86.2343 560.298 86.3394 559.9 86.3394 559.387C86.3394 558.874 86.231 558.48 86.0141 558.204C85.8037 557.921 85.5178 557.78 85.1563 557.78C84.7947 557.78 84.5055 557.918 84.2886 558.194C84.0782 558.47 83.9731 558.868 83.9731 559.387C83.9731 559.906 84.0782 560.304 84.2886 560.58ZM86.9113 561.418C86.4512 561.905 85.8662 562.148 85.1563 562.148C84.4463 562.148 83.8613 561.905 83.4012 561.418C82.9411 560.932 82.711 560.255 82.711 559.387C82.711 558.533 82.9476 557.859 83.4209 557.366C83.8942 556.873 84.4726 556.626 85.1563 556.626C85.8399 556.626 86.4183 556.873 86.8916 557.366C87.3649 557.859 87.6015 558.533 87.6015 559.387C87.6015 560.255 87.3714 560.932 86.9113 561.418ZM89.4 562L88.2464 556.774H89.4986L90.1888 560.265H90.2184L91.3819 556.774H92.5453L93.6201 560.255H93.6398L94.4286 556.774H95.6611L94.4089 562H93.1468L91.9537 558.243H91.934L90.6424 562H89.4Z" fill="#7986A3"/>
<path d="M117.968 606.693L119.369 606.387C119.454 606.926 119.592 607.317 119.783 607.56C119.98 607.797 120.299 607.915 120.739 607.915C121.114 607.915 121.413 607.85 121.636 607.718C121.86 607.58 121.972 607.38 121.972 607.117C121.972 606.841 121.863 606.63 121.646 606.486C121.436 606.335 120.949 606.141 120.187 605.904C119.47 605.68 118.961 605.411 118.659 605.095C118.363 604.773 118.215 604.379 118.215 603.912C118.215 603.373 118.422 602.913 118.836 602.532C119.257 602.144 119.825 601.95 120.542 601.95C121.193 601.95 121.751 602.108 122.218 602.423C122.691 602.739 122.987 603.209 123.106 603.833L121.814 604.159C121.61 603.508 121.186 603.183 120.542 603.183C120.2 603.183 119.944 603.248 119.773 603.38C119.609 603.511 119.526 603.686 119.526 603.902C119.526 604.106 119.622 604.264 119.812 604.376C120.003 604.481 120.493 604.668 121.281 604.938C122.044 605.201 122.566 605.487 122.849 605.796C123.132 606.098 123.273 606.509 123.273 607.028C123.273 607.639 123.043 608.145 122.583 608.546C122.123 608.947 121.508 609.148 120.739 609.148C119.957 609.148 119.323 608.944 118.836 608.537C118.356 608.122 118.067 607.508 117.968 606.693ZM127.342 606.89L128.555 607.205C128.436 607.83 128.18 608.31 127.786 608.645C127.391 608.98 126.895 609.148 126.297 609.148C125.587 609.148 125.002 608.905 124.542 608.418C124.088 607.932 123.861 607.255 123.861 606.387C123.861 605.526 124.095 604.852 124.561 604.366C125.035 603.873 125.616 603.626 126.307 603.626C126.892 603.626 127.381 603.797 127.776 604.139C128.17 604.481 128.413 604.938 128.505 605.51L127.312 605.736C127.187 605.099 126.852 604.78 126.307 604.78C125.945 604.78 125.656 604.918 125.439 605.194C125.229 605.464 125.123 605.861 125.123 606.387C125.123 606.913 125.229 607.314 125.439 607.59C125.649 607.86 125.938 607.994 126.307 607.994C126.885 607.994 127.23 607.626 127.342 606.89ZM129.541 609V603.774H130.754V604.326H130.773C130.872 604.129 131.016 603.971 131.207 603.853C131.404 603.735 131.618 603.676 131.848 603.676C132.012 603.676 132.17 603.709 132.321 603.774L132.124 605.017C131.979 604.964 131.845 604.938 131.72 604.938C131.122 604.938 130.823 605.335 130.823 606.131V609H129.541ZM136.553 607.196L137.45 607.984C136.918 608.76 136.198 609.148 135.291 609.148C134.561 609.148 133.966 608.898 133.506 608.399C133.046 607.892 132.816 607.222 132.816 606.387C132.816 605.552 133.043 604.885 133.496 604.386C133.957 603.879 134.535 603.626 135.232 603.626C135.929 603.626 136.5 603.879 136.947 604.386C137.401 604.885 137.628 605.552 137.628 606.387V606.772H134.118C134.137 607.173 134.246 607.482 134.443 607.698C134.647 607.909 134.923 608.014 135.271 608.014C135.567 608.014 135.81 607.942 136.001 607.797C136.198 607.646 136.382 607.445 136.553 607.196ZM134.118 605.815H136.385C136.353 605.48 136.238 605.22 136.04 605.036C135.843 604.846 135.574 604.75 135.232 604.75C134.916 604.75 134.657 604.852 134.453 605.056C134.256 605.26 134.144 605.513 134.118 605.815ZM142.051 607.196L142.948 607.984C142.416 608.76 141.696 609.148 140.789 609.148C140.059 609.148 139.465 608.898 139.004 608.399C138.544 607.892 138.314 607.222 138.314 606.387C138.314 605.552 138.541 604.885 138.995 604.386C139.455 603.879 140.033 603.626 140.73 603.626C141.427 603.626 141.999 603.879 142.445 604.386C142.899 604.885 143.126 605.552 143.126 606.387V606.772H139.616C139.635 607.173 139.744 607.482 139.941 607.698C140.145 607.909 140.421 608.014 140.769 608.014C141.065 608.014 141.308 607.942 141.499 607.797C141.696 607.646 141.88 607.445 142.051 607.196ZM139.616 605.815H141.883C141.851 605.48 141.736 605.22 141.538 605.036C141.341 604.846 141.072 604.75 140.73 604.75C140.414 604.75 140.155 604.852 139.951 605.056C139.754 605.26 139.642 605.513 139.616 605.815ZM144.157 609V603.774H145.39V604.277H145.41C145.554 604.093 145.751 603.939 146.001 603.814C146.251 603.689 146.514 603.626 146.79 603.626C147.368 603.626 147.822 603.801 148.151 604.149C148.479 604.491 148.644 604.967 148.644 605.579V609H147.362V605.894C147.362 605.533 147.293 605.263 147.155 605.086C147.017 604.902 146.78 604.81 146.445 604.81C146.129 604.81 145.883 604.902 145.705 605.086C145.528 605.263 145.439 605.503 145.439 605.805V609H144.157ZM149.579 607.275L150.732 606.979C150.824 607.708 151.216 608.073 151.906 608.073C152.221 608.073 152.471 608.024 152.655 607.925C152.846 607.82 152.941 607.675 152.941 607.491C152.941 607.34 152.869 607.229 152.724 607.156C152.579 607.077 152.277 606.972 151.817 606.841C151.692 606.808 151.597 606.782 151.531 606.762C150.926 606.591 150.483 606.39 150.2 606.16C149.917 605.924 149.776 605.611 149.776 605.224C149.776 604.79 149.95 604.415 150.299 604.1C150.653 603.784 151.137 603.626 151.748 603.626C152.918 603.626 153.651 604.139 153.947 605.164L152.882 605.49C152.79 605.24 152.658 605.043 152.487 604.898C152.323 604.754 152.08 604.681 151.758 604.681C151.508 604.681 151.308 604.731 151.156 604.829C151.012 604.921 150.939 605.033 150.939 605.164C150.939 605.309 151.025 605.424 151.196 605.51C151.373 605.588 151.81 605.727 152.507 605.924C153.118 606.088 153.533 606.298 153.75 606.555C153.973 606.805 154.085 607.127 154.085 607.521C154.085 607.942 153.901 608.32 153.533 608.655C153.171 608.984 152.645 609.148 151.955 609.148C151.232 609.148 150.673 608.967 150.279 608.606C149.891 608.237 149.658 607.794 149.579 607.275Z" fill="#7986A3"/>
<path d="M466.495 429V422.098H469.423C470.034 422.098 470.524 422.279 470.892 422.64C471.267 422.995 471.454 423.432 471.454 423.952C471.454 424.53 471.204 424.967 470.705 425.263V425.273C471.001 425.398 471.241 425.598 471.425 425.874C471.615 426.144 471.711 426.469 471.711 426.851C471.711 427.508 471.51 428.034 471.109 428.428C470.708 428.809 470.048 429 469.127 429H466.495ZM467.826 427.768H469.433C470.064 427.768 470.379 427.462 470.379 426.851C470.379 426.568 470.294 426.351 470.123 426.2C469.959 426.042 469.732 425.963 469.443 425.963H467.826V427.768ZM467.826 424.879H469.255C469.525 424.879 469.735 424.816 469.886 424.691C470.044 424.56 470.123 424.369 470.123 424.119C470.123 423.856 470.048 423.659 469.896 423.528C469.745 423.396 469.532 423.331 469.255 423.331H467.826V424.879ZM475.363 429V422.098H476.694V424.879H479.06V422.098H480.391V429H479.06V426.012H476.694V429H475.363ZM485.261 427.196L486.159 427.984C485.626 428.76 484.906 429.148 483.999 429.148C483.27 429.148 482.675 428.898 482.215 428.399C481.755 427.892 481.524 427.222 481.524 426.387C481.524 425.552 481.751 424.885 482.205 424.386C482.665 423.879 483.243 423.626 483.94 423.626C484.637 423.626 485.209 423.879 485.656 424.386C486.109 424.885 486.336 425.552 486.336 426.387V426.772H482.826C482.846 427.173 482.954 427.482 483.151 427.698C483.355 427.909 483.631 428.014 483.98 428.014C484.275 428.014 484.519 427.942 484.709 427.797C484.906 427.646 485.09 427.445 485.261 427.196ZM482.826 425.815H485.094C485.061 425.48 484.946 425.22 484.749 425.036C484.551 424.846 484.282 424.75 483.94 424.75C483.625 424.75 483.365 424.852 483.161 425.056C482.964 425.26 482.852 425.513 482.826 425.815ZM490.345 429V428.497H490.326C490.312 428.517 490.296 428.543 490.276 428.576C490.257 428.602 490.207 428.652 490.128 428.724C490.05 428.796 489.961 428.862 489.862 428.921C489.764 428.98 489.629 429.033 489.458 429.079C489.287 429.125 489.103 429.148 488.906 429.148C488.275 429.148 487.801 429 487.486 428.704C487.177 428.402 487.023 428.034 487.023 427.6C487.023 427.146 487.157 426.801 487.427 426.565C487.696 426.328 488.153 426.131 488.797 425.973C489.395 425.828 489.77 425.713 489.921 425.628C490.073 425.542 490.148 425.421 490.148 425.263C490.148 425.105 490.073 424.974 489.921 424.869C489.777 424.764 489.557 424.711 489.261 424.711C488.912 424.711 488.663 424.79 488.511 424.948C488.36 425.099 488.242 425.306 488.156 425.569L487.092 425.125C487.216 424.685 487.46 424.326 487.821 424.05C488.183 423.768 488.656 423.626 489.241 423.626C489.879 423.626 490.401 423.794 490.809 424.129C491.216 424.464 491.42 424.984 491.42 425.687V429H490.345ZM489.054 426.86C488.725 426.939 488.508 427.035 488.403 427.146C488.304 427.252 488.255 427.373 488.255 427.511C488.255 427.866 488.511 428.044 489.024 428.044C489.412 428.044 489.701 427.971 489.892 427.827C490.089 427.675 490.188 427.491 490.188 427.275V426.367H490.168C490.142 426.42 490.112 426.463 490.079 426.496C490.053 426.522 489.954 426.571 489.783 426.643C489.612 426.709 489.369 426.782 489.054 426.86ZM493.902 429L491.812 423.774H493.143L494.445 427.136H494.464L495.766 423.774H497.077L494.987 429H493.902ZM501.062 427.196L501.96 427.984C501.427 428.76 500.707 429.148 499.8 429.148C499.071 429.148 498.476 428.898 498.016 428.399C497.555 427.892 497.325 427.222 497.325 426.387C497.325 425.552 497.552 424.885 498.006 424.386C498.466 423.879 499.044 423.626 499.741 423.626C500.438 423.626 501.01 423.879 501.457 424.386C501.91 424.885 502.137 425.552 502.137 426.387V426.772H498.627C498.647 427.173 498.755 427.482 498.952 427.698C499.156 427.909 499.432 428.014 499.78 428.014C500.076 428.014 500.32 427.942 500.51 427.797C500.707 427.646 500.891 427.445 501.062 427.196ZM498.627 425.815H500.895C500.862 425.48 500.747 425.22 500.55 425.036C500.352 424.846 500.083 424.75 499.741 424.75C499.426 424.75 499.166 424.852 498.962 425.056C498.765 425.26 498.653 425.513 498.627 425.815ZM503.169 429V423.774H504.401V424.277H504.421C504.565 424.093 504.763 423.939 505.012 423.814C505.262 423.689 505.525 423.626 505.801 423.626C506.38 423.626 506.833 423.801 507.162 424.149C507.49 424.491 507.655 424.967 507.655 425.579V429H506.373V425.894C506.373 425.533 506.304 425.263 506.166 425.086C506.028 424.902 505.791 424.81 505.456 424.81C505.141 424.81 504.894 424.902 504.717 425.086C504.539 425.263 504.45 425.503 504.45 425.805V429H503.169Z" fill="#7986A3"/>
<path d="M518.779 472V465.098H521.707C522.318 465.098 522.808 465.279 523.176 465.64C523.551 465.995 523.738 466.432 523.738 466.952C523.738 467.53 523.488 467.967 522.989 468.263V468.273C523.285 468.398 523.525 468.598 523.709 468.874C523.899 469.144 523.995 469.469 523.995 469.851C523.995 470.508 523.794 471.034 523.393 471.428C522.992 471.809 522.332 472 521.411 472H518.779ZM520.11 470.768H521.717C522.348 470.768 522.664 470.462 522.664 469.851C522.664 469.568 522.578 469.351 522.407 469.2C522.243 469.042 522.016 468.963 521.727 468.963H520.11V470.768ZM520.11 467.879H521.539C521.809 467.879 522.019 467.816 522.171 467.691C522.328 467.56 522.407 467.369 522.407 467.119C522.407 466.856 522.332 466.659 522.18 466.528C522.029 466.396 521.816 466.331 521.539 466.331H520.11V467.879ZM527.647 472V465.098H530.447C531.157 465.098 531.729 465.299 532.163 465.7C532.603 466.094 532.823 466.626 532.823 467.297C532.823 467.796 532.692 468.22 532.429 468.569C532.173 468.917 531.818 469.164 531.364 469.308L532.833 472H531.394L530.003 469.436H528.978V472H527.647ZM528.978 468.283H530.339C531.095 468.283 531.472 467.954 531.472 467.297C531.472 466.633 531.095 466.301 530.339 466.301H528.978V468.283ZM536.794 472V471.497H536.775C536.761 471.517 536.745 471.543 536.725 471.576C536.706 471.602 536.656 471.652 536.577 471.724C536.499 471.796 536.41 471.862 536.311 471.921C536.213 471.98 536.078 472.033 535.907 472.079C535.736 472.125 535.552 472.148 535.355 472.148C534.724 472.148 534.25 472 533.935 471.704C533.626 471.402 533.472 471.034 533.472 470.6C533.472 470.146 533.606 469.801 533.876 469.565C534.145 469.328 534.602 469.131 535.246 468.973C535.844 468.828 536.219 468.713 536.37 468.628C536.522 468.542 536.597 468.421 536.597 468.263C536.597 468.105 536.522 467.974 536.37 467.869C536.226 467.764 536.006 467.711 535.71 467.711C535.361 467.711 535.112 467.79 534.96 467.948C534.809 468.099 534.691 468.306 534.605 468.569L533.541 468.125C533.665 467.685 533.909 467.326 534.27 467.05C534.632 466.768 535.105 466.626 535.69 466.626C536.328 466.626 536.85 466.794 537.258 467.129C537.665 467.464 537.869 467.984 537.869 468.687V472H536.794ZM535.503 469.86C535.174 469.939 534.957 470.035 534.852 470.146C534.753 470.252 534.704 470.373 534.704 470.511C534.704 470.866 534.96 471.044 535.473 471.044C535.861 471.044 536.15 470.971 536.341 470.827C536.538 470.675 536.637 470.491 536.637 470.275V469.367H536.617C536.591 469.42 536.561 469.463 536.528 469.496C536.502 469.522 536.403 469.571 536.232 469.643C536.061 469.709 535.818 469.782 535.503 469.86ZM539.417 472V467.859H538.609V466.774H539.447V466.035C539.447 465.588 539.562 465.272 539.792 465.088C540.029 464.898 540.37 464.802 540.817 464.802H541.843V465.936H541.084C540.926 465.936 540.814 465.969 540.748 466.035C540.689 466.094 540.66 466.199 540.66 466.35V466.774H541.981V467.859H540.699V472H539.417ZM542.941 470.136V467.859H542.133V466.774H542.971V465.492H544.184V466.774H545.505V467.859H544.203V470.018C544.203 470.294 544.249 470.488 544.341 470.6C544.433 470.712 544.621 470.768 544.903 470.768H545.327V472H544.785C544.082 472 543.599 471.852 543.336 471.556C543.073 471.261 542.941 470.787 542.941 470.136ZM549.88 470.196L550.777 470.984C550.245 471.76 549.525 472.148 548.618 472.148C547.888 472.148 547.293 471.898 546.833 471.399C546.373 470.892 546.143 470.222 546.143 469.387C546.143 468.552 546.37 467.885 546.823 467.386C547.284 466.879 547.862 466.626 548.559 466.626C549.255 466.626 549.827 466.879 550.274 467.386C550.728 467.885 550.955 468.552 550.955 469.387V469.772H547.445C547.464 470.173 547.573 470.482 547.77 470.698C547.974 470.909 548.25 471.014 548.598 471.014C548.894 471.014 549.137 470.942 549.328 470.797C549.525 470.646 549.709 470.445 549.88 470.196ZM547.445 468.815H549.712C549.679 468.48 549.564 468.22 549.367 468.036C549.17 467.846 548.901 467.75 548.559 467.75C548.243 467.75 547.984 467.852 547.78 468.056C547.583 468.26 547.471 468.513 547.445 468.815ZM551.986 472V466.774H553.199V467.326H553.219C553.317 467.129 553.462 466.971 553.653 466.853C553.85 466.735 554.063 466.676 554.293 466.676C554.458 466.676 554.616 466.709 554.767 466.774L554.57 468.017C554.425 467.964 554.29 467.938 554.165 467.938C553.567 467.938 553.268 468.335 553.268 469.131V472H551.986ZM555.212 470.275L556.366 469.979C556.458 470.708 556.849 471.073 557.539 471.073C557.855 471.073 558.104 471.024 558.289 470.925C558.479 470.82 558.574 470.675 558.574 470.491C558.574 470.34 558.502 470.229 558.358 470.156C558.213 470.077 557.911 469.972 557.45 469.841C557.326 469.808 557.23 469.782 557.165 469.762C556.56 469.591 556.116 469.39 555.833 469.16C555.551 468.924 555.409 468.611 555.409 468.224C555.409 467.79 555.584 467.415 555.932 467.1C556.287 466.784 556.77 466.626 557.381 466.626C558.551 466.626 559.284 467.139 559.58 468.164L558.515 468.49C558.423 468.24 558.292 468.043 558.121 467.898C557.957 467.754 557.713 467.681 557.391 467.681C557.142 467.681 556.941 467.731 556.79 467.829C556.645 467.921 556.573 468.033 556.573 468.164C556.573 468.309 556.658 468.424 556.829 468.51C557.007 468.588 557.444 468.727 558.141 468.924C558.752 469.088 559.166 469.298 559.383 469.555C559.606 469.805 559.718 470.127 559.718 470.521C559.718 470.942 559.534 471.32 559.166 471.655C558.805 471.984 558.279 472.148 557.588 472.148C556.865 472.148 556.307 471.967 555.912 471.606C555.524 471.237 555.291 470.794 555.212 470.275Z" fill="#7986A3"/>
<path d="M663.983 514V507.098H666.911C667.523 507.098 668.012 507.279 668.381 507.64C668.755 507.995 668.943 508.432 668.943 508.952C668.943 509.53 668.693 509.967 668.193 510.263V510.273C668.489 510.398 668.729 510.598 668.913 510.874C669.104 511.144 669.199 511.469 669.199 511.851C669.199 512.508 668.998 513.034 668.598 513.428C668.197 513.809 667.536 514 666.616 514H663.983ZM665.314 512.768H666.921C667.552 512.768 667.868 512.462 667.868 511.851C667.868 511.568 667.782 511.351 667.612 511.2C667.447 511.042 667.22 510.963 666.931 510.963H665.314V512.768ZM665.314 509.879H666.744C667.013 509.879 667.224 509.816 667.375 509.691C667.533 509.56 667.612 509.369 667.612 509.119C667.612 508.856 667.536 508.659 667.385 508.528C667.234 508.396 667.02 508.331 666.744 508.331H665.314V509.879ZM673.265 514V513.497H673.246C673.232 513.517 673.216 513.543 673.196 513.576C673.177 513.602 673.127 513.652 673.048 513.724C672.97 513.796 672.881 513.862 672.782 513.921C672.684 513.98 672.549 514.033 672.378 514.079C672.207 514.125 672.023 514.148 671.826 514.148C671.195 514.148 670.721 514 670.406 513.704C670.097 513.402 669.943 513.034 669.943 512.6C669.943 512.146 670.077 511.801 670.347 511.565C670.616 511.328 671.073 511.131 671.717 510.973C672.316 510.828 672.69 510.713 672.841 510.628C672.993 510.542 673.068 510.421 673.068 510.263C673.068 510.105 672.993 509.974 672.841 509.869C672.697 509.764 672.477 509.711 672.181 509.711C671.832 509.711 671.583 509.79 671.431 509.948C671.28 510.099 671.162 510.306 671.076 510.569L670.012 510.125C670.136 509.685 670.38 509.326 670.741 509.05C671.103 508.768 671.576 508.626 672.161 508.626C672.799 508.626 673.321 508.794 673.729 509.129C674.136 509.464 674.34 509.984 674.34 510.687V514H673.265ZM671.974 511.86C671.645 511.939 671.428 512.035 671.323 512.146C671.224 512.252 671.175 512.373 671.175 512.511C671.175 512.866 671.431 513.044 671.944 513.044C672.332 513.044 672.621 512.971 672.812 512.827C673.009 512.675 673.108 512.491 673.108 512.275V511.367H673.088C673.062 511.42 673.032 511.463 672.999 511.496C672.973 511.522 672.874 511.571 672.703 511.643C672.532 511.709 672.289 511.782 671.974 511.86ZM678.757 511.89L679.97 512.205C679.852 512.83 679.596 513.31 679.201 513.645C678.807 513.98 678.31 514.148 677.712 514.148C677.002 514.148 676.417 513.905 675.957 513.418C675.504 512.932 675.277 512.255 675.277 511.387C675.277 510.526 675.51 509.852 675.977 509.366C676.45 508.873 677.032 508.626 677.722 508.626C678.307 508.626 678.797 508.797 679.191 509.139C679.586 509.481 679.829 509.938 679.921 510.51L678.728 510.736C678.603 510.099 678.268 509.78 677.722 509.78C677.361 509.78 677.071 509.918 676.855 510.194C676.644 510.464 676.539 510.861 676.539 511.387C676.539 511.913 676.644 512.314 676.855 512.59C677.065 512.86 677.354 512.994 677.722 512.994C678.301 512.994 678.646 512.626 678.757 511.89ZM680.956 514V506.802H682.238V510.934H682.258L684.161 508.774H685.768L683.885 510.894L685.936 514H684.516L682.919 511.614H682.899L682.238 512.363V514H680.956ZM689.191 514V507.098H692.12C692.731 507.098 693.221 507.279 693.589 507.64C693.964 507.995 694.151 508.432 694.151 508.952C694.151 509.53 693.901 509.967 693.402 510.263V510.273C693.697 510.398 693.937 510.598 694.121 510.874C694.312 511.144 694.407 511.469 694.407 511.851C694.407 512.508 694.207 513.034 693.806 513.428C693.405 513.809 692.744 514 691.824 514H689.191ZM690.522 512.768H692.13C692.761 512.768 693.076 512.462 693.076 511.851C693.076 511.568 692.991 511.351 692.82 511.2C692.655 511.042 692.429 510.963 692.139 510.963H690.522V512.768ZM690.522 509.879H691.952C692.222 509.879 692.432 509.816 692.583 509.691C692.741 509.56 692.82 509.369 692.82 509.119C692.82 508.856 692.744 508.659 692.593 508.528C692.442 508.396 692.228 508.331 691.952 508.331H690.522V509.879Z" fill="#7986A3"/>
<path d="M601.277 320V313.098H604.205C604.816 313.098 605.306 313.279 605.674 313.64C606.049 313.995 606.236 314.432 606.236 314.952C606.236 315.53 605.987 315.967 605.487 316.263V316.273C605.783 316.398 606.023 316.598 606.207 316.874C606.397 317.144 606.493 317.469 606.493 317.851C606.493 318.508 606.292 319.034 605.891 319.428C605.49 319.809 604.83 320 603.909 320H601.277ZM602.608 318.768H604.215C604.846 318.768 605.162 318.462 605.162 317.851C605.162 317.568 605.076 317.351 604.905 317.2C604.741 317.042 604.514 316.963 604.225 316.963H602.608V318.768ZM602.608 315.879H604.038C604.307 315.879 604.517 315.816 604.669 315.691C604.826 315.56 604.905 315.369 604.905 315.119C604.905 314.856 604.83 314.659 604.678 314.528C604.527 314.396 604.314 314.331 604.038 314.331H602.608V315.879ZM610.145 320V313.098H611.515L613.517 317.574H613.537L615.538 313.098H616.919V320H615.617V315.76H615.597L613.635 320H613.418L611.456 315.76H611.437V320H610.145ZM621.372 320V319.497H621.352C621.339 319.517 621.323 319.543 621.303 319.576C621.283 319.602 621.234 319.652 621.155 319.724C621.076 319.796 620.988 319.862 620.889 319.921C620.79 319.98 620.656 320.033 620.485 320.079C620.314 320.125 620.13 320.148 619.933 320.148C619.302 320.148 618.828 320 618.513 319.704C618.204 319.402 618.049 319.034 618.049 318.6C618.049 318.146 618.184 317.801 618.454 317.565C618.723 317.328 619.18 317.131 619.824 316.973C620.422 316.828 620.797 316.713 620.948 316.628C621.099 316.542 621.175 316.421 621.175 316.263C621.175 316.105 621.099 315.974 620.948 315.869C620.804 315.764 620.583 315.711 620.288 315.711C619.939 315.711 619.689 315.79 619.538 315.948C619.387 316.099 619.269 316.306 619.183 316.569L618.118 316.125C618.243 315.685 618.487 315.326 618.848 315.05C619.21 314.768 619.683 314.626 620.268 314.626C620.905 314.626 621.428 314.794 621.836 315.129C622.243 315.464 622.447 315.984 622.447 316.687V320H621.372ZM620.081 317.86C619.752 317.939 619.535 318.035 619.43 318.146C619.331 318.252 619.282 318.373 619.282 318.511C619.282 318.866 619.538 319.044 620.051 319.044C620.439 319.044 620.728 318.971 620.919 318.827C621.116 318.675 621.214 318.491 621.214 318.275V317.367H621.195C621.168 317.42 621.139 317.463 621.106 317.496C621.08 317.522 620.981 317.571 620.81 317.643C620.639 317.709 620.396 317.782 620.081 317.86ZM623.729 320V314.774H625.011V320H623.729ZM623.729 314.015V312.802H625.011V314.015H623.729ZM626.386 320V314.774H627.619V315.277H627.639C627.783 315.093 627.98 314.939 628.23 314.814C628.48 314.689 628.743 314.626 629.019 314.626C629.597 314.626 630.051 314.801 630.38 315.149C630.708 315.491 630.873 315.967 630.873 316.579V320H629.591V316.894C629.591 316.533 629.522 316.263 629.384 316.086C629.246 315.902 629.009 315.81 628.674 315.81C628.358 315.81 628.112 315.902 627.934 316.086C627.757 316.263 627.668 316.503 627.668 316.805V320H626.386Z" fill="#7986A3"/>
<path d="M553.171 570V563.098H556.099C556.711 563.098 557.2 563.279 557.568 563.64C557.943 563.995 558.13 564.432 558.13 564.952C558.13 565.53 557.881 565.967 557.381 566.263V566.273C557.677 566.398 557.917 566.598 558.101 566.874C558.291 567.144 558.387 567.469 558.387 567.851C558.387 568.508 558.186 569.034 557.785 569.428C557.384 569.809 556.724 570 555.803 570H553.171ZM554.502 568.768H556.109C556.74 568.768 557.056 568.462 557.056 567.851C557.056 567.568 556.97 567.351 556.799 567.2C556.635 567.042 556.408 566.963 556.119 566.963H554.502V568.768ZM554.502 565.879H555.932C556.201 565.879 556.411 565.816 556.563 565.691C556.72 565.56 556.799 565.369 556.799 565.119C556.799 564.856 556.724 564.659 556.573 564.528C556.421 564.396 556.208 564.331 555.932 564.331H554.502V565.879ZM566.042 570L565.648 568.866H563.015L562.621 570H561.299L563.794 563.098H564.928L567.413 570H566.042ZM564.326 565.07L563.39 567.762H565.273L564.346 565.07H564.326ZM568.151 570V562.802H569.482V570H568.151ZM570.866 570V562.802H572.197V570H570.866ZM576.973 568.196L577.871 568.984C577.338 569.76 576.618 570.148 575.711 570.148C574.982 570.148 574.387 569.898 573.927 569.399C573.467 568.892 573.237 568.222 573.237 567.387C573.237 566.552 573.463 565.885 573.917 565.386C574.377 564.879 574.955 564.626 575.652 564.626C576.349 564.626 576.921 564.879 577.368 565.386C577.821 565.885 578.048 566.552 578.048 567.387V567.772H574.538C574.558 568.173 574.666 568.482 574.863 568.698C575.067 568.909 575.343 569.014 575.692 569.014C575.987 569.014 576.231 568.942 576.421 568.797C576.618 568.646 576.803 568.445 576.973 568.196ZM574.538 566.815H576.806C576.773 566.48 576.658 566.22 576.461 566.036C576.264 565.846 575.994 565.75 575.652 565.75C575.337 565.75 575.077 565.852 574.873 566.056C574.676 566.26 574.564 566.513 574.538 566.815ZM579.291 572.218L580.337 569.744L578.246 564.774H579.548L580.899 568.314H580.918L582.269 564.774H583.571L580.563 572.218H579.291Z" fill="#7986A3"/>
<path d="M415.197 497V490.098H418.125C418.737 490.098 419.226 490.279 419.594 490.64C419.969 490.995 420.156 491.432 420.156 491.952C420.156 492.53 419.907 492.967 419.407 493.263V493.273C419.703 493.398 419.943 493.598 420.127 493.874C420.318 494.144 420.413 494.469 420.413 494.851C420.413 495.508 420.212 496.034 419.811 496.428C419.41 496.809 418.75 497 417.83 497H415.197ZM416.528 495.768H418.135C418.766 495.768 419.082 495.462 419.082 494.851C419.082 494.568 418.996 494.351 418.825 494.2C418.661 494.042 418.434 493.963 418.145 493.963H416.528V495.768ZM416.528 492.879H417.958C418.227 492.879 418.438 492.816 418.589 492.691C418.746 492.56 418.825 492.369 418.825 492.119C418.825 491.856 418.75 491.659 418.599 491.528C418.447 491.396 418.234 491.331 417.958 491.331H416.528V492.879ZM423.621 494.693L425.021 494.387C425.107 494.926 425.245 495.317 425.436 495.56C425.633 495.797 425.952 495.915 426.392 495.915C426.767 495.915 427.066 495.85 427.289 495.718C427.513 495.58 427.625 495.38 427.625 495.117C427.625 494.841 427.516 494.63 427.299 494.486C427.089 494.335 426.602 494.141 425.84 493.904C425.123 493.68 424.614 493.411 424.312 493.095C424.016 492.773 423.868 492.379 423.868 491.912C423.868 491.373 424.075 490.913 424.489 490.532C424.91 490.144 425.478 489.95 426.195 489.95C426.846 489.95 427.404 490.108 427.871 490.423C428.344 490.739 428.64 491.209 428.758 491.833L427.467 492.159C427.263 491.508 426.839 491.183 426.195 491.183C425.853 491.183 425.597 491.248 425.426 491.38C425.261 491.511 425.179 491.686 425.179 491.902C425.179 492.106 425.275 492.264 425.465 492.376C425.656 492.481 426.146 492.668 426.934 492.938C427.697 493.201 428.219 493.487 428.502 493.796C428.785 494.098 428.926 494.509 428.926 495.028C428.926 495.639 428.696 496.145 428.236 496.546C427.776 496.947 427.161 497.148 426.392 497.148C425.61 497.148 424.975 496.944 424.489 496.537C424.009 496.122 423.72 495.508 423.621 494.693ZM430.126 495.136V492.859H429.317V491.774H430.155V490.492H431.368V491.774H432.689V492.859H431.388V495.018C431.388 495.294 431.434 495.488 431.526 495.6C431.618 495.712 431.805 495.768 432.088 495.768H432.512V497H431.969C431.266 497 430.783 496.852 430.52 496.556C430.257 496.261 430.126 495.787 430.126 495.136ZM436.554 497V496.497H436.534C436.521 496.517 436.504 496.543 436.485 496.576C436.465 496.602 436.416 496.652 436.337 496.724C436.258 496.796 436.169 496.862 436.071 496.921C435.972 496.98 435.837 497.033 435.666 497.079C435.495 497.125 435.311 497.148 435.114 497.148C434.483 497.148 434.01 497 433.694 496.704C433.385 496.402 433.231 496.034 433.231 495.6C433.231 495.146 433.366 494.801 433.635 494.565C433.905 494.328 434.362 494.131 435.006 493.973C435.604 493.828 435.979 493.713 436.13 493.628C436.281 493.542 436.357 493.421 436.357 493.263C436.357 493.105 436.281 492.974 436.13 492.869C435.985 492.764 435.765 492.711 435.469 492.711C435.121 492.711 434.871 492.79 434.72 492.948C434.569 493.099 434.45 493.306 434.365 493.569L433.3 493.125C433.425 492.685 433.668 492.326 434.03 492.05C434.391 491.768 434.864 491.626 435.449 491.626C436.087 491.626 436.61 491.794 437.017 492.129C437.425 492.464 437.628 492.984 437.628 493.687V497H436.554ZM435.262 494.86C434.933 494.939 434.717 495.035 434.611 495.146C434.513 495.252 434.463 495.373 434.463 495.511C434.463 495.866 434.72 496.044 435.233 496.044C435.62 496.044 435.91 495.971 436.1 495.827C436.297 495.675 436.396 495.491 436.396 495.275V494.367H436.376C436.35 494.42 436.32 494.463 436.288 494.496C436.261 494.522 436.163 494.571 435.992 494.643C435.821 494.709 435.578 494.782 435.262 494.86ZM438.91 497V491.774H440.192V497H438.91ZM438.91 491.015V489.802H440.192V491.015H438.91ZM441.568 497V491.774H442.781V492.326H442.8C442.899 492.129 443.044 491.971 443.234 491.853C443.431 491.735 443.645 491.676 443.875 491.676C444.04 491.676 444.197 491.709 444.348 491.774L444.151 493.017C444.007 492.964 443.872 492.938 443.747 492.938C443.149 492.938 442.85 493.335 442.85 494.131V497H441.568ZM444.794 495.275L445.948 494.979C446.04 495.708 446.431 496.073 447.121 496.073C447.436 496.073 447.686 496.024 447.87 495.925C448.061 495.82 448.156 495.675 448.156 495.491C448.156 495.34 448.084 495.229 447.939 495.156C447.795 495.077 447.492 494.972 447.032 494.841C446.907 494.808 446.812 494.782 446.746 494.762C446.142 494.591 445.698 494.39 445.415 494.16C445.133 493.924 444.991 493.611 444.991 493.224C444.991 492.79 445.165 492.415 445.514 492.1C445.869 491.784 446.352 491.626 446.963 491.626C448.133 491.626 448.866 492.139 449.162 493.164L448.097 493.49C448.005 493.24 447.874 493.043 447.703 492.898C447.538 492.754 447.295 492.681 446.973 492.681C446.723 492.681 446.523 492.731 446.372 492.829C446.227 492.921 446.155 493.033 446.155 493.164C446.155 493.309 446.24 493.424 446.411 493.51C446.589 493.588 447.026 493.727 447.722 493.924C448.334 494.088 448.748 494.298 448.965 494.555C449.188 494.805 449.3 495.127 449.3 495.521C449.3 495.942 449.116 496.32 448.748 496.655C448.386 496.984 447.86 497.148 447.17 497.148C446.447 497.148 445.888 496.967 445.494 496.606C445.106 496.237 444.873 495.794 444.794 495.275Z" fill="#7986A3"/>
<path opacity="0.5" d="M97 499.892C97 502.161 95.1607 504 92.8917 504H72.1083C69.8393 504 68 505.839 68 508.108V532.892C68 535.161 66.1607 537 63.8917 537H13.1083C10.8393 537 9 535.161 9 532.892V513.5C9 512.672 9.67157 512 10.5 512C11.3284 512 12 511.328 12 510.5L12 425.5C12 424.672 11.3284 424 10.5 424C9.67157 424 9 423.328 9 422.5V405.108C9 402.839 10.8393 401 13.1083 401H33.3707C34.4173 401 35.4243 401.399 36.1864 402.117L67.8136 431.883C68.5757 432.601 69.5827 433 70.6293 433H92.8917C95.1607 433 97 434.839 97 437.108L97 499.892Z" fill="#4D5F83" fill-opacity="0.15" stroke="#4D5F83" stroke-width="1.64332" stroke-miterlimit="16"/>
<g opacity="0.15">
<mask id="mask0" mask-type="alpha" maskUnits="userSpaceOnUse" x="9" y="401" width="88" height="136">
<path d="M97 499.892C97 502.161 95.1607 504 92.8917 504H72.1083C69.8393 504 68 505.839 68 508.108V532.892C68 535.161 66.1607 537 63.8917 537H13.1083C10.8393 537 9 535.161 9 532.892V513.5C9 512.672 9.67157 512 10.5 512C11.3284 512 12 511.328 12 510.5L12 425.5C12 424.672 11.3284 424 10.5 424C9.67157 424 9 423.328 9 422.5V405.108C9 402.839 10.8393 401 13.1083 401H33.3707C34.4173 401 35.4243 401.399 36.1864 402.117L67.8136 431.883C68.5757 432.601 69.5827 433 70.6293 433H92.8917C95.1607 433 97 434.839 97 437.108L97 499.892Z" fill="#C4C4C4"/>
</mask>
<g mask="url(#mask0)">
<rect width="182.241" height="3.70032" transform="matrix(-0.703677 0.703134 -0.703677 -0.703134 62.6989 353.186)" fill="#4D5F83"/>
<rect width="182.241" height="3.70032" transform="matrix(-0.703676 0.703134 -0.703676 -0.703134 67.9056 358.389)" fill="#4D5F83"/>
<rect width="182.241" height="3.70032" transform="matrix(-0.703676 0.703134 -0.703676 -0.703134 73.1138 363.594)" fill="#4D5F83"/>
<rect width="182.241" height="3.70032" transform="matrix(-0.703676 0.703134 -0.703676 -0.703134 78.3216 368.797)" fill="#4D5F83"/>
<rect width="182.241" height="3.70032" transform="matrix(-0.703676 0.703134 -0.703676 -0.703134 83.5292 374.001)" fill="#4D5F83"/>
<rect width="182.241" height="3.70032" transform="matrix(-0.703676 0.703134 -0.703676 -0.703134 88.7364 379.204)" fill="#4D5F83"/>
<rect width="182.241" height="3.70032" transform="matrix(-0.703676 0.703134 -0.703676 -0.703134 93.9446 384.408)" fill="#4D5F83"/>
<rect width="182.241" height="3.70032" transform="matrix(-0.703676 0.703134 -0.703676 -0.703134 99.1519 389.611)" fill="#4D5F83"/>
<rect width="182.241" height="3.70032" transform="matrix(-0.703676 0.703134 -0.703676 -0.703134 104.36 394.814)" fill="#4D5F83"/>
<rect width="182.241" height="3.70032" transform="matrix(-0.703676 0.703134 -0.703676 -0.703134 109.567 400.018)" fill="#4D5F83"/>
<rect width="182.241" height="3.70032" transform="matrix(-0.703676 0.703134 -0.703676 -0.703134 114.775 405.222)" fill="#4D5F83"/>
<rect width="182.241" height="3.70032" transform="matrix(-0.703676 0.703134 -0.703676 -0.703134 119.983 410.425)" fill="#4D5F83"/>
<rect width="182.241" height="3.70032" transform="matrix(-0.703676 0.703134 -0.703676 -0.703134 125.191 415.629)" fill="#4D5F83"/>
<rect width="182.241" height="3.70032" transform="matrix(-0.703677 0.703134 -0.703677 -0.703134 130.398 420.833)" fill="#4D5F83"/>
<rect width="182.241" height="3.70032" transform="matrix(-0.703677 0.703134 -0.703677 -0.703134 135.605 426.037)" fill="#4D5F83"/>
<rect width="182.241" height="3.70032" transform="matrix(-0.703676 0.703134 -0.703676 -0.703134 140.814 431.241)" fill="#4D5F83"/>
<rect width="182.241" height="3.70032" transform="matrix(-0.703676 0.703134 -0.703676 -0.703134 146.021 436.444)" fill="#4D5F83"/>
<rect width="182.241" height="3.70032" transform="matrix(-0.703676 0.703134 -0.703676 -0.703134 151.229 441.647)" fill="#4D5F83"/>
<rect width="182.241" height="3.70032" transform="matrix(-0.703676 0.703134 -0.703676 -0.703134 156.436 446.851)" fill="#4D5F83"/>
<rect width="182.241" height="3.70032" transform="matrix(-0.703676 0.703134 -0.703676 -0.703134 161.644 452.055)" fill="#4D5F83"/>
<rect width="182.241" height="3.70032" transform="matrix(-0.703676 0.703134 -0.703676 -0.703134 166.852 457.258)" fill="#4D5F83"/>
</g>
</g>
<rect opacity="0.5" x="542" y="455" width="86" height="50" rx="4.1083" fill="#4D5F83" fill-opacity="0.15" stroke="#4D5F83" stroke-width="1.64332" stroke-miterlimit="16"/>
<g opacity="0.15">
<mask id="mask1" mask-type="alpha" maskUnits="userSpaceOnUse" x="542" y="455" width="86" height="50">
<rect x="542" y="455" width="86" height="50" rx="4.1083" fill="#C4C4C4"/>
</mask>
<g mask="url(#mask1)">
<rect width="182.241" height="3.70032" transform="matrix(0.703677 -0.703134 0.703677 0.703134 574.28 614.967)" fill="#4D5F83"/>
<rect width="182.241" height="3.70032" transform="matrix(0.703676 -0.703134 0.703676 0.703134 569.073 609.763)" fill="#4D5F83"/>
<rect width="182.241" height="3.70032" transform="matrix(0.703676 -0.703134 0.703676 0.703134 563.865 604.559)" fill="#4D5F83"/>
<rect width="182.241" height="3.70032" transform="matrix(0.703676 -0.703134 0.703676 0.703134 558.657 599.356)" fill="#4D5F83"/>
<rect width="182.241" height="3.70032" transform="matrix(0.703676 -0.703134 0.703676 0.703134 553.45 594.152)" fill="#4D5F83"/>
<rect width="182.241" height="3.70032" transform="matrix(0.703676 -0.703134 0.703676 0.703134 548.242 588.948)" fill="#4D5F83"/>
<rect width="182.241" height="3.70032" transform="matrix(0.703676 -0.703134 0.703676 0.703134 543.034 583.745)" fill="#4D5F83"/>
<rect width="182.241" height="3.70032" transform="matrix(0.703676 -0.703134 0.703676 0.703134 537.827 578.541)" fill="#4D5F83"/>
<rect width="182.241" height="3.70032" transform="matrix(0.703676 -0.703134 0.703676 0.703134 532.619 573.338)" fill="#4D5F83"/>
<rect width="182.241" height="3.70032" transform="matrix(0.703676 -0.703134 0.703676 0.703134 527.412 568.134)" fill="#4D5F83"/>
<rect width="182.241" height="3.70032" transform="matrix(0.703676 -0.703134 0.703676 0.703134 522.204 562.93)" fill="#4D5F83"/>
<rect width="182.241" height="3.70032" transform="matrix(0.703676 -0.703134 0.703676 0.703134 516.996 557.727)" fill="#4D5F83"/>
<rect width="182.241" height="3.70032" transform="matrix(0.703676 -0.703134 0.703676 0.703134 511.788 552.523)" fill="#4D5F83"/>
<rect width="182.241" height="3.70032" transform="matrix(0.703676 -0.703134 0.703676 0.703134 506.581 547.319)" fill="#4D5F83"/>
<rect width="182.241" height="3.70032" transform="matrix(0.703676 -0.703134 0.703676 0.703134 501.373 542.115)" fill="#4D5F83"/>
<rect width="182.241" height="3.70032" transform="matrix(0.703676 -0.703134 0.703676 0.703134 496.165 536.912)" fill="#4D5F83"/>
<rect width="182.241" height="3.70032" transform="matrix(0.703676 -0.703134 0.703676 0.703134 490.958 531.708)" fill="#4D5F83"/>
<rect width="182.241" height="3.70032" transform="matrix(0.703676 -0.703134 0.703676 0.703134 485.75 526.505)" fill="#4D5F83"/>
<rect width="182.241" height="3.70032" transform="matrix(0.703676 -0.703134 0.703676 0.703134 480.543 521.301)" fill="#4D5F83"/>
<rect width="182.241" height="3.70032" transform="matrix(0.703676 -0.703134 0.703676 0.703134 475.335 516.097)" fill="#4D5F83"/>
<rect width="182.241" height="3.70032" transform="matrix(0.703676 -0.703134 0.703676 0.703134 470.127 510.894)" fill="#4D5F83"/>
</g>
</g>
<path d="M583.479 489V477.497H588.359C589.378 477.497 590.194 477.798 590.808 478.401C591.432 478.992 591.745 479.721 591.745 480.586C591.745 481.55 591.328 482.279 590.496 482.772V482.788C590.989 482.996 591.389 483.331 591.695 483.791C592.013 484.24 592.172 484.782 592.172 485.418C592.172 486.513 591.838 487.39 591.169 488.047C590.501 488.682 589.4 489 587.866 489H583.479ZM585.697 486.946H588.376C589.427 486.946 589.953 486.436 589.953 485.418C589.953 484.946 589.811 484.585 589.526 484.333C589.252 484.07 588.874 483.939 588.392 483.939H585.697V486.946ZM585.697 482.131H588.08C588.529 482.131 588.88 482.027 589.132 481.819C589.395 481.6 589.526 481.282 589.526 480.866C589.526 480.427 589.4 480.099 589.148 479.88C588.896 479.66 588.54 479.551 588.08 479.551H585.697V482.131Z" fill="#E5EBEF"/>
<path d="M57.311 477L56.6537 475.11H52.266L51.6087 477H49.4067L53.5643 465.497H55.4541L59.5953 477H57.311ZM54.4517 468.783L52.8905 473.27H56.0293L54.4845 468.783H54.4517Z" fill="#E5EBEF"/>
</g>
<defs>
<clipPath id="clip0">
<path d="M0 0H708V708H0V0Z" fill="white"/>
</clipPath>
</defs>
</svg>
